<svg width="40" height="40" viewBox="0 0 40 40" fill="none" xmlns="http://www.w3.org/2000/svg">
<path d="M20 0C8.90625 0 0 8.98438 0 20C0 31.0938 8.90625 40 20 40C31.0156 40 40 31.0938 40 20C40 8.98438 31.0156 0 20 0ZM18.125 11.875C18.125 10.8594 18.9062 10 20 10C21.0156 10 21.875 10.8594 21.875 11.875V21.875C21.875 22.9688 21.0156 23.75 20 23.75C18.9062 23.75 18.125 22.9688 18.125 21.875V11.875ZM20 31.25C18.5938 31.25 17.5 30.1562 17.5 28.8281C17.5 27.5 18.5938 26.4062 20 26.4062C21.3281 26.4062 22.4219 27.5 22.4219 28.8281C22.4219 30.1562 21.3281 31.25 20 31.25Z" fill="url(#paint0_linear_1214_17770)" fill-opacity="0.99"/>
<defs>
<linearGradient id="paint0_linear_1214_17770" x1="0" y1="0" x2="40" y2="40" gradientUnits="userSpaceOnUse">
<stop stop-color="#458AFE"/>
<stop offset="1" stop-color="#16CB9C"/>
</linearGradient>
</defs>
</svg>
