<svg width="106" height="120" viewBox="0 0 106 120" fill="none" xmlns="http://www.w3.org/2000/svg">
<path fill-rule="evenodd" clip-rule="evenodd" d="M33.0113 0H58.1726C61.1087 0 62.9813 3.15242 61.567 5.73121L54.1734 19.224C59.4391 22.3568 61.1288 29.0598 58.1871 34.2578C61.4097 35.348 61.0783 39.7219 57.9987 40.4886C24.8917 48.7306 13.326 90.413 38.136 114.432C40.2292 116.458 38.8035 120 35.8901 120H19.7678C7.62407 120 -1.53125 108.941 0.75891 96.9968L7.09278 63.9919C9.80488 49.8605 19.9517 38.7 32.9968 34.2581C30.0549 29.0594 31.7455 22.3568 37.0105 19.2242L29.617 5.73145C28.2048 3.15629 30.0708 0 33.0113 0ZM42.6888 32.1774H48.4952C50.7186 32.1774 52.4484 30.0218 51.7081 27.6919C51.2702 26.3105 49.9444 25.4032 48.4952 25.4032H42.6888C41.2396 25.4032 39.9137 26.3105 39.4758 27.6919C38.7355 30.0218 40.4654 32.1774 42.6888 32.1774Z" fill="url(#paint0_linear_1629_18984)" fill-opacity="0.99"/>
<path fill-rule="evenodd" clip-rule="evenodd" d="M68.5758 45.9677C48.1662 45.9677 31.5597 62.5742 31.5597 82.9839C31.5597 103.394 48.1662 120 68.5758 120C88.9855 120 105.592 103.394 105.592 82.9839C105.592 62.5742 88.9855 45.9677 68.5758 45.9677ZM65.7646 73.4371C65.7646 70.6016 63.4565 68.296 60.621 68.296C57.7855 68.296 55.4775 70.6016 55.4775 73.4371C55.4775 76.275 57.7855 78.5831 60.621 78.5831C63.4565 78.5831 65.7646 76.2748 65.7646 73.4371ZM71.3871 92.5306C71.3871 95.3661 73.6952 97.6718 76.5307 97.6718C79.3662 97.6718 81.6742 95.3661 81.6742 92.5306C81.6742 89.6927 79.3662 87.3847 76.5307 87.3847C73.6952 87.3847 71.3871 89.693 71.3871 92.5306ZM61.7678 95.2667L80.8589 76.1758C82.371 74.6637 82.371 72.2129 80.8589 70.7008C79.3468 69.1887 76.896 69.1887 75.3839 70.7008L56.2928 89.7917C54.7807 91.3038 54.7807 93.7546 56.2928 95.2667C57.8073 96.7764 60.2467 96.7829 61.7678 95.2667Z" fill="url(#paint1_linear_1629_18984)" fill-opacity="0.99"/>
<defs>
<linearGradient id="paint0_linear_1629_18984" x1="0.40625" y1="0" x2="119.372" y2="104.279" gradientUnits="userSpaceOnUse">
<stop stop-color="#458AFE"/>
<stop offset="1" stop-color="#16CB9C"/>
</linearGradient>
<linearGradient id="paint1_linear_1629_18984" x1="0.40625" y1="0" x2="119.372" y2="104.279" gradientUnits="userSpaceOnUse">
<stop stop-color="#458AFE"/>
<stop offset="1" stop-color="#16CB9C"/>
</linearGradient>
</defs>
</svg>
