<svg width="21" height="24" viewBox="0 0 21 24" fill="none" xmlns="http://www.w3.org/2000/svg">
<path d="M0.5625 9C0.234375 9 0 9.28125 0 9.5625L0 21.75C0 23.0156 0.984375 24 2.25 24H18.75C19.9688 24 21 23.0156 21 21.75V9.5625C21 9.28125 20.7188 9 20.4375 9L0.5625 9ZM21 6.9375V5.25C21 4.03125 19.9688 3 18.75 3L16.5 3V0.5625C16.5 0.28125 16.2188 0 15.9375 0L14.0625 0C13.7344 0 13.5 0.28125 13.5 0.5625V3L7.5 3V0.5625C7.5 0.28125 7.21875 0 6.9375 0L5.0625 0C4.73438 0 4.5 0.28125 4.5 0.5625V3L2.25 3C0.984375 3 0 4.03125 0 5.25L0 6.9375C0 7.26562 0.234375 7.5 0.5625 7.5L20.4375 7.5C20.7188 7.5 21 7.26562 21 6.9375Z" fill="url(#paint0_linear_1221_17773)" fill-opacity="0.99"/>
<defs>
<linearGradient id="paint0_linear_1221_17773" x1="0" y1="0" x2="23.7876" y2="20.8142" gradientUnits="userSpaceOnUse">
<stop stop-color="#458AFE"/>
<stop offset="1" stop-color="#16CB9C"/>
</linearGradient>
</defs>
</svg>
