<svg width="27" height="25" viewBox="0 0 27 25" fill="none" xmlns="http://www.w3.org/2000/svg">
<path d="M18.8438 4.41992C18.6562 4.23242 18.375 4.23242 18.1875 4.41992L7.96875 14.6387L7.5 18.998C7.40625 19.5605 7.92188 20.0762 8.48438 19.9824L12.8438 19.5137L23.0625 9.29492C23.25 9.10742 23.25 8.82617 23.0625 8.63867L18.8438 4.41992ZM26.4375 3.3418L24.1406 1.04492C23.4375 0.341797 22.2656 0.341797 21.5625 1.04492L19.9219 2.68555C19.7344 2.87305 19.7344 3.1543 19.9219 3.3418L24.1406 7.56055C24.3281 7.74805 24.6094 7.74805 24.7969 7.56055L26.4375 5.91992C27.1406 5.2168 27.1406 4.04492 26.4375 3.3418ZM18 16.748V21.4824H3V6.48242H13.7344C13.9219 6.48242 14.0625 6.43555 14.1562 6.3418L16.0312 4.4668C16.3594 4.0918 16.125 3.48242 15.6094 3.48242H2.25C0.984375 3.48242 0 4.51367 0 5.73242V22.2324C0 23.498 0.984375 24.4824 2.25 24.4824H18.75C19.9688 24.4824 21 23.498 21 22.2324V14.873C21 14.3574 20.3906 14.123 20.0156 14.4512L18.1406 16.3262C18.0469 16.4199 18 16.5605 18 16.748Z" fill="white"/>
</svg>
