<svg width="39" height="39" viewBox="0 0 39 39" fill="none" xmlns="http://www.w3.org/2000/svg">
<path d="M38.75 19.375C38.75 8.75 30 0 19.375 0C8.67188 0 0 8.75 0 19.375C0 30.0781 8.67188 38.75 19.375 38.75C30 38.75 38.75 30.0781 38.75 19.375ZM17.1094 29.6875C16.6406 30.1562 15.7812 30.1562 15.3125 29.6875L7.1875 21.5625C6.71875 21.0938 6.71875 20.2344 7.1875 19.7656L8.98438 18.0469C9.45312 17.5 10.2344 17.5 10.7031 18.0469L16.25 23.5156L27.9688 11.7969C28.4375 11.25 29.2188 11.25 29.6875 11.7969L31.4844 13.5156C31.9531 13.9844 31.9531 14.8438 31.4844 15.3125L17.1094 29.6875Z" fill="url(#paint0_linear_1214_17768)" fill-opacity="0.99"/>
<defs>
<linearGradient id="paint0_linear_1214_17768" x1="0" y1="0" x2="38.75" y2="38.75" gradientUnits="userSpaceOnUse">
<stop stop-color="#458AFE"/>
<stop offset="1" stop-color="#16CB9C"/>
</linearGradient>
</defs>
</svg>
