<svg width="58" height="58" viewBox="0 0 58 58" fill="none" xmlns="http://www.w3.org/2000/svg">
<rect width="58" height="58" rx="18.8764" fill="#16CB9C"/>
<path d="M46 27H44.125C43.5625 25.75 42.75 24.6875 41.8125 23.75L43 19H41C39.125 19 37.5 19.875 36.4375 21.1875C35.9375 21.125 35.4375 21 35 21H27C22.125 21 18.125 24.4375 17.1875 29H14.5C13.5625 29 12.8125 28.1875 13 27.25C13.125 26.5 13.8125 26 14.5625 26H14.625C14.8125 26 15 25.875 15 25.625V24.375C15 24.1875 14.8125 24 14.625 24C12.8125 24 11.25 25.3125 11 27.0625C10.75 29.1875 12.375 31 14.5 31H17C17 34.3125 18.5625 37.1875 21 39V44C21 44.5625 21.4375 45 22 45H26C26.5 45 27 44.5625 27 44V41H35V44C35 44.5625 35.4375 45 36 45H40C40.5 45 41 44.5625 41 44V39C41.6875 38.4375 42.375 37.75 42.9375 37H46C46.5 37 47 36.5625 47 36V28C47 27.5 46.5 27 46 27ZM38 31C37.4375 31 37 30.5625 37 30C37 29.5 37.4375 29 38 29C38.5 29 39 29.5 39 30C39 30.5625 38.5 31 38 31ZM27 19H35C35.3125 19 35.625 19.0625 35.9375 19.0625C35.9375 19.0625 36 19.0625 36 19C36 15.6875 33.3125 13 30 13C26.6875 13 24 15.6875 24 19C24 19.1875 24 19.3125 24 19.4375C24.9375 19.1875 25.9375 19 27 19Z" fill="white"/>
</svg>
