<svg width="18" height="24" viewBox="0 0 18 24" fill="none" xmlns="http://www.w3.org/2000/svg">
<path d="M10.5 6.375V0H1.125C0.46875 0 0 0.515625 0 1.125V22.875C0 23.5312 0.46875 24 1.125 24H16.875C17.4844 24 18 23.5312 18 22.875V7.5H11.625C10.9688 7.5 10.5 7.03125 10.5 6.375ZM13.5 17.4375C13.5 17.7656 13.2188 18 12.9375 18H5.0625C4.73438 18 4.5 17.7656 4.5 17.4375V17.0625C4.5 16.7812 4.73438 16.5 5.0625 16.5H12.9375C13.2188 16.5 13.5 16.7812 13.5 17.0625V17.4375ZM13.5 14.4375C13.5 14.7656 13.2188 15 12.9375 15H5.0625C4.73438 15 4.5 14.7656 4.5 14.4375V14.0625C4.5 13.7812 4.73438 13.5 5.0625 13.5H12.9375C13.2188 13.5 13.5 13.7812 13.5 14.0625V14.4375ZM13.5 11.0625V11.4375C13.5 11.7656 13.2188 12 12.9375 12H5.0625C4.73438 12 4.5 11.7656 4.5 11.4375V11.0625C4.5 10.7812 4.73438 10.5 5.0625 10.5H12.9375C13.2188 10.5 13.5 10.7812 13.5 11.0625ZM18 5.71875C18 5.4375 17.8594 5.15625 17.6719 4.92188L13.0781 0.328125C12.8438 0.140625 12.5625 0 12.2812 0H12V6H18V5.71875Z" fill="url(#paint0_linear_1619_18986)" fill-opacity="0.99"/>
<defs>
<linearGradient id="paint0_linear_1619_18986" x1="0" y1="0" x2="23.04" y2="17.28" gradientUnits="userSpaceOnUse">
<stop stop-color="#458AFE"/>
<stop offset="1" stop-color="#16CB9C"/>
</linearGradient>
</defs>
</svg>
