<svg width="24" height="24" viewBox="0 0 24 24" fill="none" xmlns="http://www.w3.org/2000/svg">
<path d="M8.25 10.125H15.75C16.125 10.125 16.5 9.79688 16.5 9.375V8.625C16.5 8.25 16.125 7.875 15.75 7.875H8.25C7.82812 7.875 7.5 8.25 7.5 8.625V9.375C7.5 9.79688 7.82812 10.125 8.25 10.125ZM7.5 13.875C7.5 14.2969 7.82812 14.625 8.25 14.625H15.75C16.125 14.625 16.5 14.2969 16.5 13.875V13.125C16.5 12.75 16.125 12.375 15.75 12.375H8.25C7.82812 12.375 7.5 12.75 7.5 13.125V13.875ZM12 19.5938C11.2031 19.5938 10.4531 19.3594 9.79688 18.8438L0 11.7656V21.75C0 23.0156 0.984375 24 2.25 24H21.75C22.9688 24 24 23.0156 24 21.75V11.7656L14.1562 18.8438C13.5 19.3594 12.75 19.5938 12 19.5938ZM23.1094 7.64062C22.6875 7.35938 22.3125 7.03125 21.75 6.60938V4.5C21.75 3.28125 20.7188 2.25 19.5 2.25H15.8438C15.7031 2.15625 15.5625 2.0625 15.4219 1.96875C14.625 1.40625 13.0781 0 12 0C10.875 0 9.32812 1.40625 8.53125 1.96875C8.39062 2.0625 8.25 2.15625 8.10938 2.25H4.5C3.23438 2.25 2.25 3.28125 2.25 4.5V6.60938C1.64062 7.03125 1.26562 7.35938 0.84375 7.64062C0.328125 8.0625 0 8.71875 0 9.42188V9.9375L4.5 13.1719V4.5H19.5V13.1719L24 9.9375V9.42188C24 8.71875 23.6719 8.10938 23.1094 7.64062Z" fill="#16CB9C"/>
</svg>
