<svg width="24" height="24" viewBox="0 0 24 24" fill="none" xmlns="http://www.w3.org/2000/svg">
<path d="M12 0.375C5.4375 0.375 0.375 5.20312 0.375 11.6719C0.375 15.0469 1.73438 18 4.03125 20.0156C4.40625 20.3906 4.3125 20.5781 4.40625 22.7344C4.40625 23.3906 5.10938 23.8125 5.71875 23.5781C8.15625 22.5 8.20312 22.4062 8.625 22.5C15.7969 24.4688 23.625 19.875 23.625 11.6719C23.625 5.20312 18.5625 0.375 12 0.375ZM18.9844 9.09375L15.5625 14.4844C15.0469 15.375 13.875 15.5625 13.0312 14.9531L10.3125 12.9375C10.0781 12.75 9.75 12.75 9.46875 12.9375L5.8125 15.7031C5.29688 16.0781 4.6875 15.4688 5.01562 14.9531L8.4375 9.5625C8.95312 8.67188 10.125 8.48438 10.9688 9.09375L13.6875 11.1094C13.9219 11.2969 14.25 11.2969 14.5312 11.1094L18.1875 8.34375C18.7031 7.96875 19.3125 8.57812 18.9844 9.09375Z" fill="white"/>
</svg>
