<svg width="24" height="24" viewBox="0 0 24 24" fill="none" xmlns="http://www.w3.org/2000/svg">
<path d="M11.875 0C5.3125 0 0.25 4.82812 0.25 11.2969C0.25 14.6719 1.60938 17.625 3.90625 19.6406C4.28125 20.0156 4.1875 20.2031 4.28125 22.3594C4.28125 23.0156 4.98438 23.4375 5.59375 23.2031C8.03125 22.125 8.07812 22.0312 8.5 22.125C15.6719 24.0938 23.5 19.5 23.5 11.2969C23.5 4.82812 18.4375 0 11.875 0ZM18.8594 8.71875L15.4375 14.1094C14.9219 15 13.75 15.1875 12.9062 14.5781L10.1875 12.5625C9.95312 12.375 9.625 12.375 9.34375 12.5625L5.6875 15.3281C5.17188 15.7031 4.5625 15.0938 4.89062 14.5781L8.3125 9.1875C8.82812 8.29688 10 8.10938 10.8438 8.71875L13.5625 10.7344C13.7969 10.9219 14.125 10.9219 14.4062 10.7344L18.0625 7.96875C18.5781 7.59375 19.1875 8.20312 18.8594 8.71875Z" fill="white"/>
</svg>
