<svg width="22" height="22" viewBox="0 0 22 22" fill="none" xmlns="http://www.w3.org/2000/svg">
<path d="M19.25 0.267578L2.75 0.267578C1.48438 0.267578 0.5 1.29883 0.5 2.51758L0.5 19.0176C0.5 20.2832 1.48438 21.2676 2.75 21.2676H9.17188L9.17188 14.1426H6.21875L6.21875 10.7676H9.17188V8.23633C9.17188 5.33008 10.9062 3.68945 13.5312 3.68945C14.8438 3.68945 16.1562 3.92383 16.1562 3.92383V6.7832H14.7031C13.25 6.7832 12.7813 7.67383 12.7813 8.61133V10.7676H16.0156L15.5 14.1426H12.7813L12.7813 21.2676H19.25C20.4688 21.2676 21.5 20.2832 21.5 19.0176L21.5 2.51758C21.5 1.29883 20.4688 0.267578 19.25 0.267578Z" fill="white"/>
</svg>
