<svg width="100" height="77" viewBox="0 0 100 77" fill="none" xmlns="http://www.w3.org/2000/svg">
<path d="M81.25 75C91.6016 75 100 66.6016 100 56.25V18.75C100 8.39844 91.6016 0 81.25 0H64.8438C63.4766 0 62.5 1.17188 62.5 2.34375V10.1562C62.5 11.5234 63.4766 12.5 64.8438 12.5H81.25C84.5703 12.5 87.5 15.4297 87.5 18.75V56.25C87.5 59.7656 84.5703 62.5 81.25 62.5H64.8438C63.4766 62.5 62.5 63.6719 62.5 64.8438V72.6562C62.5 74.0234 63.4766 75 64.8438 75H81.25ZM72.0703 35.7422L39.2578 2.92969C36.3281 0 31.25 2.14844 31.25 6.25V25H4.6875C1.95312 25 0 27.1484 0 29.6875V48.4375C0 51.1719 1.95312 53.125 4.6875 53.125H31.25V71.875C31.25 76.1719 36.3281 78.125 39.2578 75.1953L72.0703 42.3828C73.8281 40.625 73.8281 37.6953 72.0703 35.7422Z" fill="url(#paint0_linear_1208_17766)" fill-opacity="0.99"/>
<defs>
<linearGradient id="paint0_linear_1208_17766" x1="0" y1="0" x2="73.9467" y2="96.5465" gradientUnits="userSpaceOnUse">
<stop stop-color="#458AFE"/>
<stop offset="1" stop-color="#16CB9C"/>
</linearGradient>
</defs>
</svg>
