<svg width="50" height="40" viewBox="0 0 50 40" fill="none" xmlns="http://www.w3.org/2000/svg">
<path d="M38.1597 14.9595H26.2847V18.9439C26.2847 21.9127 24.0972 24.5689 21.2066 24.8814C17.8472 25.272 15.0347 22.6158 15.0347 19.3345V9.88142L13.0816 11.0533C9.6441 13.0845 7.53472 16.8345 7.53472 20.897L1.28472 24.4908C0.0347222 25.1939 -0.355903 26.7564 0.347222 27.9283L6.59722 38.7877C7.30035 39.9595 8.78472 40.3502 10.0347 39.647L18.0816 35.0377H28.7847C31.5191 35.0377 33.7847 32.772 33.7847 30.0377C35.816 30.0377 37.5347 28.3189 37.5347 26.2877V22.4595H38.1597C39.1753 22.4595 40.0347 21.6783 40.0347 20.5845V16.8345C40.0347 15.8189 39.1753 14.9595 38.1597 14.9595ZM49.6441 12.0689L43.3941 1.20955C42.691 0.0376729 41.2066 -0.352952 40.0347 0.350173L31.9097 4.95955H27.066C24.0972 4.95955 21.2066 5.81892 18.6285 7.38142C17.9253 7.85017 17.5347 8.63142 17.5347 9.4908V19.3345C17.5347 21.1314 18.8628 22.4595 20.6597 22.4595C22.3785 22.4595 23.7847 21.1314 23.7847 19.3345V12.4595H38.1597C40.5035 12.4595 42.5347 14.4127 42.5347 16.8345V19.022L48.7847 15.4283C49.9566 14.8033 50.3472 13.2408 49.6441 12.0689Z" fill="url(#paint0_linear_1214_17775)" fill-opacity="0.99"/>
<defs>
<linearGradient id="paint0_linear_1214_17775" x1="0" y1="0" x2="39.0221" y2="48.7754" gradientUnits="userSpaceOnUse">
<stop stop-color="#458AFE"/>
<stop offset="1" stop-color="#16CB9C"/>
</linearGradient>
</defs>
</svg>
