<svg width="75" height="101" viewBox="0 0 75 101" fill="none" xmlns="http://www.w3.org/2000/svg">
<path d="M70.3125 0.5H4.6875C1.95312 0.5 0 2.64844 0 5.1875V8.3125C0 11.0469 1.95312 13 4.6875 13C4.6875 30.7734 14.6484 45.8125 28.125 50.5C14.6484 55.3828 4.6875 70.4219 4.6875 88C1.95312 88 0 90.1484 0 92.6875V95.8125C0 98.5469 1.95312 100.5 4.6875 100.5H70.3125C72.8516 100.5 75 98.5469 75 95.8125V92.6875C75 90.1484 72.8516 88 70.3125 88C70.3125 70.4219 60.1562 55.3828 46.6797 50.5C60.1562 45.8125 70.3125 30.7734 70.3125 13C72.8516 13 75 11.0469 75 8.3125V5.1875C75 2.64844 72.8516 0.5 70.3125 0.5ZM55.4688 75.5H19.3359C22.6562 66.5156 29.4922 59.875 37.5 59.875C45.3125 59.875 52.1484 66.5156 55.4688 75.5ZM55.4688 25.5H19.3359C17.7734 21.7891 17.1875 17.4922 17.1875 13H57.8125C57.8125 17.4922 57.0312 21.7891 55.4688 25.5Z" fill="url(#paint0_linear_1208_17771)" fill-opacity="0.99"/>
<defs>
<linearGradient id="paint0_linear_1208_17771" x1="0" y1="0.5" x2="96" y2="72.5" gradientUnits="userSpaceOnUse">
<stop stop-color="#458AFE"/>
<stop offset="1" stop-color="#16CB9C"/>
</linearGradient>
</defs>
</svg>
