<svg width="58" height="58" viewBox="0 0 58 58" fill="none" xmlns="http://www.w3.org/2000/svg">
<rect width="58" height="58" rx="18.8764" fill="#16CB9C"/>
<path d="M13 38.375V41C13 43.25 18.375 45 25 45C31.625 45 37 43.25 37 41V38.375C34.375 40.1875 29.6875 41 25 41C20.25 41 15.5625 40.1875 13 38.375ZM33 21C39.625 21 45 19.25 45 17C45 14.8125 39.625 13 33 13C26.375 13 21 14.8125 21 17C21 19.25 26.375 21 33 21ZM13 31.8125V35C13 37.25 18.375 39 25 39C31.625 39 37 37.25 37 35V31.8125C34.375 33.9375 29.6875 35 25 35C20.25 35 15.5625 33.9375 13 31.8125ZM39 32.5C42.5625 31.8125 45 30.5 45 29V26.375C43.5 27.375 41.375 28.0625 39 28.5V32.5ZM25 23C18.375 23 13 25.25 13 28C13 30.8125 18.375 33 25 33C31.625 33 37 30.8125 37 28C37 25.25 31.625 23 25 23ZM38.6875 26.5625C42.4375 25.875 45 24.5625 45 23V20.375C42.75 21.9375 38.9375 22.75 34.9375 23C36.75 23.875 38.125 25.0625 38.6875 26.5625Z" fill="white"/>
</svg>
