<svg width="58" height="58" viewBox="0 0 58 58" fill="none" xmlns="http://www.w3.org/2000/svg">
<rect width="58" height="58" rx="18.8764" fill="#16CB9C"/>
<path d="M35 29H23V33H35V29ZM40.5625 19.5625L34.4375 13.4375C34.125 13.1875 33.75 13 33.375 13H33V21H41V20.625C41 20.25 40.8125 19.875 40.5625 19.5625ZM31 21.5V13H18.5C17.625 13 17 13.6875 17 14.5V43.5C17 44.375 17.625 45 18.5 45H39.5C40.3125 45 41 44.375 41 43.5V23H32.5C31.625 23 31 22.375 31 21.5ZM21 17.5C21 17.25 21.1875 17 21.5 17H26.5C26.75 17 27 17.25 27 17.5V18.5C27 18.8125 26.75 19 26.5 19H21.5C21.1875 19 21 18.8125 21 18.5V17.5ZM21 21.5C21 21.25 21.1875 21 21.5 21H26.5C26.75 21 27 21.25 27 21.5V22.5C27 22.8125 26.75 23 26.5 23H21.5C21.1875 23 21 22.8125 21 22.5V21.5ZM37 40.5C37 40.8125 36.75 41 36.5 41H31.5C31.1875 41 31 40.8125 31 40.5V39.5C31 39.25 31.1875 39 31.5 39H36.5C36.75 39 37 39.25 37 39.5V40.5ZM37 28V34C37 34.5625 36.5 35 36 35H22C21.4375 35 21 34.5625 21 34V28C21 27.5 21.4375 27 22 27H36C36.5 27 37 27.5 37 28Z" fill="white"/>
</svg>
