<svg width="50" height="40" viewBox="0 0 50 40" fill="none" xmlns="http://www.w3.org/2000/svg">
<path d="M48.75 32.5H29.7656C29.6875 34.0625 28.5938 35 27.1875 35H22.5C21.0156 35 19.8438 33.6719 19.9219 32.5H1.25C0.546875 32.5 0 33.125 0 33.75V35C0 37.8125 2.1875 40 5 40H45C47.7344 40 50 37.8125 50 35V33.75C50 33.125 49.375 32.5 48.75 32.5ZM45 3.75C45 1.71875 43.2812 0 41.25 0H8.75C6.64062 0 5 1.71875 5 3.75V30H45V3.75ZM40 25H10V5H40V25Z" fill="url(#paint0_linear_1214_17769)" fill-opacity="0.99"/>
<defs>
<linearGradient id="paint0_linear_1214_17769" x1="0" y1="0" x2="39.0244" y2="48.7805" gradientUnits="userSpaceOnUse">
<stop stop-color="#458AFE"/>
<stop offset="1" stop-color="#16CB9C"/>
</linearGradient>
</defs>
</svg>
