<svg width="24" height="22" viewBox="0 0 24 22" fill="none" xmlns="http://www.w3.org/2000/svg">
<path d="M3 3.5H0C0 9.3125 4.6875 14 10.5 14L10.5 20.75C10.5 21.1719 10.8281 21.5 11.25 21.5H12.75C13.125 21.5 13.5 21.1719 13.5 20.75L13.5 14C13.5 8.23438 8.76562 3.5 3 3.5ZM21 0.5C17.0156 0.5 13.5938 2.70312 11.8125 5.9375C13.125 7.34375 14.0625 9.07812 14.5781 10.9531C19.875 10.4375 24 5.9375 24 0.5L21 0.5Z" fill="url(#paint0_linear_1221_17775)" fill-opacity="0.99"/>
<defs>
<linearGradient id="paint0_linear_1221_17775" x1="0" y1="0.5" x2="20.8142" y2="24.2876" gradientUnits="userSpaceOnUse">
<stop stop-color="#458AFE"/>
<stop offset="1" stop-color="#16CB9C"/>
</linearGradient>
</defs>
</svg>
