<svg width="88" height="101" viewBox="0 0 88 101" fill="none" xmlns="http://www.w3.org/2000/svg">
<path d="M78.375 44.25H73.6875V30.1875C73.6875 13.9766 60.2109 0.5 44 0.5C27.5938 0.5 14.3125 13.9766 14.3125 30.1875V44.25H9.625C4.35156 44.25 0.25 48.5469 0.25 53.625V91.125C0.25 96.3984 4.35156 100.5 9.625 100.5H78.375C83.4531 100.5 87.75 96.3984 87.75 91.125V53.625C87.75 48.5469 83.4531 44.25 78.375 44.25ZM58.0625 44.25H29.9375V30.1875C29.9375 22.5703 36.1875 16.125 44 16.125C51.6172 16.125 58.0625 22.5703 58.0625 30.1875V44.25Z" fill="url(#paint0_linear_1208_17767)" fill-opacity="0.99"/>
<defs>
<linearGradient id="paint0_linear_1208_17767" x1="0.25" y1="0.5" x2="99.365" y2="87.2257" gradientUnits="userSpaceOnUse">
<stop stop-color="#458AFE"/>
<stop offset="1" stop-color="#16CB9C"/>
</linearGradient>
</defs>
</svg>
