<svg width="100" height="101" viewBox="0 0 100 101" fill="none" xmlns="http://www.w3.org/2000/svg">
<path d="M34.375 42.6875H65.625C67.1875 42.6875 68.75 41.3203 68.75 39.5625V36.4375C68.75 34.875 67.1875 33.3125 65.625 33.3125H34.375C32.6172 33.3125 31.25 34.875 31.25 36.4375V39.5625C31.25 41.3203 32.6172 42.6875 34.375 42.6875ZM31.25 58.3125C31.25 60.0703 32.6172 61.4375 34.375 61.4375H65.625C67.1875 61.4375 68.75 60.0703 68.75 58.3125V55.1875C68.75 53.625 67.1875 52.0625 65.625 52.0625H34.375C32.6172 52.0625 31.25 53.625 31.25 55.1875V58.3125ZM50 82.1406C46.6797 82.1406 43.5547 81.1641 40.8203 79.0156L0 49.5234V91.125C0 96.3984 4.10156 100.5 9.375 100.5H90.625C95.7031 100.5 100 96.3984 100 91.125V49.5234L58.9844 79.0156C56.25 81.1641 53.125 82.1406 50 82.1406ZM96.2891 32.3359C94.5312 31.1641 92.9688 29.7969 90.625 28.0391V19.25C90.625 14.1719 86.3281 9.875 81.25 9.875H66.0156C65.4297 9.48438 64.8438 9.09375 64.2578 8.70312C60.9375 6.35938 54.4922 0.5 50 0.5C45.3125 0.5 38.8672 6.35938 35.5469 8.70312C34.9609 9.09375 34.375 9.48438 33.7891 9.875H18.75C13.4766 9.875 9.375 14.1719 9.375 19.25V28.0391C6.83594 29.7969 5.27344 31.1641 3.51562 32.3359C1.36719 34.0938 0 36.8281 0 39.7578V41.9062L18.75 55.3828V19.25H81.25V55.3828L100 41.9062V39.7578C100 36.8281 98.6328 34.2891 96.2891 32.3359Z" fill="url(#paint0_linear_1208_17764)" fill-opacity="0.99"/>
<defs>
<linearGradient id="paint0_linear_1208_17764" x1="0" y1="0.5" x2="100" y2="100.5" gradientUnits="userSpaceOnUse">
<stop stop-color="#458AFE"/>
<stop offset="1" stop-color="#16CB9C"/>
</linearGradient>
</defs>
</svg>
