<svg width="40" height="40" viewBox="0 0 40 40" fill="none" xmlns="http://www.w3.org/2000/svg">
<path d="M39.375 20C39.375 9.375 30.625 0.625 20 0.625C9.29688 0.625 0.625 9.375 0.625 20C0.625 30.7031 9.29688 39.375 20 39.375C30.625 39.375 39.375 30.7031 39.375 20ZM20 23.9062C21.9531 23.9062 23.5938 25.5469 23.5938 27.5C23.5938 29.5312 21.9531 31.0938 20 31.0938C17.9688 31.0938 16.4062 29.5312 16.4062 27.5C16.4062 25.5469 17.9688 23.9062 20 23.9062ZM16.5625 11.0156C16.4844 10.4688 16.9531 10 17.5 10H22.4219C22.9688 10 23.4375 10.4688 23.3594 11.0156L22.8125 21.6406C22.7344 22.1875 22.3438 22.5 21.875 22.5H18.0469C17.5781 22.5 17.1875 22.1875 17.1094 21.6406L16.5625 11.0156Z" fill="url(#paint0_linear_1214_17765)" fill-opacity="0.99"/>
<defs>
<linearGradient id="paint0_linear_1214_17765" x1="0.625" y1="0.625" x2="39.375" y2="39.375" gradientUnits="userSpaceOnUse">
<stop stop-color="#458AFE"/>
<stop offset="1" stop-color="#16CB9C"/>
</linearGradient>
</defs>
</svg>
