<svg width="125" height="75" viewBox="0 0 125 75" fill="none" xmlns="http://www.w3.org/2000/svg">
<path d="M118.75 0H6.25C2.73438 0 0 2.92969 0 6.25V68.75C0 72.2656 2.73438 75 6.25 75H118.75C122.07 75 125 72.2656 125 68.75V6.25C125 2.92969 122.07 0 118.75 0ZM9.375 65.625V53.125C16.2109 53.125 21.875 58.7891 21.875 65.625H9.375ZM9.375 21.875V9.375H21.875C21.875 16.4062 16.2109 21.875 9.375 21.875ZM62.5 56.25C53.7109 56.25 46.875 48.0469 46.875 37.5C46.875 27.1484 53.7109 18.75 62.5 18.75C71.0938 18.75 78.125 27.1484 78.125 37.5C78.125 48.0469 71.0938 56.25 62.5 56.25ZM115.625 65.625H103.125C103.125 58.7891 108.594 53.125 115.625 53.125V65.625ZM115.625 21.875C108.594 21.875 103.125 16.4062 103.125 9.375H115.625V21.875Z" fill="url(#paint0_linear_1208_17769)" fill-opacity="0.99"/>
<defs>
<linearGradient id="paint0_linear_1208_17769" x1="0" y1="0" x2="66.1765" y2="110.294" gradientUnits="userSpaceOnUse">
<stop stop-color="#458AFE"/>
<stop offset="1" stop-color="#16CB9C"/>
</linearGradient>
</defs>
</svg>
