<svg width="15" height="21" viewBox="0 0 15 21" fill="none" xmlns="http://www.w3.org/2000/svg">
<path d="M14.5312 17.9062C14.4844 17.625 14.1562 17.3906 13.875 17.4844C13.3594 17.5781 12.5625 17.7188 11.7188 17.7188C9.09375 17.7188 6.9375 16.125 6.04688 13.7344H11.3906C11.625 13.7344 11.8594 13.5469 11.9062 13.2656L12.2344 11.9531C12.2812 11.625 12.0469 11.25 11.6719 11.25H5.39062C5.34375 10.5938 5.29688 9.9375 5.39062 9.28125H12.2344C12.5156 9.28125 12.75 9.09375 12.7969 8.85938L13.125 7.45312C13.1719 7.125 12.9375 6.75 12.5625 6.75H6.09375C7.03125 4.6875 9 3.23438 11.5781 3.23438C12.2812 3.23438 12.9375 3.375 13.3594 3.46875C13.6406 3.51562 13.9688 3.32812 14.0156 3.04688L14.5781 0.984375C14.6719 0.65625 14.4844 0.328125 14.1562 0.28125C13.5938 0.140625 12.6562 0 11.6719 0C7.125 0 3.46875 2.85938 2.10938 6.75H0.5625C0.234375 6.75 0 7.03125 0 7.3125V8.71875C0 9.04688 0.234375 9.28125 0.5625 9.28125H1.54688C1.5 9.9375 1.5 10.6875 1.54688 11.25H0.5625C0.234375 11.25 0 11.5312 0 11.8125V13.1719C0 13.4531 0.234375 13.7344 0.5625 13.7344H1.96875C3.14062 17.9531 6.79688 21 11.6719 21C12.8906 21 13.9688 20.8125 14.5312 20.6719C14.8125 20.5781 15 20.2969 14.9531 20.0156L14.5312 17.9062Z" fill="url(#paint0_linear_1214_17766)" fill-opacity="0.99"/>
<defs>
<linearGradient id="paint0_linear_1214_17766" x1="0" y1="0" x2="19.8477" y2="14.1394" gradientUnits="userSpaceOnUse">
<stop stop-color="#458AFE"/>
<stop offset="1" stop-color="#16CB9C"/>
</linearGradient>
</defs>
</svg>
