<svg width="45" height="41" viewBox="0 0 45 41" fill="none" xmlns="http://www.w3.org/2000/svg">
<path d="M0 5C0 2.26562 2.1875 0 5 0H17.5V10C17.5 11.4062 18.5938 12.5 20 12.5H30V16.1719L22.7344 19.1406C21.0156 19.7656 20 21.4062 20 23.2031C20 27.5781 21.4062 34.7656 27.3438 39.4531C26.6406 39.8438 25.7812 40 25 40H5C2.1875 40 0 37.8125 0 35V5ZM20 10V0L30 10H20ZM33.0469 17.6562C33.4375 17.5 33.9844 17.5 34.375 17.6562L43.75 21.4062C44.5312 21.7188 45 22.4219 45 23.125C45 28.125 42.9688 36.3281 34.4531 39.9219C33.9844 40.0781 33.4375 40.0781 32.9688 39.9219C24.4531 36.3281 22.5 28.125 22.5 23.125C22.5 22.4219 22.8906 21.7188 23.6719 21.4062L33.0469 17.6562ZM33.75 21.4062V36.0938C39.0625 33.5156 40.8594 28.3594 41.1719 24.375L33.75 21.4062Z" fill="url(#paint0_linear_1214_17772)" fill-opacity="0.99"/>
<defs>
<linearGradient id="paint0_linear_1214_17772" x1="0" y1="0" x2="39.7675" y2="44.6947" gradientUnits="userSpaceOnUse">
<stop stop-color="#458AFE"/>
<stop offset="1" stop-color="#16CB9C"/>
</linearGradient>
</defs>
</svg>
