<svg width="21" height="18" viewBox="0 0 21 18" fill="none" xmlns="http://www.w3.org/2000/svg">
<path d="M4.032 0C5.376 0 6.392 0.472 7.08 1.416C7.784 2.344 8.136 3.656 8.136 5.352C8.136 7.048 7.808 8.376 7.152 9.336C6.496 10.28 5.456 10.752 4.032 10.752C3.152 10.752 2.408 10.536 1.8 10.104C1.208 9.672 0.76 9.056 0.456 8.256C0.152 7.44 0 6.472 0 5.352C0 3.656 0.32 2.344 0.96 1.416C1.6 0.472 2.624 0 4.032 0ZM4.056 2.448C3.672 2.448 3.392 2.688 3.216 3.168C3.04 3.648 2.952 4.384 2.952 5.376C2.952 6.352 3.04 7.088 3.216 7.584C3.392 8.08 3.672 8.328 4.056 8.328C4.44 8.328 4.72 8.08 4.896 7.584C5.088 7.088 5.184 6.352 5.184 5.376C5.184 4.384 5.088 3.648 4.896 3.168C4.72 2.688 4.44 2.448 4.056 2.448ZM16.2 0.24L6.696 17.376H3.888L13.392 0.24H16.2ZM16.032 6.84C16.928 6.84 17.68 7.056 18.288 7.488C18.896 7.904 19.352 8.512 19.656 9.312C19.976 10.096 20.136 11.056 20.136 12.192C20.136 13.888 19.808 15.216 19.152 16.176C18.496 17.12 17.456 17.592 16.032 17.592C15.152 17.592 14.408 17.376 13.8 16.944C13.208 16.512 12.76 15.896 12.456 15.096C12.152 14.28 12 13.312 12 12.192C12 10.496 12.32 9.184 12.96 8.256C13.6 7.312 14.624 6.84 16.032 6.84ZM16.056 9.288C15.672 9.288 15.392 9.528 15.216 10.008C15.04 10.488 14.952 11.224 14.952 12.216C14.952 13.192 15.04 13.928 15.216 14.424C15.392 14.92 15.672 15.168 16.056 15.168C16.44 15.168 16.72 14.928 16.896 14.448C17.088 13.952 17.184 13.208 17.184 12.216C17.184 11.224 17.088 10.488 16.896 10.008C16.72 9.528 16.44 9.288 16.056 9.288Z" fill="url(#paint0_linear_1214_17767)" fill-opacity="0.99"/>
<defs>
<linearGradient id="paint0_linear_1214_17767" x1="0" y1="0" x2="17.4328" y2="19.9537" gradientUnits="userSpaceOnUse">
<stop stop-color="#458AFE"/>
<stop offset="1" stop-color="#16CB9C"/>
</linearGradient>
</defs>
</svg>
