<svg width="15" height="24" viewBox="0 0 15 24" fill="none" xmlns="http://www.w3.org/2000/svg">
<path d="M15 3C15 1.35938 13.6875 0 12 0H3C1.35938 0 0 1.35938 0 3V21C0 22.6875 1.35938 24 3 24H12C13.6875 24 15 22.6875 15 21V3ZM12 10.875C12 11.5312 11.5312 12 10.875 12H4.125C3.51562 12 3 11.5312 3 10.875V7.125C3 6.51562 3.51562 6 4.125 6H10.875C11.5312 6 12 6.51562 12 7.125V10.875ZM11.25 16.5C10.6406 16.5 10.125 16.0312 10.125 15.375C10.125 14.7656 10.6406 14.25 11.25 14.25C11.9062 14.25 12.375 14.7656 12.375 15.375C12.375 16.0312 11.9062 16.5 11.25 16.5ZM11.25 18C11.9062 18 12.375 18.5156 12.375 19.125C12.375 19.7812 11.9062 20.25 11.25 20.25C10.6406 20.25 10.125 19.7812 10.125 19.125C10.125 18.5156 10.6406 18 11.25 18ZM7.5 16.5C6.89062 16.5 6.375 16.0312 6.375 15.375C6.375 14.7656 6.89062 14.25 7.5 14.25C8.15625 14.25 8.625 14.7656 8.625 15.375C8.625 16.0312 8.15625 16.5 7.5 16.5ZM7.5 18C8.15625 18 8.625 18.5156 8.625 19.125C8.625 19.7812 8.15625 20.25 7.5 20.25C6.89062 20.25 6.375 19.7812 6.375 19.125C6.375 18.5156 6.89062 18 7.5 18ZM3.75 16.5C3.14062 16.5 2.625 16.0312 2.625 15.375C2.625 14.7656 3.14062 14.25 3.75 14.25C4.40625 14.25 4.875 14.7656 4.875 15.375C4.875 16.0312 4.40625 16.5 3.75 16.5ZM3.75 18C4.40625 18 4.875 18.5156 4.875 19.125C4.875 19.7812 4.40625 20.25 3.75 20.25C3.14062 20.25 2.625 19.7812 2.625 19.125C2.625 18.5156 3.14062 18 3.75 18ZM9 2.25C9.42188 2.25 9.75 2.625 9.75 3C9.75 3.42188 9.42188 3.75 9 3.75H6C5.625 3.75 5.25 3.42188 5.25 3C5.25 2.625 5.625 2.25 6 2.25H9Z" fill="url(#paint0_linear_1220_17770)" fill-opacity="0.99"/>
<defs>
<linearGradient id="paint0_linear_1220_17770" x1="15" y1="0" x2="-6.57303" y2="13.4831" gradientUnits="userSpaceOnUse">
<stop stop-color="#458AFE"/>
<stop offset="1" stop-color="#16CB9C"/>
</linearGradient>
</defs>
</svg>
