<svg width="45" height="40" viewBox="0 0 45 40" fill="none" xmlns="http://www.w3.org/2000/svg">
<path d="M31.25 7.5L31.1719 7.57812C30.7812 7.57812 30.3906 7.5 30 7.5H20C18.6719 7.5 17.4219 7.73438 16.25 7.96875C16.25 7.8125 16.25 7.73438 16.25 7.5C16.25 3.35938 19.5312 0 23.75 0C27.8906 0 31.25 3.35938 31.25 7.5ZM30 10C30.2344 10 30.4688 10.0781 30.7812 10.0781C31.0938 10.0781 31.4062 10.0781 31.7969 10.1562C33.125 8.59375 35.1562 7.5 37.5 7.5H40L38.5156 13.4375C39.7656 14.5312 40.7031 15.9375 41.4062 17.5H42.5C43.8281 17.5 45 18.6719 45 20V27.5C45 28.9062 43.8281 30 42.5 30H40C39.2188 31.0156 38.4375 31.7969 37.5 32.5V37.5C37.5 38.9062 36.3281 40 35 40H32.5C31.0938 40 30 38.9062 30 37.5V35H20V37.5C20 38.9062 18.8281 40 17.5 40H15C13.5938 40 12.5 38.9062 12.5 37.5V32.5C9.76562 30.4688 7.89062 27.3438 7.5 23.75H5.3125C2.34375 23.75 0 21.4062 0 18.4375C0 15.5469 2.34375 13.125 5.3125 13.125H5.625C6.64062 13.125 7.5 13.9844 7.5 15C7.5 16.0938 6.64062 16.875 5.625 16.875H5.3125C4.375 16.875 3.75 17.5781 3.75 18.4375C3.75 19.2969 4.375 20 5.3125 20H7.73438C8.67188 15.3906 12.1875 11.6406 16.7969 10.4688C17.8125 10.1562 18.8281 10 20 10H30ZM33.125 18.75C32.0312 18.75 31.25 19.6094 31.25 20.625C31.25 21.7188 32.0312 22.5 33.125 22.5C34.1406 22.5 35 21.7188 35 20.625C35 19.6094 34.1406 18.75 33.125 18.75Z" fill="url(#paint0_linear_1214_17774)" fill-opacity="0.99"/>
<defs>
<linearGradient id="paint0_linear_1214_17774" x1="0" y1="0" x2="39.7241" y2="44.6897" gradientUnits="userSpaceOnUse">
<stop stop-color="#458AFE"/>
<stop offset="1" stop-color="#16CB9C"/>
</linearGradient>
</defs>
</svg>
