<svg width="41" height="41" viewBox="0 0 41 41" fill="none" xmlns="http://www.w3.org/2000/svg">
<path d="M23.8672 36.1719L14.7266 27.0312L16.9141 24.9219C17.0703 25 17.3047 25.0781 17.5391 25.0781C18.8672 25.0781 20.0391 23.9062 20.0391 22.5781C20.0391 21.1719 18.8672 20.0781 17.5391 20.0781C16.1328 20.0781 15.0391 21.1719 15.0391 22.5781C15.0391 22.7344 15.0391 22.9688 15.1172 23.125L13.0078 25.3125L3.86719 16.1719C3.32031 15.625 2.30469 15.7031 1.91406 16.4062C-1.36719 22.5 -0.429688 30.2344 4.72656 35.3125C9.80469 40.4688 17.5391 41.4062 23.6328 38.125C24.3359 37.7344 24.4141 36.7188 23.8672 36.1719ZM39.9609 23.75C39.3359 10.9375 29.1016 0.703125 16.3672 0.078125C16.2891 0.078125 16.2891 0 16.2891 0C15.5859 0 15.0391 0.625 15.0391 1.32812V3.75C15.0391 4.45312 15.5078 5 16.2109 5C26.2891 5.54688 34.4141 13.75 34.9609 23.9062C35.0391 24.5312 35.5859 25.0781 36.2109 25.0781H38.7109C39.4141 25.0781 40.0391 24.4531 40.0391 23.75H39.9609ZM32.4609 23.6719C31.8359 15.0781 24.9609 8.20312 16.3672 7.57812C16.2891 7.57812 16.2891 7.5 16.2891 7.5C15.5859 7.5 15.0391 8.125 15.0391 8.82812V11.3281C15.0391 11.9531 15.5078 12.5 16.1328 12.5781C22.1484 13.0469 26.9141 17.8906 27.4609 23.9062C27.5391 24.5312 28.0859 25.0781 28.7109 25.0781H31.2109C31.9141 25.0781 32.5391 24.4531 32.5391 23.75C32.5391 23.75 32.4609 23.75 32.4609 23.6719Z" fill="url(#paint0_linear_1214_17773)" fill-opacity="0.99"/>
<defs>
<linearGradient id="paint0_linear_1214_17773" x1="0" y1="0" x2="40.0391" y2="40.0391" gradientUnits="userSpaceOnUse">
<stop stop-color="#458AFE"/>
<stop offset="1" stop-color="#16CB9C"/>
</linearGradient>
</defs>
</svg>
