<svg width="50" height="40" viewBox="0 0 50 40" fill="none" xmlns="http://www.w3.org/2000/svg">
<path d="M50 20.625V19.375C50 18.75 49.375 18.125 48.75 18.125H26.875V15H32.5C33.8281 15 35 13.9062 35 12.5V2.5C35 1.17188 33.8281 0 32.5 0H17.5C16.0938 0 15 1.17188 15 2.5V12.5C15 13.9062 16.0938 15 17.5 15H23.125V18.125H1.25C0.546875 18.125 0 18.75 0 19.375V20.625C0 21.3281 0.546875 21.875 1.25 21.875H9.375V25H5C3.59375 25 2.5 26.1719 2.5 27.5V37.5C2.5 38.9062 3.59375 40 5 40H17.5C18.8281 40 20 38.9062 20 37.5V27.5C20 26.1719 18.8281 25 17.5 25H13.125V21.875H36.875V25H32.5C31.0938 25 30 26.1719 30 27.5V37.5C30 38.9062 31.0938 40 32.5 40H45C46.3281 40 47.5 38.9062 47.5 37.5V27.5C47.5 26.1719 46.3281 25 45 25H40.625V21.875H48.75C49.375 21.875 50 21.3281 50 20.625ZM20 10V5H30V10H20ZM15 35H7.5V30H15V35ZM42.5 35H35V30H42.5V35Z" fill="url(#paint0_linear_1017_15159)" fill-opacity="0.99"/>
<defs>
<linearGradient id="paint0_linear_1017_15159" x1="0" y1="-3" x2="45.8406" y2="46.8267" gradientUnits="userSpaceOnUse">
<stop stop-color="#458AFE"/>
<stop offset="1" stop-color="#16CB9C"/>
</linearGradient>
</defs>
</svg>
