<svg width="24" height="24" viewBox="0 0 24 24" fill="none" xmlns="http://www.w3.org/2000/svg">
<path d="M11.625 0.0175781C5.20312 0.0175781 0 5.26758 0 11.6426C0 18.0645 5.20312 23.2676 11.625 23.2676C18 23.2676 23.25 18.0645 23.25 11.6426C23.25 5.26758 18 0.0175781 11.625 0.0175781ZM16.9688 7.93945C16.8281 9.76758 16.0781 14.2676 15.6562 16.2832C15.5156 17.1738 15.1875 17.4551 14.8594 17.502C14.2031 17.5488 13.6875 17.0332 13.0312 16.6113C12 15.9551 11.4375 15.5332 10.4531 14.877C9.28125 14.127 10.0312 13.7051 10.6875 13.0488C10.875 12.8613 13.8281 10.1426 13.875 9.9082C13.9219 9.86133 13.9219 9.76758 13.8281 9.67383C13.7812 9.62695 13.6875 9.67383 13.5938 9.67383C13.5 9.67383 11.8594 10.752 8.71875 12.9082C8.25 13.2363 7.82812 13.377 7.45312 13.377C7.03125 13.377 6.23438 13.1426 5.625 12.9551C4.92188 12.7207 4.3125 12.5801 4.35938 12.2051C4.40625 11.9707 4.6875 11.7832 5.25 11.5488C8.625 10.0488 10.875 9.11133 12 8.64258C15.2344 7.2832 15.9375 7.04883 16.3594 7.04883C16.4531 7.04883 16.6875 7.04883 16.8281 7.18945C16.875 7.23633 16.9688 7.37695 16.9688 7.4707C17.0156 7.6582 17.0156 7.79883 16.9688 7.93945Z" fill="white"/>
</svg>
