<svg width="24" height="24" viewBox="0 0 24 24" fill="none" xmlns="http://www.w3.org/2000/svg">
<path d="M12 0.375C5.57812 0.375 0.375 5.625 0.375 12C0.375 18.4219 5.57812 23.625 12 23.625C18.375 23.625 23.625 18.4219 23.625 12C23.625 5.625 18.375 0.375 12 0.375ZM17.3438 8.29688C17.2031 10.125 16.4531 14.625 16.0312 16.6406C15.8906 17.5312 15.5625 17.8125 15.2344 17.8594C14.5781 17.9062 14.0625 17.3906 13.4062 16.9688C12.375 16.3125 11.8125 15.8906 10.8281 15.2344C9.65625 14.4844 10.4062 14.0625 11.0625 13.4062C11.25 13.2188 14.2031 10.5 14.25 10.2656C14.2969 10.2188 14.2969 10.125 14.2031 10.0312C14.1562 9.98438 14.0625 10.0312 13.9688 10.0312C13.875 10.0312 12.2344 11.1094 9.09375 13.2656C8.625 13.5938 8.20312 13.7344 7.82812 13.7344C7.40625 13.7344 6.60938 13.5 6 13.3125C5.29688 13.0781 4.6875 12.9375 4.73438 12.5625C4.78125 12.3281 5.0625 12.1406 5.625 11.9062C9 10.4062 11.25 9.46875 12.375 9C15.6094 7.64062 16.3125 7.40625 16.7344 7.40625C16.8281 7.40625 17.0625 7.40625 17.2031 7.54688C17.25 7.59375 17.3438 7.73438 17.3438 7.82812C17.3906 8.01562 17.3906 8.15625 17.3438 8.29688Z" fill="white"/>
</svg>
