<svg width="27" height="27" viewBox="0 0 27 27" fill="none" xmlns="http://www.w3.org/2000/svg">
<path d="M0.124999 23.4375C0.124999 24.9609 1.35547 26.25 2.9375 26.25L23.5625 26.25C25.0859 26.25 26.375 24.9609 26.375 23.4375L26.375 2.8125C26.375 1.23047 25.0859 -5.63467e-08 23.5625 -1.22938e-07L2.9375 -1.02449e-06C1.35547 -1.09364e-06 0.125 1.23047 0.125 2.8125L0.124999 23.4375ZM20.9258 15.1758C21.3945 15.6445 21.043 16.4062 20.457 16.3477L5.98437 16.3477C5.39844 16.3477 5.04687 15.6445 5.51562 15.1758L12.7227 7.96875C13.0156 7.67578 13.4258 7.67578 13.7187 7.96875L20.9258 15.1758Z" fill="url(#paint0_linear_1623_18989)"/>
<defs>
<linearGradient id="paint0_linear_1623_18989" x1="26.375" y1="0" x2="-2.40512" y2="26.25" gradientUnits="userSpaceOnUse">
<stop stop-color="#0F9CE2"/>
<stop offset="1" stop-color="#652E92"/>
</linearGradient>
</defs>
</svg>
