<svg width="50" height="36" viewBox="0 0 50 36" fill="none" xmlns="http://www.w3.org/2000/svg">
<path d="M15 18C19.7656 18 23.75 14.0938 23.75 9.25C23.75 4.48438 19.7656 0.5 15 0.5C10.1562 0.5 6.25 4.48438 6.25 9.25C6.25 14.0938 10.1562 18 15 18ZM20.9375 20.5H20.3125C18.6719 21.2812 16.875 21.75 15 21.75C13.0469 21.75 11.25 21.2812 9.60938 20.5H8.98438C3.98438 20.5 0 24.5625 0 29.5625V31.75C0 33.8594 1.64062 35.5 3.75 35.5H26.25C28.2812 35.5 30 33.8594 30 31.75V29.5625C30 24.5625 25.9375 20.5 20.9375 20.5ZM37.5 18C41.6406 18 45 14.6406 45 10.5C45 6.35938 41.6406 3 37.5 3C33.3594 3 30 6.35938 30 10.5C30 14.6406 33.3594 18 37.5 18ZM41.25 20.5H40.9375C39.8438 20.8906 38.6719 21.125 37.5 21.125C36.25 21.125 35.0781 20.8906 33.9844 20.5H33.75C32.1094 20.5 30.625 20.9688 29.375 21.75C31.25 23.7812 32.5 26.5156 32.5 29.5625V32.5312C32.5 32.6875 32.4219 32.8438 32.4219 33H46.25C48.2812 33 50 31.3594 50 29.25C50 24.4844 46.0156 20.5 41.25 20.5Z" fill="url(#paint0_linear_1214_17771)" fill-opacity="0.99"/>
<defs>
<linearGradient id="paint0_linear_1214_17771" x1="0" y1="0.5" x2="32.8859" y2="47.4799" gradientUnits="userSpaceOnUse">
<stop stop-color="#458AFE"/>
<stop offset="1" stop-color="#16CB9C"/>
</linearGradient>
</defs>
</svg>
