<svg width="113" height="75" viewBox="0 0 113 75" fill="none" xmlns="http://www.w3.org/2000/svg">
<path d="M111.969 34.7656C101.422 14.0625 80.3281 0 56.5 0C32.4766 0 11.3828 14.0625 0.835938 34.7656C0.445312 35.5469 0.25 36.5234 0.25 37.5C0.25 38.6719 0.445312 39.6484 0.835938 40.4297C11.3828 61.1328 32.4766 75 56.5 75C80.3281 75 101.422 61.1328 111.969 40.4297C112.359 39.6484 112.555 38.6719 112.555 37.6953C112.555 36.5234 112.359 35.5469 111.969 34.7656ZM56.5 65.625C40.875 65.625 28.375 53.125 28.375 37.5C28.375 22.0703 40.875 9.375 56.5 9.375C71.9297 9.375 84.625 22.0703 84.625 37.5V37.6953C84.625 53.125 71.9297 65.8203 56.5 65.8203V65.625ZM56.5 18.75C54.7422 18.9453 52.9844 19.1406 51.4219 19.5312C52.5938 21.0938 53.1797 23.0469 53.1797 25.1953C53.1797 30.2734 49.0781 34.375 44 34.375C41.8516 34.375 39.8984 33.7891 38.3359 32.6172C37.9453 34.1797 37.75 35.9375 37.75 37.5C37.75 47.8516 46.1484 56.25 56.5 56.25C66.8516 56.25 75.25 47.8516 75.25 37.5C75.25 27.1484 66.8516 18.9453 56.5 18.9453V18.75Z" fill="url(#paint0_linear_1208_17770)" fill-opacity="0.99"/>
<defs>
<linearGradient id="paint0_linear_1208_17770" x1="0.25" y1="0" x2="69.527" y2="103.735" gradientUnits="userSpaceOnUse">
<stop stop-color="#458AFE"/>
<stop offset="1" stop-color="#16CB9C"/>
</linearGradient>
</defs>
</svg>
