<svg width="100" height="89" viewBox="0 0 100 89" fill="none" xmlns="http://www.w3.org/2000/svg">
<path d="M90.0391 19.5H15.625C13.8672 19.5 12.5 18.1328 12.5 16.375C12.5 14.8125 13.8672 13.25 15.625 13.25H90.625C92.1875 13.25 93.75 11.8828 93.75 10.125C93.75 5.04688 89.4531 0.75 84.375 0.75H12.5C5.46875 0.75 0 6.41406 0 13.25V75.75C0 82.7812 5.46875 88.25 12.5 88.25H90.0391C95.5078 88.25 100 84.1484 100 78.875V28.875C100 23.7969 95.5078 19.5 90.0391 19.5ZM81.25 60.125C77.7344 60.125 75 57.3906 75 53.875C75 50.5547 77.7344 47.625 81.25 47.625C84.5703 47.625 87.5 50.5547 87.5 53.875C87.5 57.3906 84.5703 60.125 81.25 60.125Z" fill="url(#paint0_linear_1208_17768)" fill-opacity="0.99"/>
<defs>
<linearGradient id="paint0_linear_1208_17768" x1="0" y1="0.75" x2="86.7257" y2="99.865" gradientUnits="userSpaceOnUse">
<stop stop-color="#458AFE"/>
<stop offset="1" stop-color="#16CB9C"/>
</linearGradient>
</defs>
</svg>
