<svg width="21" height="22" viewBox="0 0 21 22" fill="none" xmlns="http://www.w3.org/2000/svg">
<path d="M17.8125 3.36133C15.8906 1.39258 13.2656 0.267578 10.4531 0.267578C4.73438 0.267578 0.046875 4.95508 0.046875 10.6738C0.046875 12.5488 0.5625 14.3301 1.45312 15.877L0 21.2676L5.48438 19.8613C7.03125 20.6582 8.71875 21.127 10.4531 21.127C16.2188 21.127 21 16.4395 21 10.7207C21 7.9082 19.7812 5.33008 17.8125 3.36133ZM10.4531 19.3457C8.90625 19.3457 7.40625 18.9238 6.04688 18.127L5.76562 17.9395L2.48438 18.8301L3.375 15.6426L3.14062 15.3145C2.29688 13.9082 1.82812 12.3145 1.82812 10.6738C1.82812 5.93945 5.71875 2.04883 10.5 2.04883C12.7969 2.04883 14.9531 2.93945 16.5938 4.58008C18.2344 6.2207 19.2188 8.37695 19.2188 10.7207C19.2188 15.4551 15.2344 19.3457 10.4531 19.3457ZM15.2344 12.877C14.9531 12.7363 13.6875 12.127 13.4531 12.0332C13.2188 11.9395 13.0312 11.8926 12.8438 12.1738C12.7031 12.4082 12.1875 13.0176 12.0469 13.2051C11.8594 13.3457 11.7188 13.3926 11.4844 13.252C9.9375 12.502 8.95312 11.8926 7.92188 10.1582C7.64062 9.68945 8.20312 9.73633 8.67188 8.75195C8.76562 8.56445 8.71875 8.42383 8.67188 8.2832C8.625 8.14258 8.0625 6.87695 7.875 6.36133C7.64062 5.8457 7.45312 5.89258 7.26562 5.89258C7.125 5.89258 6.9375 5.89258 6.79688 5.89258C6.60938 5.89258 6.32812 5.93945 6.09375 6.2207C5.85938 6.50195 5.20312 7.11133 5.20312 8.37695C5.20312 9.68945 6.09375 10.9082 6.23438 11.0957C6.375 11.2363 8.0625 13.8613 10.6875 14.9863C12.3281 15.7363 12.9844 15.7832 13.8281 15.6426C14.2969 15.5957 15.3281 15.0332 15.5625 14.4238C15.7969 13.8145 15.7969 13.2988 15.7031 13.2051C15.6562 13.0645 15.4688 13.0176 15.2344 12.877Z" fill="white"/>
</svg>
