<svg width="15" height="15" viewBox="0 0 15 15" fill="none" xmlns="http://www.w3.org/2000/svg">
<path d="M1.59375 9.03125C1.90625 9.34375 2.375 9.3125 2.6875 9.03125L6.25 5.25L6.25 14.25C6.25 14.6562 6.59375 15 7 15L8 15C8.4375 15 8.75 14.6562 8.75 14.25L8.75 5.25L12.3438 9.03125C12.6563 9.3125 13.125 9.34375 13.4375 9.03125L14.125 8.34375C14.4063 8.0625 14.4063 7.5625 14.125 7.28125L8.03125 1.21875C7.75 0.906249 7.28125 0.906249 6.96875 1.21875L0.906251 7.28125C0.625001 7.5625 0.625001 8.03125 0.906251 8.34375L1.59375 9.03125Z" fill="#16CB9C"/>
</svg>
