<svg width="60" height="60" viewBox="0 0 60 60" fill="none" xmlns="http://www.w3.org/2000/svg">
<path d="M30 0C46.5425 0 60 13.4575 60 30C60 46.5425 46.5425 60 30 60C13.4575 60 0 46.5425 0 30C0 13.4575 13.4575 0 30 0ZM20.7325 31.7675L33.2325 44.2675C33.72 44.755 34.36 45 35 45C35.64 45 36.2801 44.755 36.7676 44.2675C37.745 43.29 37.745 41.71 36.7676 40.7325L26.035 30L36.7675 19.2675C37.7449 18.29 37.7449 16.71 36.7675 15.7325C35.79 14.7551 34.21 14.7551 33.2325 15.7325L20.7325 28.2326C19.755 29.21 19.755 30.79 20.7325 31.7675Z" fill="#468AFF"/>
</svg>
