<svg width="24" height="24" viewBox="0 0 24 24" fill="none" xmlns="http://www.w3.org/2000/svg">
<path d="M12.1348 0.375C5.71289 0.375 0.509766 5.57812 0.509766 12C0.509766 18.4219 5.71289 23.625 12.1348 23.625C18.5566 23.625 23.7598 18.4219 23.7598 12C23.7598 5.57812 18.5566 0.375 12.1348 0.375ZM17.8066 15.0938C18.041 15.2812 18.041 15.6562 17.8066 15.8906L15.9785 17.7188C15.7441 17.9531 15.3691 17.9531 15.1816 17.7188L12.1348 14.625L9.04102 17.7188C8.85352 17.9531 8.47852 17.9531 8.24414 17.7188L6.41602 15.8438C6.18164 15.6562 6.18164 15.2812 6.41602 15.0469L9.50977 12L6.41602 8.95312C6.18164 8.76562 6.18164 8.39062 6.41602 8.15625L8.29102 6.32812C8.47852 6.09375 8.85352 6.09375 9.08789 6.32812L12.1348 9.375L15.1816 6.32812C15.3691 6.09375 15.7441 6.09375 15.9785 6.32812L17.8066 8.15625C18.041 8.39062 18.041 8.76562 17.8066 8.95312L14.7598 12L17.8066 15.0938Z" fill="white"/>
</svg>
