<svg width="250" height="250" viewBox="0 0 250 250" fill="none" xmlns="http://www.w3.org/2000/svg">
<g clip-path="url(#clip0_987_14396)">
<path fill-rule="evenodd" clip-rule="evenodd" d="M250 5.49007L247.845 33.2573C247.674 35.5961 246.155 37.6205 243.957 38.4376C241.759 39.2547 239.286 38.7143 237.629 37.0547L231.379 30.8004L189.819 72.4168C183.079 79.1419 172.167 79.1419 165.427 72.4168L146.19 53.1711C144.506 51.4884 141.778 51.4884 140.095 53.1711L76.8577 116.434C73.6238 119.672 69.2355 121.491 64.6595 121.491C60.0835 121.491 55.6951 119.672 52.4612 116.434L41.8448 105.813C40.1621 104.134 37.437 104.134 35.7543 105.813L14.7069 126.826C11.3339 130.143 5.92465 130.143 2.55171 126.826C0.920255 125.224 0.0012207 123.033 0.0012207 120.747C0.0012207 118.46 0.920255 116.269 2.55171 114.667L26.6034 90.5634C29.8372 87.3271 34.2246 85.5088 38.7996 85.5088C43.3745 85.5088 47.7619 87.3271 50.9957 90.5634L64.6552 104.231L130.948 37.934C134.182 34.6978 138.569 32.8795 143.144 32.8795C147.719 32.8795 152.107 34.6978 155.341 37.934L174.569 57.1582C175.377 57.9676 176.475 58.4223 177.619 58.4223C178.763 58.4223 179.86 57.9676 180.668 57.1582L219.211 18.5978L212.961 12.3478C211.308 10.6956 210.771 8.23064 211.588 6.04064C212.404 3.85065 214.423 2.33839 216.754 2.17111L244.556 0.00300151C246.035 -0.0931606 247.483 0.455551 248.527 1.5076C249.571 2.55964 250.108 4.01201 250 5.49007Z" fill="url(#paint0_linear_987_14396)" fill-opacity="0.99"/>
<path d="M64.6554 232.758H12.9312C8.17016 232.758 4.31055 236.617 4.31055 241.379C4.31055 246.14 8.17016 249.999 12.9312 249.999H64.6554C69.4165 249.999 73.2761 246.14 73.2761 241.379C73.2761 236.617 69.4165 232.758 64.6554 232.758Z" fill="url(#paint1_linear_987_14396)" fill-opacity="0.99"/>
<path d="M150.862 232.758H99.1378C94.3767 232.758 90.5171 236.617 90.5171 241.379C90.5171 246.14 94.3767 249.999 99.1378 249.999H150.862C155.623 249.999 159.483 246.14 159.483 241.379C159.483 236.617 155.623 232.758 150.862 232.758Z" fill="url(#paint2_linear_987_14396)" fill-opacity="0.99"/>
<path d="M150.862 215.523H99.1378C94.3767 215.523 90.5171 219.383 90.5171 224.144C90.5171 228.905 94.3767 232.765 99.1378 232.765H150.862C155.623 232.765 159.483 228.905 159.483 224.144C159.483 219.383 155.623 215.523 150.862 215.523Z" fill="url(#paint3_linear_987_14396)"/>
<path d="M150.862 198.281H99.1378C94.3767 198.281 90.5171 202.141 90.5171 206.902C90.5171 211.663 94.3767 215.523 99.1378 215.523H150.862C155.623 215.523 159.483 211.663 159.483 206.902C159.483 202.141 155.623 198.281 150.862 198.281Z" fill="url(#paint4_linear_987_14396)" fill-opacity="0.99"/>
<path d="M237.069 232.758H185.345C180.584 232.758 176.724 236.617 176.724 241.379C176.724 246.14 180.584 249.999 185.345 249.999H237.069C241.83 249.999 245.69 246.14 245.69 241.379C245.69 236.617 241.83 232.758 237.069 232.758Z" fill="url(#paint5_linear_987_14396)" fill-opacity="0.99"/>
<path d="M125 198.282C146.425 198.282 163.793 180.913 163.793 159.488C163.793 138.064 146.425 120.695 125 120.695C103.575 120.695 86.207 138.064 86.207 159.488C86.207 180.913 103.575 198.282 125 198.282Z" fill="url(#paint6_linear_987_14396)"/>
<path d="M237.069 215.523H185.345C180.584 215.523 176.724 219.383 176.724 224.144C176.724 228.905 180.584 232.765 185.345 232.765H237.069C241.83 232.765 245.69 228.905 245.69 224.144C245.69 219.383 241.83 215.523 237.069 215.523Z" fill="url(#paint7_linear_987_14396)"/>
<path d="M237.069 198.281H185.345C180.584 198.281 176.724 202.141 176.724 206.902C176.724 211.663 180.584 215.523 185.345 215.523H237.069C241.83 215.523 245.69 211.663 245.69 206.902C245.69 202.141 241.83 198.281 237.069 198.281Z" fill="url(#paint8_linear_987_14396)" fill-opacity="0.99"/>
<path d="M237.069 181.039H185.345C180.584 181.039 176.724 184.899 176.724 189.66C176.724 194.421 180.584 198.28 185.345 198.28H237.069C241.83 198.28 245.69 194.421 245.69 189.66C245.69 184.899 241.83 181.039 237.069 181.039Z" fill="url(#paint9_linear_987_14396)"/>
<path d="M237.069 163.797H185.345C180.584 163.797 176.724 167.656 176.724 172.418C176.724 177.179 180.584 181.038 185.345 181.038H237.069C241.83 181.038 245.69 177.179 245.69 172.418C245.69 167.656 241.83 163.797 237.069 163.797Z" fill="url(#paint10_linear_987_14396)" fill-opacity="0.99"/>
<path d="M211.156 163.797C232.581 163.797 249.949 146.429 249.949 125.004C249.949 103.579 232.581 86.2109 211.156 86.2109C189.732 86.2109 172.363 103.579 172.363 125.004C172.363 146.429 189.732 163.797 211.156 163.797Z" fill="url(#paint11_linear_987_14396)"/>
<path d="M38.7931 232.758C60.2179 232.758 77.5862 215.39 77.5862 193.965C77.5862 172.54 60.2179 155.172 38.7931 155.172C17.3683 155.172 0 172.54 0 193.965C0 215.39 17.3683 232.758 38.7931 232.758Z" fill="url(#paint12_linear_987_14396)"/>
<path fill-rule="evenodd" clip-rule="evenodd" d="M121.926 136.873C121.926 135.174 123.303 133.797 125.002 133.797C126.701 133.797 128.078 135.174 128.078 136.873V143.285C130.263 143.386 132.404 143.877 134.504 144.696C134.715 144.777 134.92 144.873 135.117 144.989C135.908 145.452 136.112 146.045 135.764 146.883C135.396 147.775 135.029 148.661 134.627 149.533C134.279 150.29 133.809 150.528 132.998 150.344C132.513 150.234 132.032 150.107 131.551 149.98C130.931 149.817 130.312 149.653 129.687 149.527C127.343 149.043 125.019 149.022 122.744 149.922C120.788 150.698 119.596 152.191 118.778 154.051C118.764 154.064 118.764 154.092 118.764 154.119H125.578C126.137 154.119 126.586 154.569 126.586 155.127V157.369C126.586 157.928 126.137 158.377 125.578 158.377H117.783C117.779 158.775 117.78 159.173 117.782 159.579L117.782 159.58C117.782 159.785 117.783 159.993 117.783 160.204H125.578C126.137 160.204 126.586 160.653 126.586 161.212V163.454C126.586 164.012 126.137 164.462 125.578 164.462H118.465C119.323 166.915 120.72 168.816 123.343 169.64C125.435 170.301 127.561 170.261 129.68 169.818C130.302 169.69 130.918 169.527 131.535 169.364L131.536 169.364L131.536 169.364C132.006 169.24 132.476 169.116 132.95 169.007C133.816 168.809 134.279 169.041 134.64 169.831C135.049 170.717 135.424 171.616 135.792 172.516C136.126 173.327 135.908 173.981 135.063 174.369C134.19 174.771 133.277 175.098 132.358 175.35C130.93 175.744 129.503 175.984 128.078 176.055V182.479C128.078 184.177 126.701 185.555 125.002 185.555C123.303 185.555 121.926 184.177 121.926 182.479V175.269C121.876 175.253 121.826 175.237 121.776 175.221C117.531 173.845 114.71 170.956 113.027 166.895C112.793 166.32 112.616 165.721 112.44 165.12L112.44 165.12C112.376 164.9 112.311 164.681 112.244 164.462H108.919C108.36 164.462 107.91 164.012 107.91 163.454V161.212C107.91 160.653 108.36 160.204 108.919 160.204H111.678V158.377H108.919C108.36 158.377 107.91 157.928 107.91 157.369V155.127C107.91 154.569 108.36 154.119 108.919 154.119H112.421L112.537 153.771C113.477 150.767 115.099 148.212 117.599 146.276C118.917 145.253 120.374 144.536 121.926 144.055V136.873Z" fill="url(#paint13_linear_987_14396)" fill-opacity="0.99"/>
<path fill-rule="evenodd" clip-rule="evenodd" d="M208.351 102.201C208.351 100.502 209.729 99.125 211.427 99.125C213.126 99.125 214.504 100.502 214.504 102.201V108.613C216.689 108.715 218.83 109.205 220.93 110.024C221.141 110.106 221.345 110.201 221.543 110.317C222.333 110.78 222.538 111.373 222.19 112.211C221.822 113.104 221.454 113.989 221.052 114.861C220.705 115.618 220.235 115.856 219.424 115.672C218.939 115.562 218.458 115.435 217.977 115.308C217.357 115.145 216.738 114.981 216.112 114.855C213.768 114.371 211.445 114.35 209.169 115.25C207.214 116.027 206.021 117.519 205.204 119.379C205.19 119.393 205.19 119.42 205.19 119.447H212.004C212.562 119.447 213.012 119.897 213.012 120.456V122.697C213.012 123.256 212.562 123.706 212.004 123.706H204.209C204.204 124.103 204.206 124.501 204.207 124.907L204.207 124.908C204.208 125.113 204.209 125.321 204.209 125.532H212.004C212.562 125.532 213.012 125.981 213.012 126.54V128.782C213.012 129.341 212.562 129.79 212.004 129.79H204.89C205.749 132.243 207.146 134.144 209.769 134.969C211.861 135.63 213.986 135.589 216.106 135.146C216.728 135.018 217.344 134.855 217.961 134.692L217.961 134.692L217.961 134.692C218.431 134.568 218.902 134.444 219.376 134.335C220.241 134.137 220.705 134.369 221.066 135.159C221.475 136.045 221.849 136.945 222.217 137.844C222.551 138.655 222.333 139.309 221.488 139.697C220.616 140.099 219.703 140.426 218.783 140.678C217.356 141.072 215.929 141.312 214.504 141.383V147.807C214.504 149.506 213.126 150.883 211.427 150.883C209.729 150.883 208.351 149.506 208.351 147.807V140.597C208.301 140.581 208.252 140.565 208.202 140.549C203.957 139.173 201.136 136.284 199.453 132.223C199.218 131.649 199.042 131.049 198.866 130.448L198.866 130.448C198.801 130.228 198.737 130.009 198.669 129.79H195.344C194.786 129.79 194.336 129.341 194.336 128.782V126.54C194.336 125.981 194.786 125.532 195.344 125.532H198.104V123.706H195.344C194.786 123.706 194.336 123.256 194.336 122.697V120.456C194.336 119.897 194.786 119.447 195.344 119.447H198.847L198.962 119.1C199.903 116.095 201.524 113.54 204.025 111.605C205.343 110.581 206.8 109.864 208.351 109.383V102.201Z" fill="url(#paint14_linear_987_14396)" fill-opacity="0.99"/>
<path fill-rule="evenodd" clip-rule="evenodd" d="M35.4998 171.045C35.4998 169.346 36.8771 167.969 38.576 167.969C40.2749 167.969 41.6522 169.346 41.6522 171.045V177.457C43.8371 177.558 45.9785 178.049 48.0781 178.868C48.2893 178.949 48.4937 179.045 48.6913 179.161C49.4817 179.624 49.6861 180.217 49.3386 181.055C48.9707 181.947 48.6028 182.833 48.2008 183.705C47.8533 184.462 47.3831 184.7 46.5723 184.516C46.0873 184.406 45.6062 184.279 45.1256 184.152C44.5056 183.989 43.8865 183.825 43.2608 183.698C40.9169 183.215 38.5935 183.194 36.3177 184.094C34.3622 184.87 33.1698 186.363 32.3522 188.223C32.3385 188.236 32.3385 188.264 32.3385 188.291H39.1522C39.7109 188.291 40.1606 188.741 40.1606 189.299V191.541C40.1606 192.1 39.7109 192.549 39.1522 192.549H31.3574C31.3529 192.947 31.3543 193.345 31.3558 193.751L31.3558 193.751C31.3566 193.957 31.3574 194.165 31.3574 194.375H39.1522C39.7109 194.375 40.1606 194.825 40.1606 195.384V197.626C40.1606 198.184 39.7109 198.634 39.1522 198.634H32.0387C32.8973 201.087 34.2941 202.988 36.9173 203.812C39.0091 204.473 41.135 204.432 43.254 203.99C43.8767 203.862 44.4927 203.699 45.1096 203.536L45.1097 203.536L45.1098 203.536C45.5798 203.412 46.0503 203.288 46.5246 203.179C47.3899 202.981 47.8533 203.213 48.2144 204.003C48.6232 204.889 48.998 205.788 49.3659 206.688C49.6998 207.499 49.4817 208.153 48.6368 208.541C47.7647 208.943 46.8517 209.27 45.9318 209.522C44.5047 209.915 43.0775 210.156 41.6522 210.227V216.65C41.6522 218.349 40.2749 219.727 38.576 219.727C36.8771 219.727 35.4998 218.349 35.4998 216.65V209.441C35.4499 209.425 35.4001 209.409 35.3502 209.393C31.1053 208.016 28.2844 205.127 26.6014 201.066C26.3668 200.492 26.1907 199.893 26.0141 199.291L26.0141 199.291C25.9497 199.072 25.8853 198.853 25.8179 198.634H22.4928C21.9341 198.634 21.4844 198.184 21.4844 197.626V195.384C21.4844 194.825 21.9341 194.375 22.4928 194.375H25.2523V192.549H22.4928C21.9341 192.549 21.4844 192.1 21.4844 191.541V189.299C21.4844 188.741 21.9341 188.291 22.4928 188.291H25.995L26.1109 187.943C27.0511 184.939 28.6728 182.383 31.1734 180.448C32.4917 179.424 33.9485 178.708 35.4998 178.226V171.045Z" fill="url(#paint15_linear_987_14396)" fill-opacity="0.99"/>
</g>
<defs>
<linearGradient id="paint0_linear_987_14396" x1="0.0012207" y1="-0.0078125" x2="105.547" y2="204.041" gradientUnits="userSpaceOnUse">
<stop stop-color="#458AFE"/>
<stop offset="1" stop-color="#16CB9C"/>
</linearGradient>
<linearGradient id="paint1_linear_987_14396" x1="4.31055" y1="232.758" x2="12.4241" y2="265.212" gradientUnits="userSpaceOnUse">
<stop stop-color="#458AFE"/>
<stop offset="1" stop-color="#16CB9C"/>
</linearGradient>
<linearGradient id="paint2_linear_987_14396" x1="90.5171" y1="232.758" x2="98.6307" y2="265.212" gradientUnits="userSpaceOnUse">
<stop stop-color="#458AFE"/>
<stop offset="1" stop-color="#16CB9C"/>
</linearGradient>
<linearGradient id="paint3_linear_987_14396" x1="90.5171" y1="215.523" x2="98.023" y2="248.441" gradientUnits="userSpaceOnUse">
<stop stop-color="#0F9CE2"/>
<stop offset="1" stop-color="#652E92"/>
</linearGradient>
<linearGradient id="paint4_linear_987_14396" x1="90.5171" y1="198.281" x2="98.6307" y2="230.736" gradientUnits="userSpaceOnUse">
<stop stop-color="#458AFE"/>
<stop offset="1" stop-color="#16CB9C"/>
</linearGradient>
<linearGradient id="paint5_linear_987_14396" x1="176.724" y1="232.758" x2="184.838" y2="265.212" gradientUnits="userSpaceOnUse">
<stop stop-color="#458AFE"/>
<stop offset="1" stop-color="#16CB9C"/>
</linearGradient>
<linearGradient id="paint6_linear_987_14396" x1="86.207" y1="120.695" x2="163.793" y2="205.76" gradientUnits="userSpaceOnUse">
<stop stop-color="#0F9CE2"/>
<stop offset="1" stop-color="#652E92"/>
</linearGradient>
<linearGradient id="paint7_linear_987_14396" x1="176.724" y1="215.523" x2="184.23" y2="248.441" gradientUnits="userSpaceOnUse">
<stop stop-color="#0F9CE2"/>
<stop offset="1" stop-color="#652E92"/>
</linearGradient>
<linearGradient id="paint8_linear_987_14396" x1="176.724" y1="198.281" x2="184.838" y2="230.736" gradientUnits="userSpaceOnUse">
<stop stop-color="#458AFE"/>
<stop offset="1" stop-color="#16CB9C"/>
</linearGradient>
<linearGradient id="paint9_linear_987_14396" x1="176.724" y1="181.039" x2="184.23" y2="213.956" gradientUnits="userSpaceOnUse">
<stop stop-color="#0F9CE2"/>
<stop offset="1" stop-color="#652E92"/>
</linearGradient>
<linearGradient id="paint10_linear_987_14396" x1="176.724" y1="163.797" x2="184.838" y2="196.251" gradientUnits="userSpaceOnUse">
<stop stop-color="#458AFE"/>
<stop offset="1" stop-color="#16CB9C"/>
</linearGradient>
<linearGradient id="paint11_linear_987_14396" x1="172.363" y1="86.2109" x2="249.949" y2="171.275" gradientUnits="userSpaceOnUse">
<stop stop-color="#0F9CE2"/>
<stop offset="1" stop-color="#652E92"/>
</linearGradient>
<linearGradient id="paint12_linear_987_14396" x1="0" y1="155.172" x2="77.5862" y2="240.236" gradientUnits="userSpaceOnUse">
<stop stop-color="#0F9CE2"/>
<stop offset="1" stop-color="#652E92"/>
</linearGradient>
<linearGradient id="paint13_linear_987_14396" x1="107.91" y1="133.797" x2="151.258" y2="157.273" gradientUnits="userSpaceOnUse">
<stop stop-color="#458AFE"/>
<stop offset="1" stop-color="#16CB9C"/>
</linearGradient>
<linearGradient id="paint14_linear_987_14396" x1="194.336" y1="99.125" x2="237.684" y2="122.601" gradientUnits="userSpaceOnUse">
<stop stop-color="#458AFE"/>
<stop offset="1" stop-color="#16CB9C"/>
</linearGradient>
<linearGradient id="paint15_linear_987_14396" x1="21.4844" y1="167.969" x2="64.8321" y2="191.445" gradientUnits="userSpaceOnUse">
<stop stop-color="#458AFE"/>
<stop offset="1" stop-color="#16CB9C"/>
</linearGradient>
<clipPath id="clip0_987_14396">
<rect width="250" height="250" fill="white"/>
</clipPath>
</defs>
</svg>
