<svg width="16" height="22" viewBox="0 0 16 22" fill="none" xmlns="http://www.w3.org/2000/svg">
<path d="M14.5469 18.4062C14.5 18.125 14.1719 17.8906 13.8906 17.9844C13.375 18.0781 12.5781 18.2188 11.7344 18.2188C9.10938 18.2188 6.95312 16.625 6.0625 14.2344H11.4062C11.6406 14.2344 11.875 14.0469 11.9219 13.7656L12.25 12.4531C12.2969 12.125 12.0625 11.75 11.6875 11.75H5.40625C5.35938 11.0938 5.3125 10.4375 5.40625 9.78125H12.25C12.5312 9.78125 12.7656 9.59375 12.8125 9.35938L13.1406 7.95312C13.1875 7.625 12.9531 7.25 12.5781 7.25H6.10938C7.04688 5.1875 9.01562 3.73438 11.5938 3.73438C12.2969 3.73438 12.9531 3.875 13.375 3.96875C13.6562 4.01562 13.9844 3.82812 14.0312 3.54688L14.5938 1.48438C14.6875 1.15625 14.5 0.828125 14.1719 0.78125C13.6094 0.640625 12.6719 0.5 11.6875 0.5C7.14062 0.5 3.48438 3.35938 2.125 7.25H0.578125C0.25 7.25 0.015625 7.53125 0.015625 7.8125V9.21875C0.015625 9.54688 0.25 9.78125 0.578125 9.78125H1.5625C1.51562 10.4375 1.51562 11.1875 1.5625 11.75H0.578125C0.25 11.75 0.015625 12.0312 0.015625 12.3125V13.6719C0.015625 13.9531 0.25 14.2344 0.578125 14.2344H1.98438C3.15625 18.4531 6.8125 21.5 11.6875 21.5C12.9062 21.5 13.9844 21.3125 14.5469 21.1719C14.8281 21.0781 15.0156 20.7969 14.9688 20.5156L14.5469 18.4062Z" fill="url(#paint0_linear_539_5906)" fill-opacity="0.99"/>
<defs>
<linearGradient id="paint0_linear_539_5906" x1="0.015625" y1="-3" x2="26.2236" y2="15.144" gradientUnits="userSpaceOnUse">
<stop stop-color="#458AFE"/>
<stop offset="1" stop-color="#16CB9C"/>
</linearGradient>
</defs>
</svg>
