<svg width="30" height="30" viewBox="0 0 30 30" fill="none" xmlns="http://www.w3.org/2000/svg">
<mask id="mask0_302_3075" style="mask-type:alpha" maskUnits="userSpaceOnUse" x="0" y="0" width="30" height="30">
<circle cx="15" cy="15" r="15" fill="#C4C4C4"/>
</mask>
<g mask="url(#mask0_302_3075)">
<path d="M18.0997 30.0001C16.034 30.0001 13.9684 30.0001 11.9028 30.0001C11.9028 25.9618 11.9007 21.9235 11.9084 17.8852C11.909 17.6496 11.849 17.5944 11.616 17.5944C2.41623 17.6011 -6.78407 17.6 -15.9844 17.6C-15.9844 15.5334 -15.9844 13.4667 -15.9844 11.4C-6.78407 11.4 2.41623 11.399 11.6165 11.4057C11.849 11.4057 11.909 11.3509 11.909 11.1148C11.9012 7.07655 11.9033 3.03827 11.9033 -1C13.9689 -1 16.0346 -1 18.1002 -1C18.1002 3.03827 18.1023 7.07655 18.0945 11.1148C18.094 11.3504 18.1539 11.4057 18.3869 11.4057C27.5872 11.3995 36.7875 11.4005 45.9879 11.4C45.9879 13.4667 45.9879 15.5334 45.9879 17.6C36.7875 17.6 27.5872 17.6011 18.3869 17.5944C18.1544 17.5944 18.0945 17.6491 18.0945 17.8852C18.1023 21.9235 18.0997 25.9618 18.0997 30.0001Z" fill="#C8222F"/>
<path d="M11.9028 -1C11.9028 3.03828 11.9007 7.07655 11.9084 11.1148C11.909 11.3504 11.849 11.4057 11.616 11.4057C2.41622 11.399 -6.78407 11.4 -15.9844 11.4C-15.9844 10.7113 -15.9844 10.0221 -15.9844 9.33335C-11.4403 9.33335 -6.89619 9.33335 -2.3521 9.33335C-3.24542 8.83839 -4.14649 8.38837 -5.04755 7.93732C-8.69368 6.11245 -12.3388 4.28706 -15.9844 2.46167C-15.9844 2.08296 -15.9844 1.70372 -15.9844 1.325C-15.8836 1.36995 -15.7803 1.41077 -15.6816 1.45986C-10.5206 4.04009 -5.36014 6.62033 -0.201211 9.20419C-0.0188269 9.29564 0.159423 9.33697 0.36299 9.33645C1.69703 9.33077 3.03106 9.33336 4.36458 9.33284C4.43485 9.33284 4.50563 9.3256 4.63221 9.31889C4.50046 9.2512 4.42555 9.21245 4.35011 9.17474C-2.18676 5.90423 -8.72416 2.63372 -15.2605 -0.638333C-15.4879 -0.751999 -15.7286 -0.842933 -15.9327 -1C-13.6258 -1 -11.3194 -1 -9.01246 -1C-8.96286 -0.967967 -8.91533 -0.931283 -8.86263 -0.904933C-2.70292 2.17751 3.45783 5.25943 9.62012 8.33877C9.68264 8.36977 9.74154 8.44004 9.83712 8.39664C9.83712 5.26563 9.83712 2.13256 9.83712 -1C10.5253 -1 11.214 -1 11.9028 -1Z" fill="#FEFEFE"/>
<path d="M18.0994 29.9995C18.0994 25.9612 18.1015 21.9229 18.0938 17.8846C18.0932 17.649 18.1532 17.5938 18.3862 17.5938C27.5865 17.6 36.7868 17.5989 45.9871 17.5994C45.9871 18.2882 45.9871 18.9774 45.9871 19.6661C41.4445 19.6661 36.902 19.6661 32.3595 19.6661C32.4209 19.7415 32.486 19.7787 32.5532 19.8123C34.762 20.917 36.9718 22.0206 39.18 23.1262C41.4497 24.2624 43.7184 25.4006 45.9871 26.5378C45.9871 26.9165 45.9871 27.2957 45.9871 27.6744C45.9168 27.644 45.8455 27.6166 45.7768 27.5825C40.5812 24.9842 35.3856 22.3853 30.191 19.7844C30.0252 19.7012 29.8614 19.6625 29.6749 19.6635C28.3408 19.6692 27.0068 19.6666 25.6728 19.6666C25.5922 19.6666 25.5121 19.6666 25.4315 19.6666C25.5017 19.7467 25.5751 19.7855 25.6495 19.8227C32.3259 23.1629 39.0023 26.5026 45.6781 29.8445C45.767 29.8889 45.8734 29.9085 45.9349 30C43.628 30 41.3216 30 39.0147 30C38.9661 29.9674 38.9201 29.9297 38.8684 29.9039C32.7061 26.8204 26.5439 23.7374 20.38 20.6571C20.318 20.6261 20.2591 20.5558 20.1651 20.5992C20.1651 23.7323 20.1651 26.8659 20.1651 30C19.4769 29.9995 18.7882 29.9995 18.0994 29.9995Z" fill="#FEFEFE"/>
<path d="M45.9871 11.4005C36.7868 11.4005 27.5865 11.3995 18.3862 11.4062C18.1537 11.4062 18.0938 11.3515 18.0938 11.1153C18.1015 7.07707 18.0994 3.03879 18.0994 -0.999483C18.7882 -0.999483 19.4764 -0.999483 20.1651 -0.999483C20.1651 2.13876 20.1651 5.277 20.1651 8.44262C20.2658 8.39664 20.3361 8.36719 20.4038 8.3336C25.7771 5.6459 31.1505 2.95871 36.5223 0.268936C37.3556 -0.148532 38.1839 -0.576332 39.0147 -0.998967C39.7891 -0.998967 40.5641 -0.998967 41.3386 -0.998967C41.258 -0.95195 41.1805 -0.899766 41.0973 -0.858433C34.4137 2.48544 27.7291 5.8288 21.045 9.17215C20.9659 9.21142 20.8884 9.25327 20.8104 9.29409C20.815 9.307 20.8192 9.32044 20.8238 9.33335C20.907 9.33335 20.9902 9.33335 21.0729 9.33335C22.3976 9.33335 23.7228 9.33025 25.0476 9.33697C25.2439 9.338 25.4139 9.29254 25.5865 9.20625C31.7379 6.12743 37.8909 3.05222 44.0418 -0.0286647C44.6758 -0.346415 45.3252 -0.635749 45.9354 -1C46.0424 -0.9535 45.9835 -0.8605 45.984 -0.793333C45.9886 0.291669 45.9871 1.37667 45.9871 2.46167C45.9111 2.50146 45.8357 2.54176 45.7592 2.57999C41.3655 4.77944 36.9712 6.97838 32.5775 9.17784C32.5 9.21659 32.4251 9.2605 32.2923 9.33335C36.9056 9.33335 41.4466 9.33335 45.9876 9.33335C45.9871 10.0226 45.9871 10.7118 45.9871 11.4005Z" fill="#FEFEFE"/>
<path d="M-15.9874 17.5994C-6.78708 17.5994 2.41322 17.6005 11.6135 17.5938C11.846 17.5938 11.906 17.6485 11.906 17.8846C11.8982 21.9229 11.9003 25.9612 11.9003 29.9995C11.2116 29.9995 10.5234 29.9995 9.83464 29.9995C9.83464 26.8628 9.83464 23.7256 9.83464 20.5594C9.7313 20.6075 9.66207 20.638 9.59439 20.6721C4.36209 23.289 -0.870717 25.9059 -6.10249 28.5249C-7.07538 29.0121 -8.04413 29.5081 -9.01495 30C-9.78943 30 -10.5644 30 -11.3389 30C-11.2728 29.9623 -11.2082 29.9214 -11.14 29.8873C-4.44192 26.5352 2.25616 23.1836 8.95475 19.8314C9.03432 19.7917 9.11337 19.7503 9.19294 19.7095C9.18932 19.695 9.1857 19.6811 9.18209 19.6666C9.10045 19.6666 9.01882 19.6666 8.93719 19.6666C7.60315 19.6666 6.26963 19.6692 4.93559 19.6635C4.75734 19.6625 4.60183 19.7012 4.44476 19.7798C-1.59302 22.8028 -7.63183 25.8232 -13.6691 28.8473C-14.4281 29.226 -15.1989 29.5794 -15.9357 29.9995C-16.0427 29.953 -15.9838 29.86 -15.9843 29.7928C-15.9889 28.7078 -15.9874 27.6228 -15.9874 26.5378C-15.9657 26.5243 -15.9445 26.5088 -15.9218 26.4975C-11.4629 24.2691 -7.00356 22.0407 -2.54575 19.8097C-2.47962 19.7767 -2.3861 19.7679 -2.35149 19.6661C-6.90436 19.6661 -11.4459 19.6661 -15.9874 19.6661C-15.9874 18.9774 -15.9874 18.2882 -15.9874 17.5994Z" fill="#FEFDFE"/>
<path d="M9.83447 -1C9.83447 2.13307 9.83447 5.26563 9.83447 8.39663C9.73889 8.44003 9.67947 8.36977 9.61747 8.33877C3.45518 5.25943 -2.70556 2.17751 -8.86579 -0.904933C-8.91849 -0.931283 -8.96551 -0.967967 -9.01562 -1C-2.73191 -1 3.55128 -1 9.83447 -1Z" fill="#232D65"/>
<path d="M39.0142 -0.999483C38.1834 -0.576333 37.3551 -0.148532 36.5218 0.268419C31.1494 2.95819 25.7761 5.64538 20.4028 8.33308C20.3351 8.36718 20.2653 8.39612 20.1641 8.4421C20.1641 5.27648 20.1641 2.13824 20.1641 -1C26.4478 -0.999483 32.731 -0.999483 39.0142 -0.999483Z" fill="#232D65"/>
<path d="M-9.01562 30.0031C-8.04481 29.5112 -7.07657 29.0152 -6.10317 28.528C-0.871393 25.909 4.36142 23.2926 9.59371 20.6751C9.66139 20.6415 9.73063 20.6111 9.83396 20.5625C9.83396 23.7292 9.83396 26.8658 9.83396 30.0025C3.55128 30.0031 -2.73191 30.0031 -9.01562 30.0031Z" fill="#232D65"/>
<path d="M20.1641 30.0005C20.1641 26.8664 20.1641 23.7323 20.1641 20.5997C20.2586 20.5563 20.317 20.6266 20.379 20.6576C26.5428 23.738 32.7051 26.8209 38.8674 29.9044C38.9191 29.9302 38.9651 29.9684 39.0136 30.0005C32.7305 30.0005 26.4473 30.0005 20.1641 30.0005Z" fill="#232D65"/>
<path d="M45.9336 -1C45.3229 -0.635749 44.674 -0.345899 44.04 -0.0286651C37.8896 3.05222 31.7361 6.12691 25.5847 9.20625C25.4121 9.29253 25.2421 9.338 25.0458 9.33697C23.721 9.33025 22.3958 9.33335 21.0711 9.33335C20.9879 9.33335 20.9047 9.33335 20.822 9.33335C20.8174 9.32043 20.8132 9.307 20.8086 9.29408C20.8866 9.25327 20.9646 9.21142 21.0432 9.17215C27.7273 5.82828 34.4119 2.48492 41.0955 -0.859466C41.1787 -0.901317 41.2567 -0.952983 41.3368 -1C42.8693 -1 44.4012 -1 45.9336 -1Z" fill="#C82230"/>
<path d="M-15.9336 30.0005C-15.1968 29.5805 -14.426 29.2271 -13.6685 28.8479C-7.63126 25.8243 -1.59193 22.8039 4.44533 19.7803C4.6024 19.7018 4.75843 19.663 4.93616 19.6641C6.2702 19.6698 7.60372 19.6672 8.93775 19.6672C9.01939 19.6672 9.10102 19.6672 9.18265 19.6672C9.18627 19.6816 9.18989 19.6956 9.1935 19.7101C9.11394 19.7509 9.03489 19.7922 8.95532 19.832C2.25724 23.1836 -4.44084 26.5358 -11.1389 29.8879C-11.2071 29.922 -11.2712 29.9628 -11.3378 30.0005C-12.8698 30.0005 -14.4017 30.0005 -15.9336 30.0005Z" fill="#C82230"/>
<path d="M-15.9341 -1C-15.7295 -0.84345 -15.4892 -0.752516 -15.2619 -0.638333C-8.72554 2.63372 -2.18814 5.90423 4.34874 9.17474C4.42417 9.21245 4.49857 9.2512 4.63084 9.31889C4.50374 9.3256 4.43347 9.33284 4.3632 9.33284C3.02917 9.33336 1.69513 9.33025 0.361611 9.33645C0.158561 9.33749 -0.0202052 9.29564 -0.202589 9.20419C-5.36151 6.62033 -10.5225 4.04009 -15.683 1.45986C-15.7817 1.41026 -15.8845 1.36944 -15.9858 1.325C-15.9858 0.601153 -15.9873 -0.123215 -15.9827 -0.847066C-15.9821 -0.895633 -16.0452 -0.980883 -15.9341 -1Z" fill="#C82230"/>
<path d="M45.9331 30.0005C45.8716 29.9091 45.7652 29.8894 45.6764 29.845C39.0005 26.5032 32.3241 23.1635 25.6477 19.8232C25.5733 19.786 25.5 19.7473 25.4297 19.6672C25.5103 19.6672 25.5904 19.6672 25.671 19.6672C27.005 19.6672 28.339 19.6698 29.6731 19.6641C29.8591 19.6636 30.0234 19.7023 30.1892 19.785C35.3833 22.3864 40.5794 24.9847 45.775 27.583C45.8432 27.6171 45.915 27.6445 45.9853 27.675C45.9853 28.3983 45.9869 29.1217 45.9822 29.845C45.9812 29.8946 46.0437 29.9799 45.9331 30.0005Z" fill="#C82230"/>
</g>
</svg>
