<?xml version="1.0" encoding="UTF-8"?>
<svg width="407px" height="322px" viewBox="0 0 407 322" version="1.1" xmlns="http://www.w3.org/2000/svg" xmlns:xlink="http://www.w3.org/1999/xlink">
    <title>graph</title>
    <defs>
        <linearGradient x1="52.4895659%" y1="15.7889843%" x2="52.4895659%" y2="99.878313%" id="linearGradient-1">
            <stop stop-color="#0F9CE2" offset="0%"></stop>
            <stop stop-color="#652E92" stop-opacity="0" offset="100%"></stop>
        </linearGradient>
        <linearGradient x1="0%" y1="48.3970127%" x2="5.72036964%" y2="54.6688314%" id="linearGradient-2">
            <stop stop-color="#0F9CE2" offset="0%"></stop>
            <stop stop-color="#652E92" offset="100%"></stop>
        </linearGradient>
    </defs>
    <g id="Page-1" stroke="none" stroke-width="1" fill="none" fill-rule="evenodd">
        <g id="graph" transform="translate(1.000000, 0.396500)">
            <path d="M0,99.7125 L3.91613,98.4015 C7.83225,97.0915 15.6645,94.4705 23.4968,99.2745 C31.329,104.0775 39.1613,116.3055 46.9935,111.5955 C54.8258,106.8855 62.658,85.2385 70.4903,80.0835 C78.3225,74.9285 86.1548,86.2665 93.987,91.2745 C101.819,96.2825 109.652,94.9615 117.484,93.9875 C125.316,93.0125 133.148,92.3855 140.981,96.1655 C148.813,99.9455 156.645,108.1335 164.477,107.1325 C172.31,106.1315 180.142,95.9425 187.974,85.9865 C195.806,76.0315 203.639,66.3085 211.471,66.4215 C219.303,66.5335 227.135,76.4815 234.968,78.5405 C242.8,80.6005 250.632,74.7735 258.464,70.1045 C266.297,65.4355 274.129,61.9265 281.961,67.3895 C289.793,72.8525 297.626,87.2875 305.458,86.8315 C313.29,86.3755 321.122,71.0275 328.955,62.3315 C336.787,53.6355 344.619,51.5925 348.535,50.5705 L352.451,49.5485 L352.451,296.9045 L0,296.9045 L0,99.7125 Z" id="Path" fill="url(#linearGradient-1)" fill-rule="nonzero"></path>
            <path d="M0,97.8015 L3.91613,96.4915 C7.83225,95.1815 15.6645,92.5605 23.4968,97.3645 C31.329,102.1675 39.1613,114.3955 46.9935,109.6855 C54.8258,104.9755 62.658,83.3285 70.4903,78.1735 C78.3225,73.0185 86.1548,84.3565 93.987,89.3645 C101.819,94.3725 109.652,93.0515 117.484,92.0765 C125.316,91.1025 133.148,90.4755 140.981,94.2555 C148.813,98.0355 156.645,106.2235 164.477,105.2225 C172.31,104.2215 180.142,94.0325 187.974,84.0765 C195.806,74.1205 203.639,64.3985 211.471,64.5115 C219.303,64.6235 227.135,74.5705 234.968,76.6305 C242.8,78.6905 250.632,72.8635 258.464,68.1945 C266.297,63.5255 274.129,60.0165 281.961,65.4795 C289.793,70.9415 297.626,85.3775 305.458,84.9215 C313.29,84.4655 321.122,69.1175 328.955,60.4215 C336.787,51.7255 344.619,49.6825 348.535,48.6605 L352.451,47.6385" id="Path" stroke="url(#linearGradient-2)" stroke-width="3.89021"></path>
            <line x1="39" y1="5.6035" x2="39" y2="302.6035" id="Path" stroke="#F2F3F3" opacity="0.3" stroke-linecap="round" stroke-linejoin="round" stroke-dasharray="4.37"></line>
            <path d="M32.208,309.5635 L32.208,320.6035 L31.088,320.6035 L31.088,311.7875 L27.152,320.6035 L26.336,320.6035 L22.4,311.8195 L22.4,320.6035 L21.28,320.6035 L21.28,309.5635 L22.464,309.5635 L26.736,319.1315 L31.008,309.5635 L32.208,309.5635 Z M38.5728,320.7315 C37.7514,320.7315 37.0101,320.5505 36.3488,320.1875 C35.6981,319.8145 35.1808,319.2915 34.7968,318.6195 C34.4234,317.9365 34.2368,317.1425 34.2368,316.2355 C34.2368,315.3285 34.4288,314.5395 34.8128,313.8675 C35.1968,313.1845 35.7194,312.6625 36.3808,312.2995 C37.0421,311.9265 37.7834,311.7395 38.6048,311.7395 C39.4261,311.7395 40.1674,311.9265 40.8288,312.2995 C41.5008,312.6625 42.0234,313.1845 42.3968,313.8675 C42.7808,314.5395 42.9728,315.3285 42.9728,316.2355 C42.9728,317.1315 42.7808,317.9205 42.3968,318.6035 C42.0128,319.2865 41.4848,319.8145 40.8128,320.1875 C40.1408,320.5505 39.3941,320.7315 38.5728,320.7315 Z M38.5728,319.7555 C39.1488,319.7555 39.6821,319.6275 40.1728,319.3715 C40.6634,319.1045 41.0581,318.7105 41.3568,318.1875 C41.6661,317.6545 41.8208,317.0035 41.8208,316.2355 C41.8208,315.4675 41.6714,314.8225 41.3728,314.2995 C41.0741,313.7665 40.6794,313.3715 40.1888,313.1155 C39.6981,312.8485 39.1648,312.7155 38.5888,312.7155 C38.0128,312.7155 37.4794,312.8485 36.9888,313.1155 C36.4981,313.3715 36.1034,313.7665 35.8048,314.2995 C35.5168,314.8225 35.3728,315.4675 35.3728,316.2355 C35.3728,317.0035 35.5168,317.6545 35.8048,318.1875 C36.1034,318.7105 36.4928,319.1045 36.9728,319.3715 C37.4634,319.6275 37.9968,319.7555 38.5728,319.7555 Z M49.1104,311.7075 C50.1557,311.7075 51.009,312.0325 51.6704,312.6835 C52.3317,313.3235 52.6624,314.2565 52.6624,315.4835 L52.6624,320.6035 L51.5584,320.6035 L51.5584,315.6115 C51.5584,314.6625 51.3184,313.9365 50.8384,313.4355 C50.369,312.9345 49.7237,312.6835 48.9024,312.6835 C48.0597,312.6835 47.3877,312.9505 46.8864,313.4835 C46.385,314.0165 46.1344,314.8005 46.1344,315.8355 L46.1344,320.6035 L45.0144,320.6035 L45.0144,311.8675 L46.1344,311.8675 L46.1344,313.3555 C46.4117,312.8225 46.8117,312.4165 47.3344,312.1395 C47.857,311.8515 48.449,311.7075 49.1104,311.7075 Z" id="Shape" fill="#FFFFFF" fill-rule="nonzero"></path>
            <line x1="91" y1="5.6035" x2="91" y2="302.6035" id="Path" stroke="#F2F3F3" opacity="0.3" stroke-linecap="round" stroke-linejoin="round" stroke-dasharray="4.37"></line>
            <path d="M82.824,309.4195 L82.824,310.3475 L79.72,310.3475 L79.72,320.6035 L78.6,320.6035 L78.6,310.3475 L75.48,310.3475 L75.48,309.4195 L82.824,309.4195 Z M92.1605,311.8675 L92.1605,320.6035 L91.0405,320.6035 L91.0405,319.0675 C90.7845,319.6115 90.3898,320.0275 89.8565,320.3155 C89.3232,320.6035 88.7258,320.7475 88.0645,320.7475 C87.0192,320.7475 86.1658,320.4275 85.5045,319.7875 C84.8432,319.1365 84.5125,318.1985 84.5125,316.9715 L84.5125,311.8675 L85.6165,311.8675 L85.6165,316.8435 C85.6165,317.7925 85.8512,318.5185 86.3205,319.0195 C86.8005,319.5205 87.4512,319.7715 88.2725,319.7715 C89.1152,319.7715 89.7872,319.5045 90.2885,318.9715 C90.7898,318.4385 91.0405,317.6545 91.0405,316.6195 L91.0405,311.8675 L92.1605,311.8675 Z M102.622,315.7875 C102.622,316.1715 102.611,316.4645 102.59,316.6675 L95.3415,316.6675 C95.3735,317.3285 95.5335,317.8945 95.8215,318.3635 C96.1095,318.8325 96.4882,319.1905 96.9575,319.4355 C97.4268,319.6705 97.9388,319.7875 98.4935,319.7875 C99.219,319.7875 99.827,319.6115 100.318,319.2595 C100.819,318.9075 101.15,318.4325 101.31,317.8355 L102.494,317.8355 C102.28,318.6885 101.822,319.3875 101.118,319.9315 C100.424,320.4645 99.55,320.7315 98.4935,320.7315 C97.6722,320.7315 96.9362,320.5505 96.2855,320.1875 C95.6348,319.8145 95.1228,319.2915 94.7495,318.6195 C94.3868,317.9365 94.2055,317.1425 94.2055,316.2355 C94.2055,315.3285 94.3868,314.5345 94.7495,313.8515 C95.1122,313.1685 95.6188,312.6465 96.2695,312.2835 C96.9202,311.9205 97.6615,311.7395 98.4935,311.7395 C99.326,311.7395 100.051,311.9205 100.67,312.2835 C101.299,312.6465 101.779,313.1365 102.11,313.7555 C102.451,314.3635 102.622,315.0405 102.622,315.7875 Z M101.486,315.7555 C101.496,315.1045 101.363,314.5505 101.086,314.0915 C100.819,313.6325 100.451,313.2865 99.982,313.0515 C99.512,312.8165 99,312.6995 98.4455,312.6995 C97.6135,312.6995 96.9042,312.9665 96.3175,313.4995 C95.7308,314.0325 95.4055,314.7845 95.3415,315.7555 L101.486,315.7555 Z" id="Shape" fill="#FFFFFF" fill-rule="nonzero"></path>
            <line x1="141" y1="5.6035" x2="141" y2="302.6035" id="Path" stroke="#F2F3F3" opacity="0.3" stroke-linecap="round" stroke-linejoin="round" stroke-dasharray="4.37"></line>
            <path d="M136.848,309.4195 L133.68,320.6035 L132.432,320.6035 L129.616,311.0675 L126.736,320.6035 L125.52,320.6195 L122.416,309.4195 L123.616,309.4195 L126.176,319.2275 L129.04,309.4195 L130.288,309.4195 L133.072,319.2275 L135.648,309.4195 L136.848,309.4195 Z M146.465,315.7875 C146.465,316.1715 146.455,316.4645 146.433,316.6675 L139.185,316.6675 C139.217,317.3285 139.377,317.8945 139.665,318.3635 C139.953,318.8325 140.332,319.1905 140.801,319.4355 C141.271,319.6705 141.783,319.7875 142.337,319.7875 C143.063,319.7875 143.671,319.6115 144.161,319.2595 C144.663,318.9075 144.993,318.4325 145.153,317.8355 L146.337,317.8355 C146.124,318.6885 145.665,319.3875 144.961,319.9315 C144.268,320.4645 143.393,320.7315 142.337,320.7315 C141.516,320.7315 140.78,320.5505 140.129,320.1875 C139.479,319.8145 138.967,319.2915 138.593,318.6195 C138.231,317.9365 138.049,317.1425 138.049,316.2355 C138.049,315.3285 138.231,314.5345 138.593,313.8515 C138.956,313.1685 139.463,312.6465 140.113,312.2835 C140.764,311.9205 141.505,311.7395 142.337,311.7395 C143.169,311.7395 143.895,311.9205 144.513,312.2835 C145.143,312.6465 145.623,313.1365 145.953,313.7555 C146.295,314.3635 146.465,315.0405 146.465,315.7875 Z M145.329,315.7555 C145.34,315.1045 145.207,314.5505 144.929,314.0915 C144.663,313.6325 144.295,313.2865 143.825,313.0515 C143.356,312.8165 142.844,312.6995 142.289,312.6995 C141.457,312.6995 140.748,312.9665 140.161,313.4995 C139.575,314.0325 139.249,314.7845 139.185,315.7555 L145.329,315.7555 Z M148.002,316.2195 C148.002,315.3235 148.184,314.5395 148.546,313.8675 C148.909,313.1845 149.405,312.6625 150.034,312.2995 C150.674,311.9265 151.394,311.7395 152.194,311.7395 C152.962,311.7395 153.656,311.9265 154.274,312.2995 C154.893,312.6725 155.346,313.1585 155.634,313.7555 L155.634,308.7635 L156.754,308.7635 L156.754,320.6035 L155.634,320.6035 L155.634,318.6515 C155.368,319.2595 154.93,319.7605 154.322,320.1555 C153.714,320.5395 153,320.7315 152.178,320.7315 C151.378,320.7315 150.658,320.5445 150.018,320.1715 C149.389,319.7985 148.893,319.2705 148.53,318.5875 C148.178,317.9045 148.002,317.1155 148.002,316.2195 Z M155.634,316.2355 C155.634,315.5315 155.49,314.9125 155.202,314.3795 C154.914,313.8465 154.52,313.4355 154.018,313.1475 C153.528,312.8595 152.984,312.7155 152.386,312.7155 C151.768,312.7155 151.213,312.8545 150.722,313.1315 C150.232,313.4085 149.842,313.8145 149.554,314.3475 C149.277,314.8705 149.138,315.4945 149.138,316.2195 C149.138,316.9345 149.277,317.5635 149.554,318.1075 C149.842,318.6405 150.232,319.0515 150.722,319.3395 C151.213,319.6165 151.768,319.7555 152.386,319.7555 C152.984,319.7555 153.528,319.6115 154.018,319.3235 C154.52,319.0355 154.914,318.6245 155.202,318.0915 C155.49,317.5585 155.634,316.9395 155.634,316.2355 Z" id="Shape" fill="#FFFFFF" fill-rule="nonzero"></path>
            <line x1="239" y1="5.6035" x2="239" y2="302.6035" id="Path" stroke="#F2F3F3" opacity="0.3" stroke-linecap="round" stroke-linejoin="round" stroke-dasharray="4.37"></line>
            <path d="M234.328,309.4195 L234.328,310.3475 L229.4,310.3475 L229.4,314.5235 L233.56,314.5235 L233.56,315.4515 L229.4,315.4515 L229.4,320.6035 L228.28,320.6035 L228.28,309.4195 L234.328,309.4195 Z M237.291,313.4195 C237.536,312.8755 237.909,312.4545 238.411,312.1555 C238.923,311.8565 239.547,311.7075 240.283,311.7075 L240.283,312.8755 L239.979,312.8755 C239.168,312.8755 238.517,313.0945 238.027,313.5315 C237.536,313.9685 237.291,314.6995 237.291,315.7235 L237.291,320.6035 L236.171,320.6035 L236.171,311.8675 L237.291,311.8675 L237.291,313.4195 Z M242.528,310.2195 C242.304,310.2195 242.112,310.1395 241.952,309.9795 C241.792,309.8195 241.712,309.6225 241.712,309.3875 C241.712,309.1525 241.792,308.9605 241.952,308.8115 C242.112,308.6515 242.304,308.5715 242.528,308.5715 C242.752,308.5715 242.944,308.6515 243.104,308.8115 C243.264,308.9605 243.344,309.1525 243.344,309.3875 C243.344,309.6225 243.264,309.8195 243.104,309.9795 C242.944,310.1395 242.752,310.2195 242.528,310.2195 Z M243.088,311.8675 L243.088,320.6035 L241.968,320.6035 L241.968,311.8675 L243.088,311.8675 Z" id="Shape" fill="#FFFFFF" fill-rule="nonzero"></path>
            <line x1="281" y1="5.6035" x2="281" y2="302.6035" id="Path" stroke="#F2F3F3" opacity="0.3" stroke-linecap="round" stroke-linejoin="round" stroke-dasharray="4.37"></line>
            <path d="M270.672,320.7155 C269.936,320.7155 269.285,320.5875 268.72,320.3315 C268.165,320.0755 267.728,319.7185 267.408,319.2595 C267.088,318.8005 266.917,318.2885 266.896,317.7235 L268.08,317.7235 C268.133,318.2675 268.373,318.7475 268.8,319.1635 C269.227,319.5685 269.851,319.7715 270.672,319.7715 C271.429,319.7715 272.027,319.5795 272.464,319.1955 C272.912,318.8005 273.136,318.3045 273.136,317.7075 C273.136,317.2275 273.013,316.8435 272.768,316.5555 C272.523,316.2565 272.219,316.0385 271.856,315.8995 C271.493,315.7505 270.992,315.5905 270.352,315.4195 C269.605,315.2165 269.013,315.0195 268.576,314.8275 C268.139,314.6355 267.765,314.3365 267.456,313.9315 C267.147,313.5265 266.992,312.9765 266.992,312.2835 C266.992,311.7075 267.141,311.1955 267.44,310.7475 C267.739,310.2885 268.16,309.9315 268.704,309.6755 C269.248,309.4195 269.872,309.2915 270.576,309.2915 C271.611,309.2915 272.443,309.5475 273.072,310.0595 C273.712,310.5605 274.08,311.2115 274.176,312.0115 L272.96,312.0115 C272.885,311.5525 272.635,311.1475 272.208,310.7955 C271.781,310.4325 271.205,310.2515 270.48,310.2515 C269.808,310.2515 269.248,310.4325 268.8,310.7955 C268.352,311.1475 268.128,311.6325 268.128,312.2515 C268.128,312.7205 268.251,313.0995 268.496,313.3875 C268.741,313.6755 269.045,313.8945 269.408,314.0435 C269.781,314.1925 270.283,314.3525 270.912,314.5235 C271.637,314.7265 272.224,314.9285 272.672,315.1315 C273.12,315.3235 273.499,315.6225 273.808,316.0275 C274.117,316.4325 274.272,316.9765 274.272,317.6595 C274.272,318.1825 274.133,318.6785 273.856,319.1475 C273.579,319.6165 273.168,319.9955 272.624,320.2835 C272.08,320.5715 271.429,320.7155 270.672,320.7155 Z M275.924,316.2195 C275.924,315.3235 276.1,314.5395 276.452,313.8675 C276.815,313.1845 277.311,312.6625 277.94,312.2995 C278.58,311.9265 279.3,311.7395 280.1,311.7395 C280.932,311.7395 281.647,311.9315 282.244,312.3155 C282.852,312.6995 283.29,313.1905 283.556,313.7875 L283.556,311.8675 L284.676,311.8675 L284.676,320.6035 L283.556,320.6035 L283.556,318.6675 C283.279,319.2645 282.836,319.7605 282.228,320.1555 C281.631,320.5395 280.916,320.7315 280.084,320.7315 C279.295,320.7315 278.58,320.5445 277.94,320.1715 C277.311,319.7985 276.815,319.2705 276.452,318.5875 C276.1,317.9045 275.924,317.1155 275.924,316.2195 Z M283.556,316.2355 C283.556,315.5315 283.412,314.9125 283.124,314.3795 C282.836,313.8465 282.442,313.4355 281.94,313.1475 C281.45,312.8595 280.906,312.7155 280.308,312.7155 C279.69,312.7155 279.135,312.8545 278.644,313.1315 C278.154,313.4085 277.764,313.8145 277.476,314.3475 C277.199,314.8705 277.06,315.4945 277.06,316.2195 C277.06,316.9345 277.199,317.5635 277.476,318.1075 C277.764,318.6405 278.154,319.0515 278.644,319.3395 C279.135,319.6165 279.69,319.7555 280.308,319.7555 C280.906,319.7555 281.45,319.6115 281.94,319.3235 C282.442,319.0355 282.836,318.6245 283.124,318.0915 C283.412,317.5585 283.556,316.9395 283.556,316.2355 Z M288.689,312.8115 L288.689,318.2355 C288.689,318.7685 288.79,319.1365 288.993,319.3395 C289.196,319.5425 289.553,319.6435 290.065,319.6435 L291.089,319.6435 L291.089,320.6035 L289.889,320.6035 C289.1,320.6035 288.513,320.4225 288.129,320.0595 C287.745,319.6865 287.553,319.0785 287.553,318.2355 L287.553,312.8115 L286.337,312.8115 L286.337,311.8675 L287.553,311.8675 L287.553,309.6755 L288.689,309.6755 L288.689,311.8675 L291.089,311.8675 L291.089,312.8115 L288.689,312.8115 Z" id="Shape" fill="#FFFFFF" fill-rule="nonzero"></path>
            <line x1="328" y1="5.6035" x2="328" y2="302.6035" id="Path" stroke="#F2F3F3" opacity="0.3" stroke-linecap="round" stroke-linejoin="round" stroke-dasharray="4.37"></line>
            <path d="M315.672,320.7155 C314.936,320.7155 314.285,320.5875 313.72,320.3315 C313.165,320.0755 312.728,319.7185 312.408,319.2595 C312.088,318.8005 311.917,318.2885 311.896,317.7235 L313.08,317.7235 C313.133,318.2675 313.373,318.7475 313.8,319.1635 C314.227,319.5685 314.851,319.7715 315.672,319.7715 C316.429,319.7715 317.027,319.5795 317.464,319.1955 C317.912,318.8005 318.136,318.3045 318.136,317.7075 C318.136,317.2275 318.013,316.8435 317.768,316.5555 C317.523,316.2565 317.219,316.0385 316.856,315.8995 C316.493,315.7505 315.992,315.5905 315.352,315.4195 C314.605,315.2165 314.013,315.0195 313.576,314.8275 C313.139,314.6355 312.765,314.3365 312.456,313.9315 C312.147,313.5265 311.992,312.9765 311.992,312.2835 C311.992,311.7075 312.141,311.1955 312.44,310.7475 C312.739,310.2885 313.16,309.9315 313.704,309.6755 C314.248,309.4195 314.872,309.2915 315.576,309.2915 C316.611,309.2915 317.443,309.5475 318.072,310.0595 C318.712,310.5605 319.08,311.2115 319.176,312.0115 L317.96,312.0115 C317.885,311.5525 317.635,311.1475 317.208,310.7955 C316.781,310.4325 316.205,310.2515 315.48,310.2515 C314.808,310.2515 314.248,310.4325 313.8,310.7955 C313.352,311.1475 313.128,311.6325 313.128,312.2515 C313.128,312.7205 313.251,313.0995 313.496,313.3875 C313.741,313.6755 314.045,313.8945 314.408,314.0435 C314.781,314.1925 315.283,314.3525 315.912,314.5235 C316.637,314.7265 317.224,314.9285 317.672,315.1315 C318.12,315.3235 318.499,315.6225 318.808,316.0275 C319.117,316.4325 319.272,316.9765 319.272,317.6595 C319.272,318.1825 319.133,318.6785 318.856,319.1475 C318.579,319.6165 318.168,319.9955 317.624,320.2835 C317.08,320.5715 316.429,320.7155 315.672,320.7155 Z M329.004,311.8675 L329.004,320.6035 L327.884,320.6035 L327.884,319.0675 C327.628,319.6115 327.234,320.0275 326.7,320.3155 C326.167,320.6035 325.57,320.7475 324.908,320.7475 C323.863,320.7475 323.01,320.4275 322.348,319.7875 C321.687,319.1365 321.356,318.1985 321.356,316.9715 L321.356,311.8675 L322.46,311.8675 L322.46,316.8435 C322.46,317.7925 322.695,318.5185 323.164,319.0195 C323.644,319.5205 324.295,319.7715 325.116,319.7715 C325.959,319.7715 326.631,319.5045 327.132,318.9715 C327.634,318.4385 327.884,317.6545 327.884,316.6195 L327.884,311.8675 L329.004,311.8675 Z M335.657,311.7075 C336.703,311.7075 337.556,312.0325 338.217,312.6835 C338.879,313.3235 339.209,314.2565 339.209,315.4835 L339.209,320.6035 L338.105,320.6035 L338.105,315.6115 C338.105,314.6625 337.865,313.9365 337.385,313.4355 C336.916,312.9345 336.271,312.6835 335.449,312.6835 C334.607,312.6835 333.935,312.9505 333.433,313.4835 C332.932,314.0165 332.681,314.8005 332.681,315.8355 L332.681,320.6035 L331.561,320.6035 L331.561,311.8675 L332.681,311.8675 L332.681,313.3555 C332.959,312.8225 333.359,312.4165 333.881,312.1395 C334.404,311.8515 334.996,311.7075 335.657,311.7075 Z" id="Shape" fill="#FFFFFF" fill-rule="nonzero"></path>
            <path d="M371.264,295.6915 C372.192,295.6915 372.981,295.4835 373.632,295.0675 C374.293,294.6515 374.784,294.0755 375.104,293.3395 L376.416,293.3395 C376,294.4065 375.344,295.2325 374.448,295.8195 C373.563,296.4065 372.501,296.6995 371.264,296.6995 C370.005,296.6995 368.901,296.3475 367.952,295.6435 C367.013,294.9285 366.373,293.9745 366.032,292.7795 L364.368,292.7795 L364.368,291.9795 L365.856,291.9795 C365.813,291.6915 365.792,291.3665 365.792,291.0035 C365.792,290.7155 365.808,290.4385 365.84,290.1715 L364.368,290.1715 L364.368,289.3715 L366,289.3715 C366.203,288.5605 366.555,287.8465 367.056,287.2275 C367.568,286.6085 368.181,286.1345 368.896,285.8035 C369.621,285.4625 370.411,285.2915 371.264,285.2915 C372.501,285.2915 373.568,285.5905 374.464,286.1875 C375.36,286.7745 376.011,287.6065 376.416,288.6835 L375.104,288.6835 C374.784,287.9365 374.293,287.3555 373.632,286.9395 C372.981,286.5125 372.192,286.2995 371.264,286.2995 C370.283,286.2995 369.424,286.5765 368.688,287.1315 C367.952,287.6755 367.445,288.4225 367.168,289.3715 L371.28,289.3715 L371.28,290.1715 L366.992,290.1715 C366.96,290.4385 366.944,290.7155 366.944,291.0035 C366.944,291.3125 366.971,291.6385 367.024,291.9795 L371.28,291.9795 L371.28,292.7795 L367.216,292.7795 C367.515,293.6865 368.021,294.4005 368.736,294.9235 C369.461,295.4355 370.304,295.6915 371.264,295.6915 Z M378.134,290.7635 C378.134,288.9285 378.416,287.5045 378.982,286.4915 C379.547,285.4785 380.56,284.9715 382.022,284.9715 C383.483,284.9715 384.496,285.4785 385.062,286.4915 C385.627,287.5045 385.91,288.9285 385.91,290.7635 C385.91,292.6305 385.627,294.0755 385.062,295.0995 C384.496,296.1235 383.483,296.6355 382.022,296.6355 C380.55,296.6355 379.531,296.1235 378.966,295.0995 C378.411,294.0755 378.134,292.6305 378.134,290.7635 Z M384.806,290.7635 C384.806,289.7715 384.736,288.9345 384.598,288.2515 C384.459,287.5685 384.187,287.0195 383.782,286.6035 C383.376,286.1875 382.79,285.9795 382.022,285.9795 C381.254,285.9795 380.667,286.1875 380.262,286.6035 C379.856,287.0195 379.584,287.5685 379.446,288.2515 C379.307,288.9345 379.238,289.7715 379.238,290.7635 C379.238,291.7875 379.307,292.6465 379.446,293.3395 C379.584,294.0225 379.856,294.5715 380.262,294.9875 C380.667,295.4035 381.254,295.6115 382.022,295.6115 C382.79,295.6115 383.376,295.4035 383.782,294.9875 C384.187,294.5715 384.459,294.0225 384.598,293.3395 C384.736,292.6465 384.806,291.7875 384.806,290.7635 Z" id="Shape" fill="#FFFFFF" fill-rule="nonzero"></path>
            <path d="M371.264,243.6915 C372.192,243.6915 372.981,243.4835 373.632,243.0675 C374.293,242.6515 374.784,242.0755 375.104,241.3395 L376.416,241.3395 C376,242.4065 375.344,243.2325 374.448,243.8195 C373.563,244.4065 372.501,244.6995 371.264,244.6995 C370.005,244.6995 368.901,244.3475 367.952,243.6435 C367.013,242.9285 366.373,241.9745 366.032,240.7795 L364.368,240.7795 L364.368,239.9795 L365.856,239.9795 C365.813,239.6915 365.792,239.3665 365.792,239.0035 C365.792,238.7155 365.808,238.4385 365.84,238.1715 L364.368,238.1715 L364.368,237.3715 L366,237.3715 C366.203,236.5605 366.555,235.8465 367.056,235.2275 C367.568,234.6085 368.181,234.1345 368.896,233.8035 C369.621,233.4625 370.411,233.2915 371.264,233.2915 C372.501,233.2915 373.568,233.5905 374.464,234.1875 C375.36,234.7745 376.011,235.6065 376.416,236.6835 L375.104,236.6835 C374.784,235.9365 374.293,235.3555 373.632,234.9395 C372.981,234.5125 372.192,234.2995 371.264,234.2995 C370.283,234.2995 369.424,234.5765 368.688,235.1315 C367.952,235.6755 367.445,236.4225 367.168,237.3715 L371.28,237.3715 L371.28,238.1715 L366.992,238.1715 C366.96,238.4385 366.944,238.7155 366.944,239.0035 C366.944,239.3125 366.971,239.6385 367.024,239.9795 L371.28,239.9795 L371.28,240.7795 L367.216,240.7795 C367.515,241.6865 368.021,242.4005 368.736,242.9235 C369.461,243.4355 370.304,243.6915 371.264,243.6915 Z M385.366,234.0915 L379.51,234.0915 L379.51,238.1875 C379.776,237.8145 380.166,237.5105 380.678,237.2755 C381.19,237.0305 381.744,236.9075 382.342,236.9075 C383.216,236.9075 383.931,237.0885 384.486,237.4515 C385.04,237.8035 385.44,238.2675 385.686,238.8435 C385.931,239.4085 386.054,240.0165 386.054,240.6675 C386.054,241.4145 385.91,242.0915 385.622,242.6995 C385.344,243.2965 384.912,243.7715 384.326,244.1235 C383.75,244.4755 383.03,244.6515 382.166,244.6515 C381.067,244.6515 380.176,244.3685 379.494,243.8035 C378.811,243.2275 378.395,242.4545 378.246,241.4835 L379.35,241.4835 C379.488,242.1875 379.808,242.7315 380.31,243.1155 C380.811,243.4995 381.43,243.6915 382.166,243.6915 C383.094,243.6915 383.792,243.4195 384.262,242.8755 C384.742,242.3205 384.982,241.5905 384.982,240.6835 C384.982,239.7985 384.742,239.1105 384.262,238.6195 C383.782,238.1185 383.094,237.8675 382.198,237.8675 C381.579,237.8675 381.035,238.0115 380.566,238.2995 C380.096,238.5875 379.75,238.9765 379.526,239.4675 L378.47,239.4675 L378.47,233.1155 L385.366,233.1155 L385.366,234.0915 Z M388.009,238.7635 C388.009,236.9285 388.291,235.5045 388.857,234.4915 C389.422,233.4785 390.435,232.9715 391.897,232.9715 C393.358,232.9715 394.371,233.4785 394.937,234.4915 C395.502,235.5045 395.785,236.9285 395.785,238.7635 C395.785,240.6305 395.502,242.0755 394.937,243.0995 C394.371,244.1235 393.358,244.6355 391.897,244.6355 C390.425,244.6355 389.406,244.1235 388.841,243.0995 C388.286,242.0755 388.009,240.6305 388.009,238.7635 Z M394.681,238.7635 C394.681,237.7715 394.611,236.9345 394.473,236.2515 C394.334,235.5685 394.062,235.0195 393.657,234.6035 C393.251,234.1875 392.665,233.9795 391.897,233.9795 C391.129,233.9795 390.542,234.1875 390.137,234.6035 C389.731,235.0195 389.459,235.5685 389.321,236.2515 C389.182,236.9345 389.113,237.7715 389.113,238.7635 C389.113,239.7875 389.182,240.6465 389.321,241.3395 C389.459,242.0225 389.731,242.5715 390.137,242.9875 C390.542,243.4035 391.129,243.6115 391.897,243.6115 C392.665,243.6115 393.251,243.4035 393.657,242.9875 C394.062,242.5715 394.334,242.0225 394.473,241.3395 C394.611,240.6465 394.681,239.7875 394.681,238.7635 Z" id="Shape" fill="#FFFFFF" fill-rule="nonzero"></path>
            <path d="M371.264,187.6915 C372.192,187.6915 372.981,187.4835 373.632,187.0675 C374.293,186.6515 374.784,186.0755 375.104,185.3395 L376.416,185.3395 C376,186.4065 375.344,187.2325 374.448,187.8195 C373.563,188.4065 372.501,188.6995 371.264,188.6995 C370.005,188.6995 368.901,188.3475 367.952,187.6435 C367.013,186.9285 366.373,185.9745 366.032,184.7795 L364.368,184.7795 L364.368,183.9795 L365.856,183.9795 C365.813,183.6915 365.792,183.3665 365.792,183.0035 C365.792,182.7155 365.808,182.4385 365.84,182.1715 L364.368,182.1715 L364.368,181.3715 L366,181.3715 C366.203,180.5605 366.555,179.8465 367.056,179.2275 C367.568,178.6085 368.181,178.1345 368.896,177.8035 C369.621,177.4625 370.411,177.2915 371.264,177.2915 C372.501,177.2915 373.568,177.5905 374.464,178.1875 C375.36,178.7745 376.011,179.6065 376.416,180.6835 L375.104,180.6835 C374.784,179.9365 374.293,179.3555 373.632,178.9395 C372.981,178.5125 372.192,178.2995 371.264,178.2995 C370.283,178.2995 369.424,178.5765 368.688,179.1315 C367.952,179.6755 367.445,180.4225 367.168,181.3715 L371.28,181.3715 L371.28,182.1715 L366.992,182.1715 C366.96,182.4385 366.944,182.7155 366.944,183.0035 C366.944,183.3125 366.971,183.6385 367.024,183.9795 L371.28,183.9795 L371.28,184.7795 L367.216,184.7795 C367.515,185.6865 368.021,186.4005 368.736,186.9235 C369.461,187.4355 370.304,187.6915 371.264,187.6915 Z M377.59,178.1395 L377.59,177.1315 L380.31,177.1315 L380.31,188.6035 L379.174,188.6035 L379.174,178.1395 L377.59,178.1395 Z M382.806,182.7635 C382.806,180.9285 383.088,179.5045 383.654,178.4915 C384.219,177.4785 385.232,176.9715 386.694,176.9715 C388.155,176.9715 389.168,177.4785 389.734,178.4915 C390.299,179.5045 390.582,180.9285 390.582,182.7635 C390.582,184.6305 390.299,186.0755 389.734,187.0995 C389.168,188.1235 388.155,188.6355 386.694,188.6355 C385.222,188.6355 384.203,188.1235 383.638,187.0995 C383.083,186.0755 382.806,184.6305 382.806,182.7635 Z M389.478,182.7635 C389.478,181.7715 389.408,180.9345 389.27,180.2515 C389.131,179.5685 388.859,179.0195 388.454,178.6035 C388.048,178.1875 387.462,177.9795 386.694,177.9795 C385.926,177.9795 385.339,178.1875 384.934,178.6035 C384.528,179.0195 384.256,179.5685 384.118,180.2515 C383.979,180.9345 383.91,181.7715 383.91,182.7635 C383.91,183.7875 383.979,184.6465 384.118,185.3395 C384.256,186.0225 384.528,186.5715 384.934,186.9875 C385.339,187.4035 385.926,187.6115 386.694,187.6115 C387.462,187.6115 388.048,187.4035 388.454,186.9875 C388.859,186.5715 389.131,186.0225 389.27,185.3395 C389.408,184.6465 389.478,183.7875 389.478,182.7635 Z M392.665,182.7635 C392.665,180.9285 392.948,179.5045 393.513,178.4915 C394.078,177.4785 395.092,176.9715 396.553,176.9715 C398.014,176.9715 399.028,177.4785 399.593,178.4915 C400.158,179.5045 400.441,180.9285 400.441,182.7635 C400.441,184.6305 400.158,186.0755 399.593,187.0995 C399.028,188.1235 398.014,188.6355 396.553,188.6355 C395.081,188.6355 394.062,188.1235 393.497,187.0995 C392.942,186.0755 392.665,184.6305 392.665,182.7635 Z M399.337,182.7635 C399.337,181.7715 399.268,180.9345 399.129,180.2515 C398.99,179.5685 398.718,179.0195 398.313,178.6035 C397.908,178.1875 397.321,177.9795 396.553,177.9795 C395.785,177.9795 395.198,178.1875 394.793,178.6035 C394.388,179.0195 394.116,179.5685 393.977,180.2515 C393.838,180.9345 393.769,181.7715 393.769,182.7635 C393.769,183.7875 393.838,184.6465 393.977,185.3395 C394.116,186.0225 394.388,186.5715 394.793,186.9875 C395.198,187.4035 395.785,187.6115 396.553,187.6115 C397.321,187.6115 397.908,187.4035 398.313,186.9875 C398.718,186.5715 398.99,186.0225 399.129,185.3395 C399.268,184.6465 399.337,183.7875 399.337,182.7635 Z" id="Shape" fill="#FFFFFF" fill-rule="nonzero"></path>
            <path d="M371.264,132.6915 C372.192,132.6915 372.981,132.4835 373.632,132.0675 C374.293,131.6515 374.784,131.0755 375.104,130.3395 L376.416,130.3395 C376,131.4065 375.344,132.2325 374.448,132.8195 C373.563,133.4065 372.501,133.6995 371.264,133.6995 C370.005,133.6995 368.901,133.3475 367.952,132.6435 C367.013,131.9285 366.373,130.9745 366.032,129.7795 L364.368,129.7795 L364.368,128.9795 L365.856,128.9795 C365.813,128.6915 365.792,128.3665 365.792,128.0035 C365.792,127.7155 365.808,127.4385 365.84,127.1715 L364.368,127.1715 L364.368,126.3715 L366,126.3715 C366.203,125.5605 366.555,124.8465 367.056,124.2275 C367.568,123.6085 368.181,123.1345 368.896,122.8035 C369.621,122.4625 370.411,122.2915 371.264,122.2915 C372.501,122.2915 373.568,122.5905 374.464,123.1875 C375.36,123.7745 376.011,124.6065 376.416,125.6835 L375.104,125.6835 C374.784,124.9365 374.293,124.3555 373.632,123.9395 C372.981,123.5125 372.192,123.2995 371.264,123.2995 C370.283,123.2995 369.424,123.5765 368.688,124.1315 C367.952,124.6755 367.445,125.4225 367.168,126.3715 L371.28,126.3715 L371.28,127.1715 L366.992,127.1715 C366.96,127.4385 366.944,127.7155 366.944,128.0035 C366.944,128.3125 366.971,128.6385 367.024,128.9795 L371.28,128.9795 L371.28,129.7795 L367.216,129.7795 C367.515,130.6865 368.021,131.4005 368.736,131.9235 C369.461,132.4355 370.304,132.6915 371.264,132.6915 Z M377.91,132.7235 C379.872,131.2515 381.387,129.9345 382.454,128.7715 C383.531,127.5985 384.07,126.4515 384.07,125.3315 C384.07,124.5955 383.883,124.0085 383.51,123.5715 C383.147,123.1235 382.55,122.8995 381.718,122.8995 C380.907,122.8995 380.278,123.1555 379.83,123.6675 C379.392,124.1685 379.147,124.8405 379.094,125.6835 L378.006,125.6835 C378.07,124.4995 378.432,123.5825 379.094,122.9315 C379.766,122.2705 380.64,121.9395 381.718,121.9395 C382.752,121.9395 383.59,122.2325 384.23,122.8195 C384.87,123.3955 385.19,124.2165 385.19,125.2835 C385.19,126.5745 384.651,127.8275 383.574,129.0435 C382.507,130.2485 381.19,131.4275 379.622,132.5795 L385.542,132.5795 L385.542,133.5235 L377.91,133.5235 L377.91,132.7235 Z M387.29,127.7635 C387.29,125.9285 387.573,124.5045 388.138,123.4915 C388.703,122.4785 389.717,121.9715 391.178,121.9715 C392.639,121.9715 393.653,122.4785 394.218,123.4915 C394.783,124.5045 395.066,125.9285 395.066,127.7635 C395.066,129.6305 394.783,131.0755 394.218,132.0995 C393.653,133.1235 392.639,133.6355 391.178,133.6355 C389.706,133.6355 388.687,133.1235 388.122,132.0995 C387.567,131.0755 387.29,129.6305 387.29,127.7635 Z M393.962,127.7635 C393.962,126.7715 393.893,125.9345 393.754,125.2515 C393.615,124.5685 393.343,124.0195 392.938,123.6035 C392.533,123.1875 391.946,122.9795 391.178,122.9795 C390.41,122.9795 389.823,123.1875 389.418,123.6035 C389.013,124.0195 388.741,124.5685 388.602,125.2515 C388.463,125.9345 388.394,126.7715 388.394,127.7635 C388.394,128.7875 388.463,129.6465 388.602,130.3395 C388.741,131.0225 389.013,131.5715 389.418,131.9875 C389.823,132.4035 390.41,132.6115 391.178,132.6115 C391.946,132.6115 392.533,132.4035 392.938,131.9875 C393.343,131.5715 393.615,131.0225 393.754,130.3395 C393.893,129.6465 393.962,128.7875 393.962,127.7635 Z M397.149,127.7635 C397.149,125.9285 397.432,124.5045 397.997,123.4915 C398.563,122.4785 399.576,121.9715 401.037,121.9715 C402.499,121.9715 403.512,122.4785 404.077,123.4915 C404.643,124.5045 404.925,125.9285 404.925,127.7635 C404.925,129.6305 404.643,131.0755 404.077,132.0995 C403.512,133.1235 402.499,133.6355 401.037,133.6355 C399.565,133.6355 398.547,133.1235 397.981,132.0995 C397.427,131.0755 397.149,129.6305 397.149,127.7635 Z M403.821,127.7635 C403.821,126.7715 403.752,125.9345 403.613,125.2515 C403.475,124.5685 403.203,124.0195 402.797,123.6035 C402.392,123.1875 401.805,122.9795 401.037,122.9795 C400.269,122.9795 399.683,123.1875 399.277,123.6035 C398.872,124.0195 398.6,124.5685 398.461,125.2515 C398.323,125.9345 398.253,126.7715 398.253,127.7635 C398.253,128.7875 398.323,129.6465 398.461,130.3395 C398.6,131.0225 398.872,131.5715 399.277,131.9875 C399.683,132.4035 400.269,132.6115 401.037,132.6115 C401.805,132.6115 402.392,132.4035 402.797,131.9875 C403.203,131.5715 403.475,131.0225 403.613,130.3395 C403.752,129.6465 403.821,128.7875 403.821,127.7635 Z" id="Shape" fill="#FFFFFF" fill-rule="nonzero"></path>
            <path d="M371.264,76.6915 C372.192,76.6915 372.981,76.4835 373.632,76.0675 C374.293,75.6515 374.784,75.0755 375.104,74.3395 L376.416,74.3395 C376,75.4065 375.344,76.2325 374.448,76.8195 C373.563,77.4065 372.501,77.6995 371.264,77.6995 C370.005,77.6995 368.901,77.3475 367.952,76.6435 C367.013,75.9285 366.373,74.9745 366.032,73.7795 L364.368,73.7795 L364.368,72.9795 L365.856,72.9795 C365.813,72.6915 365.792,72.3665 365.792,72.0035 C365.792,71.7155 365.808,71.4385 365.84,71.1715 L364.368,71.1715 L364.368,70.3715 L366,70.3715 C366.203,69.5605 366.555,68.8465 367.056,68.2275 C367.568,67.6085 368.181,67.1345 368.896,66.8035 C369.621,66.4625 370.411,66.2915 371.264,66.2915 C372.501,66.2915 373.568,66.5905 374.464,67.1875 C375.36,67.7745 376.011,68.6065 376.416,69.6835 L375.104,69.6835 C374.784,68.9365 374.293,68.3555 373.632,67.9395 C372.981,67.5125 372.192,67.2995 371.264,67.2995 C370.283,67.2995 369.424,67.5765 368.688,68.1315 C367.952,68.6755 367.445,69.4225 367.168,70.3715 L371.28,70.3715 L371.28,71.1715 L366.992,71.1715 C366.96,71.4385 366.944,71.7155 366.944,72.0035 C366.944,72.3125 366.971,72.6385 367.024,72.9795 L371.28,72.9795 L371.28,73.7795 L367.216,73.7795 C367.515,74.6865 368.021,75.4005 368.736,75.9235 C369.461,76.4355 370.304,76.6915 371.264,76.6915 Z M385.366,67.0915 L379.51,67.0915 L379.51,71.1875 C379.776,70.8145 380.166,70.5105 380.678,70.2755 C381.19,70.0305 381.744,69.9075 382.342,69.9075 C383.216,69.9075 383.931,70.0885 384.486,70.4515 C385.04,70.8035 385.44,71.2675 385.686,71.8435 C385.931,72.4085 386.054,73.0165 386.054,73.6675 C386.054,74.4145 385.91,75.0915 385.622,75.6995 C385.344,76.2965 384.912,76.7715 384.326,77.1235 C383.75,77.4755 383.03,77.6515 382.166,77.6515 C381.067,77.6515 380.176,77.3685 379.494,76.8035 C378.811,76.2275 378.395,75.4545 378.246,74.4835 L379.35,74.4835 C379.488,75.1875 379.808,75.7315 380.31,76.1155 C380.811,76.4995 381.43,76.6915 382.166,76.6915 C383.094,76.6915 383.792,76.4195 384.262,75.8755 C384.742,75.3205 384.982,74.5905 384.982,73.6835 C384.982,72.7985 384.742,72.1105 384.262,71.6195 C383.782,71.1185 383.094,70.8675 382.198,70.8675 C381.579,70.8675 381.035,71.0115 380.566,71.2995 C380.096,71.5875 379.75,71.9765 379.526,72.4675 L378.47,72.4675 L378.47,66.1155 L385.366,66.1155 L385.366,67.0915 Z M388.009,71.7635 C388.009,69.9285 388.291,68.5045 388.857,67.4915 C389.422,66.4785 390.435,65.9715 391.897,65.9715 C393.358,65.9715 394.371,66.4785 394.937,67.4915 C395.502,68.5045 395.785,69.9285 395.785,71.7635 C395.785,73.6305 395.502,75.0755 394.937,76.0995 C394.371,77.1235 393.358,77.6355 391.897,77.6355 C390.425,77.6355 389.406,77.1235 388.841,76.0995 C388.286,75.0755 388.009,73.6305 388.009,71.7635 Z M394.681,71.7635 C394.681,70.7715 394.611,69.9345 394.473,69.2515 C394.334,68.5685 394.062,68.0195 393.657,67.6035 C393.251,67.1875 392.665,66.9795 391.897,66.9795 C391.129,66.9795 390.542,67.1875 390.137,67.6035 C389.731,68.0195 389.459,68.5685 389.321,69.2515 C389.182,69.9345 389.113,70.7715 389.113,71.7635 C389.113,72.7875 389.182,73.6465 389.321,74.3395 C389.459,75.0225 389.731,75.5715 390.137,75.9875 C390.542,76.4035 391.129,76.6115 391.897,76.6115 C392.665,76.6115 393.251,76.4035 393.657,75.9875 C394.062,75.5715 394.334,75.0225 394.473,74.3395 C394.611,73.6465 394.681,72.7875 394.681,71.7635 Z M397.868,71.7635 C397.868,69.9285 398.151,68.5045 398.716,67.4915 C399.281,66.4785 400.295,65.9715 401.756,65.9715 C403.217,65.9715 404.231,66.4785 404.796,67.4915 C405.361,68.5045 405.644,69.9285 405.644,71.7635 C405.644,73.6305 405.361,75.0755 404.796,76.0995 C404.231,77.1235 403.217,77.6355 401.756,77.6355 C400.284,77.6355 399.265,77.1235 398.7,76.0995 C398.145,75.0755 397.868,73.6305 397.868,71.7635 Z M404.54,71.7635 C404.54,70.7715 404.471,69.9345 404.332,69.2515 C404.193,68.5685 403.921,68.0195 403.516,67.6035 C403.111,67.1875 402.524,66.9795 401.756,66.9795 C400.988,66.9795 400.401,67.1875 399.996,67.6035 C399.591,68.0195 399.319,68.5685 399.18,69.2515 C399.041,69.9345 398.972,70.7715 398.972,71.7635 C398.972,72.7875 399.041,73.6465 399.18,74.3395 C399.319,75.0225 399.591,75.5715 399.996,75.9875 C400.401,76.4035 400.988,76.6115 401.756,76.6115 C402.524,76.6115 403.111,76.4035 403.516,75.9875 C403.921,75.5715 404.193,75.0225 404.332,74.3395 C404.471,73.6465 404.54,72.7875 404.54,71.7635 Z" id="Shape" fill="#FFFFFF" fill-rule="nonzero"></path>
            <path d="M366.4,21.6915 L370.416,21.6915 L370.416,22.6035 L365.28,22.6035 L365.28,11.4195 L366.4,11.4195 L366.4,21.6915 Z M372.574,12.2195 C372.35,12.2195 372.158,12.1395 371.998,11.9795 C371.838,11.8195 371.758,11.6222 371.758,11.3875 C371.758,11.1528 371.838,10.9608 371.998,10.8115 C372.158,10.6515 372.35,10.5715 372.574,10.5715 C372.798,10.5715 372.99,10.6515 373.15,10.8115 C373.31,10.9608 373.39,11.1528 373.39,11.3875 C373.39,11.6222 373.31,11.8195 373.15,11.9795 C372.99,12.1395 372.798,12.2195 372.574,12.2195 Z M373.134,13.8675 L373.134,22.6035 L372.014,22.6035 L372.014,13.8675 L373.134,13.8675 Z M386.071,13.7075 C387.095,13.7075 387.927,14.0328 388.567,14.6835 C389.217,15.3235 389.543,16.2568 389.543,17.4835 L389.543,22.6035 L388.439,22.6035 L388.439,17.6115 C388.439,16.6622 388.209,15.9368 387.751,15.4355 C387.292,14.9342 386.668,14.6835 385.879,14.6835 C385.057,14.6835 384.401,14.9555 383.911,15.4995 C383.42,16.0435 383.175,16.8328 383.175,17.8675 L383.175,22.6035 L382.071,22.6035 L382.071,17.6115 C382.071,16.6622 381.841,15.9368 381.383,15.4355 C380.924,14.9342 380.295,14.6835 379.495,14.6835 C378.673,14.6835 378.017,14.9555 377.527,15.4995 C377.036,16.0435 376.791,16.8328 376.791,17.8675 L376.791,22.6035 L375.671,22.6035 L375.671,13.8675 L376.791,13.8675 L376.791,15.3715 C377.068,14.8275 377.463,14.4168 377.975,14.1395 C378.487,13.8515 379.057,13.7075 379.687,13.7075 C380.444,13.7075 381.105,13.8888 381.671,14.2515 C382.247,14.6142 382.663,15.1475 382.919,15.8515 C383.153,15.1582 383.553,14.6302 384.119,14.2675 C384.695,13.8942 385.345,13.7075 386.071,13.7075 Z M392.59,12.2195 C392.366,12.2195 392.174,12.1395 392.014,11.9795 C391.854,11.8195 391.774,11.6222 391.774,11.3875 C391.774,11.1528 391.854,10.9608 392.014,10.8115 C392.174,10.6515 392.366,10.5715 392.59,10.5715 C392.814,10.5715 393.006,10.6515 393.166,10.8115 C393.326,10.9608 393.406,11.1528 393.406,11.3875 C393.406,11.6222 393.326,11.8195 393.166,11.9795 C393.006,12.1395 392.814,12.2195 392.59,12.2195 Z M393.15,13.8675 L393.15,22.6035 L392.03,22.6035 L392.03,13.8675 L393.15,13.8675 Z M397.142,14.8115 L397.142,20.2355 C397.142,20.7688 397.244,21.1368 397.446,21.3395 C397.649,21.5422 398.006,21.6435 398.518,21.6435 L399.542,21.6435 L399.542,22.6035 L398.342,22.6035 C397.553,22.6035 396.966,22.4222 396.582,22.0595 C396.198,21.6862 396.006,21.0782 396.006,20.2355 L396.006,14.8115 L394.79,14.8115 L394.79,13.8675 L396.006,13.8675 L396.006,11.6755 L397.142,11.6755 L397.142,13.8675 L399.542,13.8675 L399.542,14.8115 L397.142,14.8115 Z" id="Shape" fill="#FFFFFF" fill-rule="nonzero"></path>
            <path d="M184.824,309.4195 L184.824,310.3475 L181.72,310.3475 L181.72,320.6035 L180.6,320.6035 L180.6,310.3475 L177.48,310.3475 L177.48,309.4195 L184.824,309.4195 Z M190.753,311.7075 C191.414,311.7075 192.006,311.8465 192.529,312.1235 C193.062,312.4005 193.478,312.8275 193.777,313.4035 C194.086,313.9685 194.241,314.6625 194.241,315.4835 L194.241,320.6035 L193.137,320.6035 L193.137,315.6115 C193.137,314.6625 192.897,313.9365 192.417,313.4355 C191.947,312.9345 191.302,312.6835 190.481,312.6835 C189.638,312.6835 188.966,312.9505 188.465,313.4835 C187.963,314.0165 187.713,314.8005 187.713,315.8355 L187.713,320.6035 L186.593,320.6035 L186.593,308.7635 L187.713,308.7635 L187.713,313.3555 C187.99,312.8325 188.395,312.4275 188.929,312.1395 C189.473,311.8515 190.081,311.7075 190.753,311.7075 Z M204.286,311.8675 L204.286,320.6035 L203.166,320.6035 L203.166,319.0675 C202.91,319.6115 202.515,320.0275 201.982,320.3155 C201.448,320.6035 200.851,320.7475 200.19,320.7475 C199.144,320.7475 198.291,320.4275 197.63,319.7875 C196.968,319.1365 196.638,318.1985 196.638,316.9715 L196.638,311.8675 L197.742,311.8675 L197.742,316.8435 C197.742,317.7925 197.976,318.5185 198.446,319.0195 C198.926,319.5205 199.576,319.7715 200.398,319.7715 C201.24,319.7715 201.912,319.5045 202.414,318.9715 C202.915,318.4385 203.166,317.6545 203.166,316.6195 L203.166,311.8675 L204.286,311.8675 Z" id="Shape" fill="#FFFFFF" fill-rule="nonzero"></path>
            <line x1="194" y1="5.6035" x2="194" y2="302.6035" id="Path" stroke="#FFFFFF" opacity="0.3" stroke-linecap="round" stroke-linejoin="round" stroke-dasharray="4.37"></line>
            <rect id="Rectangle" fill="#16CB9C" fill-rule="nonzero" x="157.227" y="0" width="75.7545" height="43.7045" rx="4.37045"></rect>
            <path d="M173.882,16.146 C173.245,16.146 172.67,16.01 172.157,15.738 C171.652,15.4661 171.252,15.0776 170.957,14.5726 C170.669,14.0676 170.526,13.4771 170.526,12.8011 C170.526,12.1329 170.673,11.5463 170.968,11.0413 C171.264,10.5285 171.668,10.1361 172.18,9.8642 C172.693,9.5922 173.268,9.4562 173.905,9.4562 C174.542,9.4562 175.117,9.5922 175.63,9.8642 C176.143,10.1361 176.547,10.5285 176.842,11.0413 C177.138,11.5463 177.285,12.1329 177.285,12.8011 C177.285,13.4693 177.134,14.0598 176.831,14.5726 C176.535,15.0776 176.127,15.4661 175.607,15.738 C175.094,16.01 174.519,16.146 173.882,16.146 Z M173.882,14.4211 C174.263,14.4211 174.585,14.2812 174.849,14.0015 C175.121,13.7218 175.257,13.3217 175.257,12.8011 C175.257,12.2805 175.125,11.8804 174.861,11.6007 C174.605,11.321 174.286,11.1811 173.905,11.1811 C173.517,11.1811 173.194,11.321 172.938,11.6007 C172.682,11.8726 172.553,12.2728 172.553,12.8011 C172.553,13.3217 172.678,13.7218 172.926,14.0015 C173.183,14.2812 173.501,14.4211 173.882,14.4211 Z M182.305,9.4796 C183.066,9.4796 183.672,9.7282 184.123,10.2254 C184.582,10.7149 184.811,11.3909 184.811,12.2533 L184.811,16.0527 L182.829,16.0527 L182.829,12.5214 C182.829,12.0863 182.717,11.7483 182.491,11.5074 C182.266,11.2666 181.963,11.1462 181.582,11.1462 C181.202,11.1462 180.899,11.2666 180.673,11.5074 C180.448,11.7483 180.335,12.0863 180.335,12.5214 L180.335,16.0527 L178.342,16.0527 L178.342,9.5495 L180.335,9.5495 L180.335,10.4119 C180.537,10.1244 180.809,9.8991 181.151,9.736 C181.493,9.565 181.878,9.4796 182.305,9.4796 Z M193.793,7.8712 L193.793,13.4421 C193.793,14.3045 193.549,14.9688 193.059,15.435 C192.577,15.9012 191.925,16.1343 191.101,16.1343 C190.239,16.1343 189.547,15.8896 189.027,15.4001 C188.506,14.9106 188.246,14.2152 188.246,13.3139 L190.227,13.3139 C190.227,13.6558 190.297,13.9161 190.437,14.0948 C190.577,14.2657 190.779,14.3512 191.043,14.3512 C191.284,14.3512 191.47,14.2735 191.602,14.1181 C191.734,13.9627 191.8,13.7374 191.8,13.4421 L191.8,7.8712 L193.793,7.8712 Z M195.007,12.7894 C195.007,12.1213 195.131,11.5346 195.38,11.0296 C195.636,10.5246 195.982,10.1361 196.417,9.8642 C196.852,9.5922 197.338,9.4562 197.874,9.4562 C198.332,9.4562 198.732,9.5495 199.074,9.736 C199.424,9.9224 199.692,10.1672 199.879,10.4702 L199.879,9.5495 L201.871,9.5495 L201.871,16.0527 L199.879,16.0527 L199.879,15.132 C199.684,15.435 199.412,15.6798 199.063,15.8662 C198.721,16.0527 198.321,16.146 197.862,16.146 C197.334,16.146 196.852,16.01 196.417,15.738 C195.982,15.4583 195.636,15.066 195.38,14.5609 C195.131,14.0481 195.007,13.4576 195.007,12.7894 Z M199.879,12.8011 C199.879,12.3038 199.739,11.9115 199.459,11.624 C199.187,11.3365 198.853,11.1928 198.457,11.1928 C198.06,11.1928 197.722,11.3365 197.443,11.624 C197.171,11.9037 197.035,12.2922 197.035,12.7894 C197.035,13.2867 197.171,13.683 197.443,13.9782 C197.722,14.2657 198.06,14.4094 198.457,14.4094 C198.853,14.4094 199.187,14.2657 199.459,13.9782 C199.739,13.6907 199.879,13.2984 199.879,12.8011 Z M207.276,9.4796 C208.037,9.4796 208.643,9.7282 209.094,10.2254 C209.552,10.7149 209.781,11.3909 209.781,12.2533 L209.781,16.0527 L207.8,16.0527 L207.8,12.5214 C207.8,12.0863 207.688,11.7483 207.462,11.5074 C207.237,11.2666 206.934,11.1462 206.553,11.1462 C206.172,11.1462 205.869,11.2666 205.644,11.5074 C205.419,11.7483 205.306,12.0863 205.306,12.5214 L205.306,16.0527 L203.313,16.0527 L203.313,9.5495 L205.306,9.5495 L205.306,10.4119 C205.508,10.1244 205.78,9.8991 206.122,9.736 C206.464,9.565 206.848,9.4796 207.276,9.4796 Z M213.368,14.456 C213.632,14.2463 213.753,14.1491 213.729,14.1647 C214.491,13.5353 215.089,13.0187 215.524,12.6146 C215.967,12.2106 216.34,11.7872 216.643,11.3443 C216.946,10.9014 217.098,10.4702 217.098,10.0506 C217.098,9.7321 217.024,9.4834 216.876,9.3047 C216.728,9.126 216.507,9.0367 216.212,9.0367 C215.917,9.0367 215.683,9.1493 215.513,9.3747 C215.349,9.5922 215.268,9.903 215.268,10.307 L213.345,10.307 C213.36,9.6466 213.5,9.095 213.764,8.6521 C214.036,8.2092 214.39,7.8829 214.825,7.6731 C215.268,7.4633 215.757,7.3584 216.293,7.3584 C217.218,7.3584 217.913,7.5954 218.38,8.0694 C218.853,8.5433 219.09,9.161 219.09,9.9224 C219.09,10.7538 218.807,11.5269 218.24,12.2417 C217.673,12.9487 216.95,13.6402 216.072,14.3162 L219.219,14.3162 L219.219,15.9362 L213.368,15.9362 L213.368,14.456 Z" id="Shape" fill="#FFFFFF" fill-rule="nonzero"></path>
            <path d="M184.666,32.1052 C184.666,32.6394 184.525,33.1347 184.244,33.5912 C183.972,34.0379 183.564,34.407 183.02,34.6984 C182.486,34.98 181.85,35.1354 181.112,35.1645 L181.112,36.3445 L180.179,36.3445 L180.179,35.15 C179.15,35.0626 178.319,34.7566 177.688,34.2322 C177.057,33.698 176.722,32.9745 176.683,32.0615 L179.334,32.0615 C179.393,32.6442 179.674,33.0182 180.179,33.1833 L180.179,30.8815 C179.422,30.6873 178.815,30.4979 178.358,30.3133 C177.911,30.1288 177.518,29.8326 177.178,29.4247 C176.838,29.0168 176.668,28.4583 176.668,27.7493 C176.668,26.8655 176.994,26.1566 177.644,25.6224 C178.305,25.0882 179.15,24.7871 180.179,24.7192 L180.179,23.5391 L181.112,23.5391 L181.112,24.7192 C182.131,24.7969 182.938,25.0931 183.53,25.6078 C184.122,26.1226 184.453,26.8364 184.521,27.7493 L181.855,27.7493 C181.796,27.2249 181.549,26.885 181.112,26.7296 L181.112,28.9876 C181.918,29.211 182.539,29.4101 182.976,29.5849 C183.413,29.7597 183.802,30.0511 184.142,30.459 C184.491,30.8572 184.666,31.406 184.666,32.1052 Z M179.305,27.6328 C179.305,27.8756 179.378,28.0796 179.524,28.2447 C179.679,28.4098 179.898,28.5554 180.179,28.6817 L180.179,26.6567 C179.907,26.7053 179.694,26.8121 179.538,26.9772 C179.383,27.1326 179.305,27.3511 179.305,27.6328 Z M181.112,33.227 C181.403,33.1784 181.631,33.0619 181.796,32.8773 C181.971,32.6928 182.059,32.4646 182.059,32.1926 C182.059,31.9401 181.976,31.7362 181.811,31.5808 C181.656,31.4157 181.422,31.2748 181.112,31.1583 L181.112,33.227 Z M186.184,33.0813 C186.515,32.8191 186.665,32.6977 186.636,32.7171 C187.588,31.9304 188.336,31.2846 188.879,30.7795 C189.433,30.2745 189.899,29.7452 190.278,29.1916 C190.657,28.638 190.846,28.099 190.846,27.5745 C190.846,27.1763 190.754,26.8655 190.569,26.6422 C190.385,26.4188 190.108,26.3071 189.739,26.3071 C189.37,26.3071 189.079,26.4479 188.865,26.7296 C188.661,27.0015 188.559,27.39 188.559,27.895 L186.155,27.895 C186.175,27.0695 186.349,26.3799 186.68,25.8263 C187.02,25.2728 187.461,24.8648 188.005,24.6026 C188.559,24.3404 189.171,24.2093 189.841,24.2093 C190.997,24.2093 191.866,24.5055 192.449,25.0979 C193.041,25.6904 193.337,26.4625 193.337,27.4143 C193.337,28.4535 192.983,29.4198 192.274,30.3133 C191.565,31.1971 190.662,32.0615 189.564,32.9065 L193.498,32.9065 L193.498,34.9315 L186.184,34.9315 L186.184,33.0813 Z M199.853,27.3123 C199.776,26.9529 199.64,26.6859 199.446,26.511 C199.251,26.3265 198.975,26.2342 198.615,26.2342 C198.062,26.2342 197.663,26.4771 197.421,26.9627 C197.178,27.4386 197.052,28.1961 197.042,29.2353 C197.255,28.8954 197.561,28.6283 197.96,28.434 C198.368,28.2398 198.814,28.1427 199.3,28.1427 C200.252,28.1427 201.014,28.4438 201.587,29.0459 C202.17,29.6481 202.461,30.4882 202.461,31.5662 C202.461,32.2752 202.316,32.8968 202.024,33.4309 C201.742,33.9651 201.325,34.3827 200.771,34.6838 C200.227,34.9849 199.582,35.1354 198.834,35.1354 C197.338,35.1354 196.299,34.6692 195.716,33.7369 C195.133,32.7948 194.842,31.4448 194.842,29.6869 C194.842,27.8416 195.148,26.4722 195.76,25.5787 C196.381,24.6755 197.372,24.2238 198.732,24.2238 C199.46,24.2238 200.072,24.3695 200.567,24.6609 C201.072,24.9425 201.451,25.3165 201.704,25.7826 C201.966,26.2488 202.121,26.7587 202.17,27.3123 L199.853,27.3123 Z M198.703,30.1094 C198.285,30.1094 197.935,30.2356 197.654,30.4882 C197.382,30.731 197.246,31.0806 197.246,31.5371 C197.246,32.0032 197.372,32.3675 197.625,32.6297 C197.887,32.8919 198.256,33.023 198.732,33.023 C199.159,33.023 199.494,32.8968 199.737,32.6442 C199.989,32.382 200.116,32.0275 200.116,31.5808 C200.116,31.1243 199.994,30.765 199.752,30.5027 C199.509,30.2405 199.159,30.1094 198.703,30.1094 Z M210.659,26.3071 L207.002,35.0771 L204.453,35.0771 L208.153,26.5839 L203.623,26.5839 L203.623,24.4569 L210.659,24.4569 L210.659,26.3071 Z" id="Shape" fill="#FFFFFF" fill-rule="nonzero"></path>
            <circle id="Oval" fill="#16CB9C" fill-rule="nonzero" cx="195.01" cy="73.6605" r="5.72443"></circle>
        </g>
    </g>
</svg>