<svg width="36" height="48" viewBox="0 0 36 48" fill="none" xmlns="http://www.w3.org/2000/svg">
<path d="M33.75 0H2.25C0.9375 0 0 1.03125 0 2.25V3.75C0 5.0625 0.9375 6 2.25 6C2.25 14.5312 7.03125 21.75 13.5 24C7.03125 26.3438 2.25 33.5625 2.25 42C0.9375 42 0 43.0312 0 44.25V45.75C0 47.0625 0.9375 48 2.25 48H33.75C34.9688 48 36 47.0625 36 45.75V44.25C36 43.0312 34.9688 42 33.75 42C33.75 33.5625 28.875 26.3438 22.4062 24C28.875 21.75 33.75 14.5312 33.75 6C34.9688 6 36 5.0625 36 3.75V2.25C36 1.03125 34.9688 0 33.75 0ZM26.625 36H9.28125C10.875 31.6875 14.1562 28.5 18 28.5C21.75 28.5 25.0312 31.6875 26.625 36ZM26.625 12H9.28125C8.53125 10.2188 8.25 8.15625 8.25 6H27.75C27.75 8.15625 27.375 10.2188 26.625 12Z" fill="white"/>
</svg>
