<svg width="106" height="25" viewBox="0 0 106 25" fill="none" xmlns="http://www.w3.org/2000/svg">
<path d="M12.5262 0C5.5916 0 0 5.54586 0 12.5396C0 19.462 5.66822 25.0178 12.5463 25C19.4244 24.9821 24.9717 19.5016 24.9999 12.5218C25.0281 5.56567 19.4164 0 12.5262 0ZM20.7412 12.4623C20.7129 12.5237 20.6887 12.5871 20.6645 12.6505C20.598 12.8228 20.5395 12.9951 20.4911 13.1694C20.4911 13.2051 20.471 13.2388 20.4629 13.2724C20.4367 13.3715 20.4125 13.4705 20.3923 13.5676C20.3722 13.6646 20.3601 13.724 20.3459 13.8033C20.3451 13.8078 20.3451 13.8125 20.3459 13.8171C20.3318 13.9003 20.3177 13.9835 20.3076 14.0667C20.2976 14.1499 20.2875 14.2113 20.2794 14.2826C20.2572 14.4806 20.2431 14.6629 20.231 14.857C20.231 14.9322 20.231 15.0075 20.231 15.0828C20.231 15.158 20.231 15.1897 20.231 15.2432C20.231 15.2967 20.231 15.3462 20.231 15.3977C20.231 15.4492 20.231 15.5344 20.231 15.5958C20.2315 15.6864 20.2268 15.777 20.2169 15.8671C20.219 15.9021 20.219 15.9371 20.2169 15.9721C20.2143 16.0027 20.2096 16.0332 20.2028 16.0632C20.2028 16.1068 20.1887 16.1503 20.1786 16.1919C20.1803 16.1964 20.1803 16.2013 20.1786 16.2058C20.1786 16.2494 20.1584 16.291 20.1463 16.3326L20.1282 16.392C20.0976 16.481 20.0591 16.5671 20.0132 16.6495C19.9971 16.6792 19.9789 16.7089 19.9608 16.7366C19.953 16.7504 19.9443 16.7637 19.9346 16.7762C19.9167 16.8031 19.8972 16.8289 19.8761 16.8535C19.8699 16.8624 19.8624 16.8704 19.8539 16.8772C19.8312 16.9062 19.8063 16.9333 19.7793 16.9585C19.7492 16.9884 19.7176 17.0168 19.6845 17.0436C19.6164 17.0975 19.5436 17.1452 19.4668 17.1862C19.4285 17.206 19.3881 17.2258 19.3458 17.2437C19.3064 17.2612 19.266 17.2764 19.2248 17.2892L19.1986 17.2991L19.0836 17.3308C18.973 17.3592 18.8605 17.3797 18.7469 17.3922C18.6864 17.3922 18.6259 17.4041 18.5634 17.4061C18.6624 17.301 18.7553 17.1906 18.8417 17.0753C18.8639 17.0456 18.886 17.0159 18.9062 16.9842C19.023 16.82 19.123 16.6449 19.2046 16.4613C19.2369 16.39 19.2671 16.3147 19.2934 16.2415C19.3196 16.1682 19.3458 16.0889 19.368 16.0117C19.3901 15.9345 19.3962 15.9067 19.4083 15.8532C19.4305 15.7542 19.4486 15.6552 19.4627 15.5482C19.4627 15.5046 19.4748 15.4611 19.4789 15.4175C19.4789 15.3303 19.495 15.2392 19.499 15.1481C19.499 15.1026 19.499 15.057 19.499 15.0095C19.4396 15.0735 19.3887 15.1447 19.3478 15.2214C19.2349 15.4393 19.2127 15.6611 19.1179 15.8513C18.8659 16.3858 18.5065 16.8648 18.0613 17.2595L17.9867 17.3229C17.9663 17.3405 17.944 17.3557 17.9202 17.3685C17.9025 17.3814 17.8827 17.3915 17.8617 17.3982C17.8531 17.4008 17.844 17.4008 17.8355 17.3982C17.8177 17.4032 17.7988 17.4032 17.781 17.3982C17.7738 17.4001 17.7661 17.4001 17.7588 17.3982C17.7504 17.3955 17.7427 17.3907 17.7367 17.3843C17.7161 17.3661 17.6978 17.3454 17.6822 17.3229C17.661 17.2937 17.6428 17.2625 17.6278 17.2298C17.6278 17.212 17.6096 17.1922 17.5995 17.1704C17.5491 17.0615 17.4987 16.9525 17.4463 16.8475C17.3939 16.7426 17.3394 16.6376 17.283 16.5366C17.2063 16.3999 17.1277 16.2692 17.047 16.1404C17.0067 16.0751 16.9644 16.0117 16.922 15.9424C16.733 15.6657 16.5262 15.401 16.303 15.1501C16.2284 15.0689 16.1537 14.9877 16.0771 14.9085L15.9985 14.8312L15.9198 14.754C15.8573 14.6926 15.7948 14.6332 15.7303 14.5757C15.6658 14.5183 15.5992 14.4589 15.5287 14.4034C15.4581 14.3479 15.3956 14.2925 15.327 14.237C15.2584 14.1816 15.1899 14.1301 15.1254 14.0786L14.9136 13.9241C14.7725 13.827 14.6293 13.726 14.4801 13.6428L14.2946 13.5319C14.2038 13.4784 14.1131 13.4269 14.0183 13.3774C13.9236 13.3279 13.8832 13.3041 13.8167 13.2705C13.6634 13.1912 13.5062 13.116 13.3469 13.0447L13.1734 12.9694C12.879 12.8387 12.5685 12.7218 12.26 12.6149C11.7014 12.4168 11.1449 12.191 10.3867 12.2068C12.2015 12.9337 13.7401 13.8409 15.0588 15.0907L15.2141 15.2432C15.3169 15.3442 15.4157 15.4413 15.5125 15.5542C15.6093 15.6671 15.6537 15.7146 15.7142 15.7958L15.9158 16.0454C15.9823 16.1305 16.0449 16.2157 16.1074 16.3029C16.1699 16.39 16.1921 16.4177 16.2304 16.4772C16.2687 16.5366 16.3514 16.6534 16.4078 16.7426C16.4844 16.8614 16.5591 16.9822 16.6316 17.105C16.7748 17.3506 16.9099 17.6022 17.0349 17.8597L17.0712 17.9349C17.0712 17.9607 17.0914 17.9844 17.0995 18.0082C17.1075 18.032 17.1136 18.0498 17.1196 18.0696C17.1269 18.0956 17.1323 18.1221 17.1358 18.1488C17.1462 18.2269 17.1414 18.3062 17.1216 18.3826C17.1172 18.3993 17.1118 18.4159 17.1055 18.4321C17.0985 18.4545 17.0898 18.4764 17.0793 18.4974C17.0246 18.5944 16.9567 18.6837 16.8777 18.7628C16.8151 18.8302 16.7506 18.8955 16.6861 18.9609C16.5586 19.0852 16.4239 19.2023 16.2828 19.3115C16.2384 19.3471 16.1921 19.3808 16.1437 19.4145C16.0449 19.4838 15.942 19.5492 15.8432 19.6125L15.7162 19.6839L15.571 19.7591L15.454 19.8146L15.3572 19.8562C15.2154 19.9168 15.0699 19.969 14.9217 20.0126C14.8856 20.0259 14.8485 20.0365 14.8108 20.0443C14.7362 20.0661 14.6636 20.0839 14.587 20.0998C14.5104 20.1156 14.4377 20.1315 14.3611 20.1434C14.3238 20.1512 14.2861 20.1572 14.2482 20.1612C14.1353 20.177 14.0204 20.1909 13.9034 20.1988C13.6647 20.2184 13.4249 20.223 13.1855 20.2127L12.9315 20.1988C12.7601 20.1869 12.5887 20.1691 12.4153 20.1453L12.1551 20.1077C11.9817 20.08 11.8083 20.0483 11.6349 20.0126L11.3728 19.9572C8.98327 19.4283 7.47094 17.8002 6.53329 15.6869C5.19235 12.6584 5.09555 9.45174 5.36374 6.1163C6.08361 6.77388 6.71274 7.37996 7.38019 7.94841C7.46891 8.02566 7.55966 8.09894 7.65241 8.17223L7.70283 8.20986C7.88431 8.35247 8.0678 8.48517 8.25735 8.60599L8.32188 8.64957L8.5578 8.79812C8.67878 8.87338 8.80179 8.94667 8.92681 9.01401C9.05183 9.08135 9.12845 9.13087 9.2454 9.18434C9.36235 9.23782 9.4652 9.29328 9.57812 9.34676L9.9068 9.49333C10.0217 9.54284 10.1387 9.59236 10.2577 9.63792C10.3766 9.68347 10.4593 9.71517 10.5581 9.75082C10.9211 9.88352 11.2941 10.0004 11.6732 10.1054C11.7942 10.1384 11.9152 10.1701 12.0362 10.2004C12.2378 10.2499 12.4395 10.2955 12.625 10.3391C12.6754 10.351 12.7258 10.3648 12.7762 10.3747L12.9194 10.4064C13.1593 10.4599 13.3932 10.5253 13.6231 10.6045C13.8066 10.6659 13.9881 10.7312 14.1635 10.8026C14.3389 10.8739 14.5265 10.957 14.7039 11.0442L14.9318 11.1611L14.956 11.1749L15.1233 11.2898C15.1415 11.2985 15.159 11.3084 15.1758 11.3195C15.2484 11.3611 15.3189 11.4047 15.3895 11.4502C15.4601 11.4958 15.5488 11.5532 15.6295 11.6087C15.8758 11.7759 16.1115 11.9578 16.3352 12.1534C16.3998 12.2049 16.4623 12.2603 16.5248 12.3197C16.5873 12.3792 16.678 12.4604 16.7526 12.5337C16.8486 12.6265 16.9395 12.7244 17.0249 12.8268C17.0874 12.9021 17.1499 12.9793 17.2084 13.0605C17.2668 13.1417 17.3213 13.2209 17.3757 13.3061C17.4302 13.3913 17.4463 13.419 17.4786 13.4764C17.5431 13.5933 17.6056 13.7121 17.6621 13.8369L17.8274 13.6983C17.9343 13.6111 18.029 13.5299 18.148 13.4527L18.3113 13.3378C18.3819 13.2903 18.4545 13.2427 18.5291 13.1992C18.6037 13.1556 18.6461 13.1278 18.7066 13.0962C18.7671 13.0645 18.7993 13.0427 18.8477 13.0189C18.8961 12.9951 18.9284 12.9753 18.9707 12.9555C19.0131 12.9357 19.0655 12.908 19.1139 12.8882C19.1623 12.8684 19.2026 12.8466 19.249 12.8288L19.2833 12.8129L19.4405 12.7495L19.4789 12.7357L19.6603 12.6723C19.7269 12.6485 19.7934 12.6287 19.862 12.6089L20.0636 12.5535C20.2727 12.5013 20.4849 12.4616 20.6988 12.4346L20.7734 12.391L20.7412 12.4623Z" fill="#7CC475"/>
<path d="M88.9274 9.45089C88.7373 10.018 88.5142 10.5792 88.3282 11.1444C87.8221 12.597 87.3076 14.0439 86.8283 15.5023C86.7085 15.8674 86.539 16.0014 86.1258 15.9956C84.9482 15.9781 84.9502 15.9956 84.5618 14.9197C84.2436 14.038 83.9213 13.1583 83.599 12.2708C83.2974 12.3504 83.3242 12.5912 83.2602 12.7582C82.9007 13.6885 82.5515 14.6226 82.2272 15.5645C82.2032 15.6978 82.1253 15.8171 82.0097 15.8975C81.8942 15.9779 81.7499 16.0131 81.6073 15.9956C80.3677 15.9956 80.3677 16.0112 79.9979 14.9178L78 9.13045C78.0679 9.11312 78.1369 9.10014 78.2066 9.09161C78.7996 9.09161 79.4917 8.92459 79.9566 9.15764C80.4214 9.39068 80.3698 10.1461 80.5599 10.6627C80.816 11.3483 81.0082 12.0552 81.2644 12.8611C81.6445 12.2785 81.754 11.7192 81.9462 11.1929C82.1528 10.6317 82.3594 10.0665 82.5061 9.49167C82.6094 9.12074 82.7974 8.99256 83.2127 9.00033C84.3573 9.01781 84.3655 9.00033 84.7168 10.016C85.0349 10.9404 85.3366 11.8688 85.6796 12.9116C86.1382 12.1057 86.2374 11.3172 86.5308 10.5948C86.5562 10.5188 86.5776 10.4417 86.5948 10.3637C86.9853 9.02752 87.2807 8.86633 88.7642 9.07996C89.1278 9.13628 88.9749 9.31495 88.9274 9.45089Z" fill="white"/>
<path d="M55 15.4905C55 15.8854 54.8969 16.002 54.5074 16C53.1918 16 53.1918 16.0138 53.1918 14.6493V12.2561L53.0447 12.2324L51.4465 14.7323C50.9253 13.9049 50.425 13.1052 49.919 12.3035L49.7586 12.343V15.0285C49.7586 15.9901 49.7586 15.9901 48.8554 15.9901C48.0115 15.9901 48.0115 15.9901 48.0115 15.1331C48.0115 13.2908 48.0286 11.4485 48 9.60421C48 9.13425 48.1528 9.08883 48.5614 9.03157C49.5753 8.88545 50.2321 9.24088 50.6121 10.2163C50.7587 10.5243 50.9312 10.8183 51.1277 11.095C51.4924 11.7032 51.5096 11.7052 51.8513 11.1247C52.1549 10.6053 52.4643 10.0919 52.7411 9.55879C52.8123 9.38675 52.9348 9.24277 53.0908 9.1479C53.2468 9.05304 53.428 9.01227 53.608 9.03157C54.9885 9.06514 54.9885 9.04145 54.9885 10.4414C54.9924 12.1297 54.9809 13.8101 55 15.4905Z" fill="white"/>
<path d="M75 15.4151C75 15.809 74.9317 15.931 74.5221 15.9822C73.7195 16.0846 73.2306 15.74 72.797 15.0646C72.2048 14.1451 71.5332 13.2925 70.8967 12.3985L70.7472 12.4615C70.7472 13.4658 70.7343 14.472 70.7472 15.4781C70.7472 15.8326 70.679 15.9645 70.3118 15.9684C69 15.9842 69 16.0019 69 14.6019C69 12.9262 69.0129 11.2545 69 9.57292C69 9.14957 69.1181 9.07475 69.5018 9.02158C70.3542 8.90738 70.8948 9.24802 71.3469 10.0061C71.8782 10.8705 72.5148 11.6621 73.1052 12.4852L73.2564 12.4458V9.886C73.2564 9.04324 73.2564 9.04324 74.0129 9.04324C74.9852 9.04324 74.9852 9.04324 74.9852 10.0829C74.9926 11.861 74.9815 13.639 75 15.4151Z" fill="white"/>
<path d="M61.4718 9.00028C61.0167 8.99441 60.5651 9.08075 60.1431 9.25426C59.7212 9.42778 59.3375 9.685 59.0144 10.0109C58.6913 10.3368 58.4352 10.7249 58.2611 11.1525C58.087 11.5802 57.9984 12.0387 58.0005 12.5016C57.9927 12.9651 58.0772 13.4255 58.2488 13.8551C58.4204 14.2846 58.6757 14.6745 58.9992 15.0012C59.3228 15.3278 59.7079 15.5846 60.1315 15.7561C60.5551 15.9276 61.0084 16.0102 61.4642 15.999C62.3845 16.0094 63.2717 15.6505 63.9335 15.0001C64.5953 14.3497 64.9784 13.4603 64.9998 12.5246C65.0224 10.5703 63.4597 9.00797 61.4718 9.00028ZM62.6358 13.8775C62.6188 13.8967 62.5999 13.914 62.5791 13.9332C62.5004 14.0054 62.4149 14.0698 62.324 14.1254C62.2788 14.153 62.2321 14.178 62.1842 14.2003C61.9864 14.2914 61.772 14.3392 61.5549 14.3406C61.2568 14.3424 60.9636 14.2624 60.7065 14.1088C60.4494 13.9552 60.2379 13.7339 60.0942 13.4682C59.9324 13.1701 59.8497 12.8343 59.8542 12.4939C59.8548 12.3707 59.8662 12.2479 59.8883 12.1268C59.8977 12.0677 59.9109 12.0093 59.9279 11.952C59.943 11.8962 59.9619 11.8405 59.9827 11.7848C59.9987 11.7396 60.017 11.6954 60.0375 11.6522C60.0375 11.6349 60.0545 11.6195 60.0621 11.6022C60.0945 11.5354 60.1318 11.4712 60.1736 11.4101C60.2187 11.3424 60.2686 11.2782 60.3229 11.2179C60.3777 11.157 60.4364 11.0999 60.4986 11.0469C60.5307 11.02 60.5647 10.995 60.5988 10.97C60.8525 10.7882 61.1557 10.6914 61.4661 10.6933C61.699 10.6933 61.9296 10.7403 62.1445 10.8316C62.1957 10.8535 62.2456 10.8785 62.2938 10.9066L62.3656 10.9489C62.4323 10.993 62.4955 11.0425 62.5545 11.0968L62.615 11.1526C62.6359 11.1709 62.6555 11.1908 62.6736 11.2121C62.7692 11.3142 62.8511 11.4285 62.9174 11.5523C62.9593 11.6274 62.9953 11.7058 63.0251 11.7867C63.1139 12.026 63.1568 12.2804 63.1517 12.5361C63.1572 13.0344 62.9722 13.5153 62.6358 13.8775Z" fill="white"/>
<path d="M43.7225 15.9894C42.3618 15.9894 41.0011 15.9695 39.6425 15.9993C39.1675 16.0093 38.9878 15.9158 39.0006 15.4367C39.0434 14.4587 39.0135 13.4807 39.0135 12.5027C39.0135 11.4829 39.0263 10.4631 39.0135 9.44532C39.0135 9.09346 39.1333 8.99804 39.5034 9.00003C41.1694 9.01593 42.8361 9.01593 44.5035 9.00003C44.8693 9.00003 44.9314 9.11533 44.9314 9.41947C44.9677 10.6818 44.9784 10.6818 43.6284 10.6818C42.948 10.6818 42.2677 10.7096 41.5895 10.6718C41.0974 10.644 41.031 10.8428 41.0139 11.2404C40.9947 11.7055 41.2514 11.7115 41.6151 11.7055C42.426 11.6916 43.239 11.7254 44.0499 11.6916C44.4949 11.6717 44.6019 11.8149 44.5998 12.2065C44.5998 13.2521 44.5997 13.2521 43.4572 13.2521C42.7983 13.2521 42.1393 13.2759 41.4825 13.2521C40.999 13.2302 41.0289 13.4946 41.0268 13.7948C41.0246 14.0949 41.0268 14.3454 41.491 14.3315C42.4987 14.3037 43.5086 14.3315 44.5185 14.3156C44.8993 14.3156 44.9891 14.4229 44.9934 14.7648C45.0191 15.9894 45.0341 15.9894 43.7225 15.9894Z" fill="white"/>
<path d="M97.9045 15.5185C97.0894 13.7396 96.3143 11.945 95.5287 10.1543C95.019 8.99771 95.0211 9.01141 93.5847 9.00554C93.4272 8.98575 93.2672 9.01937 93.1342 9.10024C93.0011 9.1811 92.9038 9.30381 92.8602 9.44587C92.2747 10.7943 91.6702 12.1368 91.0763 13.4832C90.7224 14.2876 90.377 15.0939 90 15.9667C90.4209 15.9418 90.8433 15.9451 91.2637 15.9765C91.9208 16.0704 92.2831 15.8336 92.3989 15.2465C92.4874 14.812 92.7528 14.677 93.2204 14.7083C93.7996 14.7475 94.3851 14.7279 94.9664 14.7083C95.276 14.7083 95.5203 14.7338 95.5814 15.0821C95.7204 15.8649 96.2532 16.0978 97.0557 15.9647C97.227 15.9442 97.4004 15.9442 97.5717 15.9647C97.9656 15.998 98.1151 15.9413 97.9045 15.5185ZM94.6336 13.1544C94.364 13.3736 93.8943 13.2288 93.511 13.2229H93.4541C93.4263 13.2201 93.3992 13.2128 93.3741 13.2014L93.3467 13.1838C93.3402 13.1801 93.3351 13.1746 93.332 13.1681C93.2667 13.0977 93.332 12.9724 93.3615 12.8824C93.5721 12.3873 93.7827 11.9039 94.0312 11.3168C94.206 11.7258 94.3598 12.0252 94.4525 12.3403C94.5515 12.6065 94.859 12.9744 94.6378 13.1505L94.6336 13.1544Z" fill="white"/>
<path d="M106 9.00306C105.541 9.78271 105.118 10.5027 104.693 11.2207C104.299 11.881 103.887 12.5294 103.525 13.2096C103.287 13.6571 103.438 14.1682 103.432 14.6495C103.413 16.0119 103.432 15.998 102.07 16C101.676 16 101.505 15.8986 101.572 15.4948C101.833 13.9236 101.247 12.6169 100.378 11.3679C99.8762 10.6479 99.4824 9.85034 99 9.00506C99.6911 9.00506 100.288 9.01898 100.884 9.00506C101.15 8.99511 101.225 9.16615 101.322 9.34316L102.529 11.5469C102.95 10.7891 103.358 10.093 103.728 9.37897C103.77 9.25853 103.852 9.15602 103.959 9.08786C104.066 9.0197 104.193 8.98983 104.318 9.00306C104.842 9.02096 105.366 9.00306 106 9.00306Z" fill="white"/>
<path d="M34.8686 16C33.7434 16 32.6164 15.9841 31.4913 16C31.1125 16 30.9893 15.9146 31.0007 15.5015C31.031 14.4846 31.0007 13.4657 31.0007 12.4488C31.0007 11.432 31.014 10.4627 31.0007 9.45776C31.0007 9.11615 31.0822 9.01288 31.4174 9.00692C32.8343 8.97911 32.8342 8.96521 32.8342 10.431C32.8342 11.5491 32.8532 12.6693 32.8248 13.7875C32.8248 14.2264 32.9555 14.3456 33.3551 14.3277C34.092 14.2979 34.8307 14.3376 35.5675 14.3118C35.899 14.3019 35.9899 14.4071 35.9937 14.7547C36.0183 16 36.0278 16 34.8686 16Z" fill="white"/>
<path d="M20 12.3026C19.5775 13.2996 19.488 14.3379 19.486 15.4195C19.486 16.5994 18.902 17.1697 17.8643 17.2149C18.4643 16.5721 18.7902 15.7168 18.7715 14.8335C18.5223 15.1107 18.5243 15.4234 18.4035 15.6712C18.1602 16.2019 17.8132 16.6775 17.3834 17.0694C17.1634 17.266 17.0719 17.2955 16.9317 16.975C15.9213 14.6467 14.0776 13.2662 11.7627 12.4521C11.2234 12.2554 10.6861 12.0312 9.95405 12.047C11.7063 12.7687 13.1937 13.6693 14.4669 14.9102C15.2611 15.7076 15.9108 16.6393 16.3866 17.6633C16.554 18.0094 16.5229 18.2532 16.2406 18.5619C14.7298 20.2236 12.8393 20.1784 10.9178 19.7418C8.61069 19.2168 7.15052 17.6003 6.24522 15.5021C4.95053 12.4953 4.85709 9.31157 5.11602 6C5.81106 6.65287 6.41849 7.25462 7.06291 7.819C8.56202 9.13655 10.3512 9.80909 12.2728 10.2299C13.7501 10.5472 15.1035 11.2936 16.1666 12.3773C16.536 12.7504 16.8344 13.1891 17.0466 13.6713C17.8592 12.9126 18.8838 12.4257 19.9805 12.277L20 12.3026Z" fill="white"/>
<path d="M20 12.0439L20.0738 12L20.0319 12.0778L20 12.0439Z" fill="white"/>
</svg>
