<svg width="120" height="120" viewBox="0 0 120 120" fill="none" xmlns="http://www.w3.org/2000/svg">
<path d="M60 1.13646e-08C48.1331 1.13646e-08 36.5328 3.51894 26.6658 10.1118C16.7989 16.7047 9.10851 26.0754 4.56726 37.039C0.0260002 48.0026 -1.1622 60.0665 1.15291 71.7054C3.46802 83.3443 9.18247 94.0352 17.5736 102.426C25.9648 110.818 36.6557 116.532 48.2946 118.847C59.9335 121.162 71.9975 119.974 82.961 115.433C93.9246 110.891 103.295 103.201 109.888 93.3342C116.481 83.4672 120 71.8669 120 60C120 52.1206 118.448 44.3184 115.433 37.0388C112.418 29.7592 107.998 23.1448 102.427 17.5732C96.8552 12.0017 90.2408 7.58214 82.9612 4.56692C75.6816 1.55169 67.8794 -0.000153342 60 1.13646e-08ZM88.9386 17.8568C84.5304 17.1492 80.1678 16.6891 75.8414 16.2536L64.8507 15.2692L59.3811 14.8021C57.9294 14.7291 56.496 14.4455 55.1259 13.9601C54.146 13.6648 53.2662 13.1055 52.583 12.3434C51.8998 11.5813 51.4395 10.6459 51.2526 9.63957C64.4065 7.34309 77.9365 10.2949 88.9386 17.8615V17.8568ZM28.4049 19.8198C29.8518 22.894 31.8492 25.6774 34.2984 28.0324C35.9608 29.6431 37.7674 31.098 39.6956 32.3786C41.7871 33.7151 44.0559 34.7509 46.4357 35.4556C55.0921 38.0374 63.0571 38.619 70.6917 40.1989C78.2142 41.6936 85.5218 43.9776 90.0292 48.3519C92.2586 50.4994 93.8371 53.2322 94.5833 56.2364C95.4663 59.3495 95.6494 62.6195 95.1193 65.8118C94.6238 68.6293 93.1851 71.1946 91.0393 73.0867C88.9909 74.8734 86.3611 75.8516 83.6429 75.8378C82.5475 75.8294 81.4719 75.5446 80.5158 75.0099C79.7561 74.571 79.1644 73.8914 78.8342 73.0785C78.4145 71.9915 78.2546 70.8215 78.3671 69.6617C78.4174 68.9033 78.5192 68.1491 78.6719 67.4045C78.8693 66.2882 79.0538 65.1601 79.1694 63.9702C79.4899 61.3686 79.3886 58.7322 78.8693 56.1629C78.5288 54.5908 77.9348 53.0846 77.1107 51.7033C76.222 50.2312 75.0513 48.949 73.6659 47.9304C71.3575 46.3244 68.7279 45.2387 65.9589 44.7483C63.787 44.3284 61.5945 44.0228 59.3905 43.8329C55.2731 43.4382 51.4628 43.1322 47.844 42.4316C44.3406 41.8073 40.9421 40.6945 37.7479 39.1257C34.65 37.5455 31.8373 35.4598 29.4255 32.9543C28.1774 31.66 26.9961 30.3029 25.8861 28.8883C24.8598 27.5354 23.9299 26.1119 23.1034 24.6285C24.7563 22.9044 26.5274 21.2976 28.4037 19.8198H28.4049ZM51.1872 100.7C50.2452 103.772 49.0054 106.744 47.4855 109.575C45.7812 109.147 44.1001 108.631 42.4491 108.03C42.7107 104.78 42.5597 101.511 41.9995 98.299C41.193 93.8436 39.4592 89.6075 36.9106 85.8651C34.3751 82.2626 31.22 79.1392 27.5922 76.6401C25.7697 75.329 23.8072 74.2245 21.7407 73.3471C19.64 72.4752 17.4347 71.8809 15.1804 71.5791C13.5122 71.3604 11.8294 71.2729 10.1476 71.3176C9.30245 67.6031 8.87514 63.8058 8.87356 59.9965C8.87356 58.8895 8.92144 57.7965 8.99034 56.7082C10.7964 58.1123 12.7033 59.3816 14.6958 60.5056C18.4294 62.5787 22.386 64.2217 26.4898 65.403C30.3935 66.5895 34.0462 67.4769 37.0834 68.7439C40.0019 69.9122 42.6394 71.686 44.8219 73.9484C45.9535 75.1294 46.9824 76.4045 47.8977 77.7599C48.3917 78.4313 48.8319 79.181 49.2815 79.9073C49.6961 80.5743 50.0761 81.2623 50.42 81.9684C53.1665 87.4462 53.1537 94.1384 51.1814 100.7H51.1872ZM12.6406 79.2628C13.0645 79.3211 13.4872 79.3795 13.9041 79.4566C15.4827 79.7633 17.0209 80.2499 18.4886 80.9069C19.969 81.6036 21.3659 82.4654 22.6527 83.4759C25.3604 85.4783 27.6928 87.9435 29.5423 90.7578C31.2756 93.5124 32.411 96.6004 32.875 99.8217C33.0359 101.036 33.1139 102.259 33.1085 103.484C23.8976 97.7757 16.7319 89.2964 12.6395 79.2628H12.6406ZM58.7097 111.093C59.8176 108.737 60.7671 106.309 61.5519 103.827C62.9033 99.5771 63.5733 95.1402 63.537 90.6808C63.4823 86.003 62.4221 81.3917 60.4286 77.1597C59.9381 76.1162 59.3799 75.1059 58.7575 74.1353C58.1737 73.2221 57.619 72.3066 56.9581 71.4168C55.6749 69.577 54.2385 67.8488 52.6644 66.2508C49.3983 62.9588 45.4817 60.3841 41.1646 58.691C37.0029 57.0433 33.0711 56.1839 29.5528 55.1411C26.1824 54.2294 22.9277 52.9341 19.8525 51.2806C16.8397 49.6013 14.0486 47.552 11.5441 45.1804C11.4157 45.0636 11.2943 44.9317 11.167 44.8102C12.4736 40.6203 14.3163 36.6169 16.6494 32.8994C18.2299 35.4205 20.0343 37.7939 22.0408 39.991C25.199 43.365 28.8977 46.1888 32.9847 48.3461C37.0206 50.4174 41.3277 51.9112 45.7795 52.7834C50.0895 53.6814 54.3459 54.0679 58.2624 54.5128C60.083 54.6917 61.893 54.9645 63.6853 55.3302C64.9106 55.5363 66.0811 55.9896 67.1255 56.6626C67.4063 56.8908 67.6392 57.1721 67.811 57.4905C67.9827 57.809 68.0898 58.1582 68.1262 58.5182C68.3529 59.927 68.3599 61.3624 68.1472 62.7733C68.0573 63.5907 67.9032 64.4607 67.7362 65.3307C67.4941 66.5682 67.338 67.8211 67.2691 69.0802C67.0782 71.9671 67.5677 74.8585 68.6984 77.5217C69.9801 80.4517 72.1596 82.8986 74.9224 84.5093C77.4964 85.9814 80.4024 86.775 83.3673 86.8156C88.819 86.8766 94.0995 84.914 98.1881 81.3074C102.152 77.7957 104.813 73.048 105.74 67.8342C106.553 63.0267 106.274 58.0977 104.922 53.4128C103.617 48.5483 100.986 44.1419 97.3228 40.6847C93.8089 37.4927 89.6976 35.0281 85.2264 33.4331C81.1421 31.9507 76.9369 30.8254 72.6581 30.0701C68.5186 29.2924 64.4444 28.7213 60.4881 28.1515C56.7012 27.7099 52.9463 27.027 49.2465 26.1068C47.7277 25.7244 46.2677 25.1383 44.906 24.3646C43.44 23.4488 42.06 22.4021 40.7828 21.2374C38.787 19.4458 37.2171 17.2307 36.1878 14.7542C38.9972 13.269 41.9399 12.0512 44.9772 11.1167C45.3461 12.9152 46.1183 14.6065 47.2356 16.0632C48.6693 17.8486 50.5534 19.2192 52.6936 20.0335C54.6306 20.7734 56.6659 21.2247 58.7342 21.3729L64.2073 21.9053L75.1127 23.0007C82.271 23.6177 89.3683 24.8083 96.3361 26.561C97.4279 26.8658 98.4952 27.222 99.5485 27.6038C106.72 36.3532 110.785 47.2351 111.107 58.5434C111.428 69.8517 107.988 80.9471 101.326 90.0899C98.1834 90.919 95.006 91.6605 91.8147 92.3261L86.4606 93.377C84.5002 93.743 82.5792 94.2951 80.7236 95.0259C76.849 96.5036 73.4592 99.0252 70.9299 102.311C69.0721 104.794 67.7373 107.628 67.0064 110.642C64.6848 110.964 62.3439 111.128 60 111.131C59.5645 111.122 59.1382 111.107 58.7085 111.094L58.7097 111.093ZM91.9466 99.9023C87.0546 103.831 81.4795 106.822 75.5015 108.727C75.8688 108.025 76.2988 107.359 76.786 106.735C78.5269 104.54 80.8452 102.873 83.4806 101.922C84.8994 101.383 86.3659 100.979 87.8607 100.715L91.9466 99.9023Z" fill="white"/>
</svg>
