<svg width="171" height="24" viewBox="0 0 171 24" fill="none" xmlns="http://www.w3.org/2000/svg">
<path d="M12 0C9.62663 0 7.30656 0.703788 5.33317 2.02237C3.35978 3.34094 1.8217 5.21508 0.913451 7.4078C0.00519943 9.60051 -0.232441 12.0133 0.230582 14.3411C0.693605 16.6689 1.83649 18.807 3.51472 20.4853C5.19295 22.1635 7.33115 23.3064 9.65892 23.7694C11.9867 24.2324 14.3995 23.9948 16.5922 23.0865C18.7849 22.1783 20.6591 20.6402 21.9776 18.6668C23.2962 16.6935 24 14.3734 24 12C24 8.8174 22.7357 5.76516 20.4853 3.51472C18.2348 1.26428 15.1826 0 12 0ZM17.7875 3.5715C16.906 3.43 16.0335 3.339 15.168 3.2505L12.968 3.0535L11.874 2.959C11.584 2.94426 11.2977 2.88751 11.024 2.7905C10.828 2.73144 10.6521 2.61958 10.5155 2.46718C10.3789 2.31478 10.2869 2.12773 10.2495 1.9265C12.8802 1.46729 15.5862 2.05769 17.7865 3.571L17.7875 3.5715ZM5.6805 3.964C5.96981 4.57883 6.36923 5.1355 6.85901 5.6065C7.19149 5.92874 7.55284 6.21979 7.9385 6.476C8.35739 6.74349 8.81185 6.95069 9.2885 7.0915C11.02 7.608 12.613 7.724 14.1385 8.0415C15.643 8.3415 17.105 8.79749 18.006 9.672C18.4523 10.1014 18.7684 10.648 18.918 11.249C19.0947 11.8719 19.1312 12.5263 19.025 13.165C18.926 13.7285 18.6382 14.2417 18.209 14.62C17.7994 14.9772 17.2735 15.1728 16.73 15.17C16.5109 15.1684 16.2957 15.1115 16.1045 15.0045C15.9527 14.9167 15.8345 14.7809 15.7685 14.6185C15.6843 14.4011 15.6522 14.167 15.6745 13.935C15.6846 13.7838 15.705 13.6334 15.7355 13.485C15.775 13.2615 15.812 13.035 15.8355 12.798C15.8996 12.2777 15.8794 11.7504 15.7755 11.2365C15.708 10.9222 15.5898 10.6209 15.4255 10.3445C15.2477 10.0501 15.0136 9.79369 14.7365 9.59C14.2748 9.26876 13.7488 9.05159 13.195 8.9535C12.7607 8.86955 12.3222 8.80847 11.8815 8.7705C11.058 8.6915 10.296 8.6295 9.572 8.4895C8.87123 8.36471 8.19144 8.1422 7.5525 7.8285C6.9329 7.51239 6.37036 7.09517 5.88801 6.594C5.63834 6.33521 5.40204 6.06385 5.18001 5.781C4.97483 5.51104 4.78887 5.22701 4.6235 4.931C4.95308 4.58446 5.30644 4.26134 5.68101 3.964H5.6805ZM10.237 20.14C10.0486 20.7545 9.80058 21.3492 9.4965 21.9155C9.15556 21.83 8.81927 21.7268 8.489 21.6065C8.54128 20.9566 8.51105 20.3028 8.39901 19.6605C8.23766 18.7693 7.89082 17.922 7.381 17.1735C6.87395 16.453 6.24299 15.8283 5.51751 15.3285C5.15295 15.0663 4.76037 14.8454 4.34701 14.67C3.92689 14.4957 3.48584 14.3768 3.035 14.3165C2.70133 14.2735 2.36479 14.2568 2.0285 14.2665C1.8596 13.5237 1.77424 12.7643 1.77401 12.0025C1.77401 11.781 1.7835 11.5625 1.797 11.345C2.15817 11.6258 2.53954 11.8797 2.938 12.1045C3.68477 12.5191 4.47617 12.8477 5.297 13.084C6.078 13.3215 6.80801 13.499 7.41601 13.752C8.00052 13.9854 8.52883 14.3402 8.966 14.793C9.19223 15.0291 9.39798 15.284 9.58101 15.555C9.68101 15.6895 9.76701 15.839 9.85801 15.9845C9.94103 16.1178 10.0171 16.2553 10.086 16.3965C10.6096 17.5799 10.6638 18.9181 10.2375 20.14H10.237ZM2.5275 15.8525C2.612 15.864 2.69701 15.8755 2.78051 15.8915C3.09625 15.9528 3.40393 16.0501 3.69751 16.1815C3.99366 16.3209 4.2731 16.4933 4.53051 16.6955C5.07244 17.0959 5.5393 17.589 5.90951 18.152C6.25613 18.703 6.48319 19.3207 6.576 19.965C6.60829 20.2078 6.62399 20.4525 6.62301 20.6975C4.78026 19.5559 3.34665 17.8597 2.52801 15.8525H2.5275ZM11.7415 22.2185C11.9631 21.7473 12.153 21.2619 12.31 20.7655C12.5804 19.9156 12.7146 19.0283 12.7075 18.1365C12.6966 17.2009 12.4847 16.2785 12.086 15.432C11.9878 15.2232 11.8761 15.0212 11.7515 14.827C11.6345 14.6445 11.524 14.4615 11.3915 14.283C11.135 13.9149 10.8478 13.5692 10.533 13.2495C9.87974 12.5913 9.09641 12.0765 8.23301 11.738C7.40051 11.4085 6.6145 11.238 5.9105 11.028C5.23645 10.8457 4.58553 10.5867 3.9705 10.256C3.36801 9.92014 2.80985 9.5103 2.309 9.036C2.2835 9.0125 2.259 8.986 2.2335 8.962C2.49484 8.12407 2.8634 7.32344 3.33001 6.58C3.64602 7.08408 4.00681 7.55867 4.408 7.998C5.03957 8.67275 5.77921 9.23748 6.5965 9.669C7.4037 10.0833 8.26513 10.382 9.15551 10.5565C10.0175 10.736 10.869 10.8145 11.652 10.9025C12.0161 10.9384 12.3781 10.9932 12.7365 11.0665C12.9815 11.1077 13.2156 11.1984 13.4245 11.333C13.4806 11.3787 13.5271 11.4349 13.5615 11.4986C13.5958 11.5622 13.6172 11.632 13.6245 11.704C13.6697 11.9854 13.671 12.2722 13.6285 12.554C13.6105 12.7185 13.5785 12.8915 13.5465 13.0655C13.4981 13.313 13.4668 13.5636 13.453 13.8155C13.4148 14.393 13.5128 14.9713 13.739 15.504C13.9948 16.0909 14.4307 16.5812 14.9835 16.904C15.4983 17.1984 16.0795 17.3572 16.6725 17.3655C17.7626 17.3781 18.8186 16.9862 19.6365 16.2655C20.4292 15.5632 20.9615 14.6137 21.147 13.571C21.31 12.6097 21.2544 11.624 20.9845 10.687C20.7234 9.71396 20.1971 8.83254 19.4645 8.141C18.7616 7.5027 17.9393 7.00989 17.045 6.691C16.2282 6.39456 15.3872 6.16955 14.5315 6.0185C13.7035 5.863 12.8885 5.7485 12.0975 5.635C11.3396 5.54674 10.588 5.41012 9.8475 5.226C9.5437 5.14902 9.25173 5.03128 8.9795 4.876C8.68636 4.69281 8.4104 4.48345 8.155 4.2505C7.75592 3.89219 7.44194 3.44923 7.236 2.954C7.79791 2.65695 8.3865 2.41338 8.994 2.2265C9.06724 2.58612 9.22111 2.92444 9.44401 3.216C9.73086 3.57268 10.1076 3.84642 10.5355 4.009C10.9229 4.15702 11.3299 4.24732 11.7435 4.277L12.838 4.3835L15.019 4.6025C16.4506 4.72589 17.87 4.96399 19.2635 5.3145C19.482 5.3755 19.6955 5.4465 19.906 5.523C21.3403 7.27292 22.1534 9.44934 22.2177 11.711C22.2821 13.9728 21.594 16.1919 20.2615 18.0205C19.633 18.1865 18.9975 18.3345 18.3615 18.4675L17.2905 18.6775C16.8984 18.7508 16.5141 18.8613 16.143 19.0075C15.3682 19.303 14.6903 19.8073 14.1845 20.4645C13.813 20.9611 13.5461 21.5278 13.4 22.1305C12.9362 22.1956 12.4684 22.229 12 22.2305C11.915 22.2255 11.828 22.2215 11.742 22.219L11.7415 22.2185ZM18.389 19.9805C17.4106 20.7662 16.2956 21.3645 15.1 21.7455C15.1732 21.6047 15.2591 21.4708 15.3565 21.3455C15.7047 20.9064 16.1684 20.5731 16.6955 20.383C16.9792 20.2751 17.2726 20.1942 17.5715 20.1415L18.389 19.9805Z" fill="white"/>
<path d="M37.6689 0.335664V23.765H33V0.335664H37.6689Z" fill="white"/>
<path d="M62.1912 23.765H57.5223L46.9506 7.68671V23.765H42.2818V0.302096H46.9506L57.5223 16.414V0.302096H62.1912V23.765Z" fill="white"/>
<path d="M71.474 20.0392H79.1443V23.765H66.8051V0.335664H71.474V20.0392Z" fill="white"/>
<path d="M86.7808 4.12867V10.0028H94.6178V13.7287H86.7808V19.9385H95.6183V23.765H82.1119V0.302096H95.6183V4.12867H86.7808Z" fill="white"/>
<path d="M119.771 23.765H115.102L104.53 7.68671V23.765H99.8612V0.302096H104.53L115.102 16.414V0.302096H119.771V23.765Z" fill="white"/>
<path d="M132.522 0.335664C134.967 0.335664 137.113 0.816783 138.958 1.77902C140.826 2.74126 142.26 4.11748 143.26 5.90769C144.283 7.67552 144.794 9.73427 144.794 12.0839C144.794 14.4336 144.283 16.4923 143.26 18.2601C142.26 20.0056 140.826 21.3594 138.958 22.3217C137.113 23.2839 134.967 23.765 132.522 23.765H124.385V0.335664H132.522ZM132.355 19.7706C134.801 19.7706 136.69 19.0993 138.024 17.7566C139.358 16.414 140.025 14.5231 140.025 12.0839C140.025 9.64476 139.358 7.74266 138.024 6.37762C136.69 4.99021 134.801 4.2965 132.355 4.2965H129.053V19.7706H132.355Z" fill="white"/>
<path d="M159.094 24C156.916 24 154.915 23.4853 153.091 22.4559C151.268 21.4266 149.823 20.0056 148.756 18.193C147.689 16.358 147.155 14.2881 147.155 11.9832C147.155 9.7007 147.689 7.65315 148.756 5.84056C149.823 4.00559 151.268 2.57342 153.091 1.54405C154.915 0.514685 156.916 0 159.094 0C161.295 0 163.296 0.514685 165.097 1.54405C166.92 2.57342 168.354 4.00559 169.399 5.84056C170.466 7.65315 171 9.7007 171 11.9832C171 14.2881 170.466 16.358 169.399 18.193C168.354 20.0056 166.92 21.4266 165.097 22.4559C163.274 23.4853 161.273 24 159.094 24ZM159.094 19.8042C160.495 19.8042 161.729 19.4909 162.796 18.8643C163.863 18.2154 164.697 17.2979 165.297 16.1119C165.898 14.9259 166.198 13.5497 166.198 11.9832C166.198 10.4168 165.898 9.05175 165.297 7.88811C164.697 6.7021 163.863 5.7958 162.796 5.16923C161.729 4.54266 160.495 4.22937 159.094 4.22937C157.694 4.22937 156.449 4.54266 155.359 5.16923C154.292 5.7958 153.458 6.7021 152.858 7.88811C152.258 9.05175 151.958 10.4168 151.958 11.9832C151.958 13.5497 152.258 14.9259 152.858 16.1119C153.458 17.2979 154.292 18.2154 155.359 18.8643C156.449 19.4909 157.694 19.8042 159.094 19.8042Z" fill="white"/>
</svg>
