<svg width="422" height="422" viewBox="0 0 422 422" fill="none" xmlns="http://www.w3.org/2000/svg">
<g clip-path="url(#clip0_746_11005)">
<path d="M17.0074 404.992H0V422H17.0074V404.992Z" fill="white"/>
<path d="M17.0074 388.125H0V405.132H17.0074V388.125Z" fill="white"/>
<path d="M17.0074 371.242H0V388.25H17.0074V371.242Z" fill="white"/>
<path d="M17.0074 354.367H0V371.375H17.0074V354.367Z" fill="white"/>
<path d="M17.0074 337.5H0V354.507H17.0074V337.5Z" fill="white"/>
<path d="M17.0074 320.617H0V337.625H17.0074V320.617Z" fill="white"/>
<path d="M17.0074 303.742H0V320.75H17.0074V303.742Z" fill="white"/>
<path d="M17.0074 253.117H0V270.125H17.0074V253.117Z" fill="white"/>
<path d="M17.0074 236.258H0V253.265H17.0074V236.258Z" fill="white"/>
<path d="M17.0074 219.375H0V236.382H17.0074V219.375Z" fill="white"/>
<path d="M17.0074 202.5H0V219.507H17.0074V202.5Z" fill="white"/>
<path d="M17.0074 185.625H0V202.632H17.0074V185.625Z" fill="white"/>
<path d="M17.0074 168.758H0V185.765H17.0074V168.758Z" fill="white"/>
<path d="M17.0074 151.875H0V168.882H17.0074V151.875Z" fill="white"/>
<path d="M17.0074 134.992H0V152H17.0074V134.992Z" fill="white"/>
<path d="M17.0074 101.242H0V118.25H17.0074V101.242Z" fill="white"/>
<path d="M17.0074 84.3594H0V101.367H17.0074V84.3594Z" fill="white"/>
<path d="M17.0074 67.5078H0V84.5152H17.0074V67.5078Z" fill="white"/>
<path d="M17.0074 50.625H0V67.6324H17.0074V50.625Z" fill="white"/>
<path d="M17.0074 33.7422H0V50.7496H17.0074V33.7422Z" fill="white"/>
<path d="M17.0074 16.8828H0V33.8902H17.0074V16.8828Z" fill="white"/>
<path d="M17.0074 0H0V17.0074H17.0074V0Z" fill="white"/>
<path d="M33.8844 404.992H16.877V422H33.8844V404.992Z" fill="white"/>
<path d="M33.8844 303.742H16.877V320.75H33.8844V303.742Z" fill="white"/>
<path d="M33.8844 270H16.877V287.007H33.8844V270Z" fill="white"/>
<path d="M33.8844 253.117H16.877V270.125H33.8844V253.117Z" fill="white"/>
<path d="M33.8844 219.375H16.877V236.382H33.8844V219.375Z" fill="white"/>
<path d="M33.8844 202.5H16.877V219.507H33.8844V202.5Z" fill="white"/>
<path d="M33.8844 185.625H16.877V202.632H33.8844V185.625Z" fill="white"/>
<path d="M33.8844 168.758H16.877V185.765H33.8844V168.758Z" fill="white"/>
<path d="M33.8844 134.992H16.877V152H33.8844V134.992Z" fill="white"/>
<path d="M33.8844 101.242H16.877V118.25H33.8844V101.242Z" fill="white"/>
<path d="M33.8844 0H16.877V17.0074H33.8844V0Z" fill="white"/>
<path d="M50.7555 404.992H33.748V422H50.7555V404.992Z" fill="white"/>
<path d="M50.7555 371.242H33.748V388.25H50.7555V371.242Z" fill="white"/>
<path d="M50.7555 354.367H33.748V371.375H50.7555V354.367Z" fill="white"/>
<path d="M50.7555 337.5H33.748V354.507H50.7555V337.5Z" fill="white"/>
<path d="M50.7555 303.742H33.748V320.75H50.7555V303.742Z" fill="white"/>
<path d="M50.7555 270H33.748V287.007H50.7555V270Z" fill="white"/>
<path d="M50.7555 253.117H33.748V270.125H50.7555V253.117Z" fill="white"/>
<path d="M50.7555 236.258H33.748V253.265H50.7555V236.258Z" fill="white"/>
<path d="M50.7555 185.625H33.748V202.632H50.7555V185.625Z" fill="white"/>
<path d="M50.7555 101.242H33.748V118.25H50.7555V101.242Z" fill="white"/>
<path d="M50.7555 67.5078H33.748V84.5152H50.7555V67.5078Z" fill="white"/>
<path d="M50.7555 50.625H33.748V67.6324H50.7555V50.625Z" fill="white"/>
<path d="M50.7555 33.7422H33.748V50.7496H50.7555V33.7422Z" fill="white"/>
<path d="M50.7555 0H33.748V17.0074H50.7555V0Z" fill="white"/>
<path d="M67.6305 404.992H50.623V422H67.6305V404.992Z" fill="white"/>
<path d="M67.6305 371.242H50.623V388.25H67.6305V371.242Z" fill="white"/>
<path d="M67.6305 354.367H50.623V371.375H67.6305V354.367Z" fill="white"/>
<path d="M67.6305 337.5H50.623V354.507H67.6305V337.5Z" fill="white"/>
<path d="M67.6305 303.742H50.623V320.75H67.6305V303.742Z" fill="white"/>
<path d="M67.6305 270H50.623V287.007H67.6305V270Z" fill="white"/>
<path d="M67.6305 236.258H50.623V253.265H67.6305V236.258Z" fill="white"/>
<path d="M67.6305 219.375H50.623V236.382H67.6305V219.375Z" fill="white"/>
<path d="M67.6305 202.5H50.623V219.507H67.6305V202.5Z" fill="white"/>
<path d="M67.6305 134.992H50.623V152H67.6305V134.992Z" fill="white"/>
<path d="M67.6305 101.242H50.623V118.25H67.6305V101.242Z" fill="white"/>
<path d="M67.6305 67.5078H50.623V84.5152H67.6305V67.5078Z" fill="white"/>
<path d="M67.6307 50.625H50.6233V67.6324H67.6307V50.625Z" fill="white"/>
<path d="M67.6305 33.7422H50.623V50.7496H67.6305V33.7422Z" fill="white"/>
<path d="M67.6307 0H50.6233V17.0074H67.6307V0Z" fill="white"/>
<path d="M84.5074 404.992H67.5V422H84.5074V404.992Z" fill="white"/>
<path d="M84.5074 371.242H67.5V388.25H84.5074V371.242Z" fill="white"/>
<path d="M84.5074 354.367H67.5V371.375H84.5074V354.367Z" fill="white"/>
<path d="M84.5074 337.5H67.5V354.507H84.5074V337.5Z" fill="white"/>
<path d="M84.5074 303.742H67.5V320.75H84.5074V303.742Z" fill="white"/>
<path d="M84.5074 270H67.5V287.007H84.5074V270Z" fill="white"/>
<path d="M84.5074 219.375H67.5V236.382H84.5074V219.375Z" fill="white"/>
<path d="M84.5074 202.5H67.5V219.507H84.5074V202.5Z" fill="white"/>
<path d="M84.5074 185.625H67.5V202.632H84.5074V185.625Z" fill="white"/>
<path d="M84.5074 168.758H67.5V185.765H84.5074V168.758Z" fill="white"/>
<path d="M84.5074 134.992H67.5V152H84.5074V134.992Z" fill="white"/>
<path d="M84.5074 101.242H67.5V118.25H84.5074V101.242Z" fill="white"/>
<path d="M84.5074 67.5078H67.5V84.5152H84.5074V67.5078Z" fill="white"/>
<path d="M84.5074 50.625H67.5V67.6324H84.5074V50.625Z" fill="white"/>
<path d="M84.5074 33.7422H67.5V50.7496H84.5074V33.7422Z" fill="white"/>
<path d="M84.5073 0H67.4999V17.0074H84.5073V0Z" fill="white"/>
<path d="M101.379 404.992H84.3711V422H101.379V404.992Z" fill="white"/>
<path d="M101.379 303.742H84.3711V320.75H101.379V303.742Z" fill="white"/>
<path d="M101.379 270H84.3711V287.007H101.379V270Z" fill="white"/>
<path d="M101.379 253.117H84.3711V270.125H101.379V253.117Z" fill="white"/>
<path d="M101.379 236.258H84.3711V253.265H101.379V236.258Z" fill="white"/>
<path d="M101.379 219.375H84.3711V236.382H101.379V219.375Z" fill="white"/>
<path d="M101.379 202.5H84.3711V219.507H101.379V202.5Z" fill="white"/>
<path d="M101.379 151.875H84.3711V168.882H101.379V151.875Z" fill="white"/>
<path d="M101.379 101.242H84.3711V118.25H101.379V101.242Z" fill="white"/>
<path d="M101.378 0H84.3708V17.0074H101.378V0Z" fill="white"/>
<path d="M118.254 404.992H101.246V422H118.254V404.992Z" fill="white"/>
<path d="M118.254 388.125H101.246V405.132H118.254V388.125Z" fill="white"/>
<path d="M118.254 371.242H101.246V388.25H118.254V371.242Z" fill="white"/>
<path d="M118.254 354.367H101.246V371.375H118.254V354.367Z" fill="white"/>
<path d="M118.254 337.5H101.246V354.507H118.254V337.5Z" fill="white"/>
<path d="M118.254 320.617H101.246V337.625H118.254V320.617Z" fill="white"/>
<path d="M118.254 303.742H101.246V320.75H118.254V303.742Z" fill="white"/>
<path d="M118.254 270H101.246V287.007H118.254V270Z" fill="white"/>
<path d="M118.254 236.258H101.246V253H118.254V236.258Z" fill="white"/>
<path d="M118.254 202.5H101.246V219.507H118.254V202.5Z" fill="white"/>
<path d="M118.254 168.758H101.246V185.765H118.254V168.758Z" fill="white"/>
<path d="M118.254 134.992H101.246V152H118.254V134.992Z" fill="white"/>
<path d="M118.254 101.242H101.246V118.25H118.254V101.242Z" fill="white"/>
<path d="M118.254 84.3594H101.246V101.367H118.254V84.3594Z" fill="white"/>
<path d="M118.254 67.5078H101.246V84.5152H118.254V67.5078Z" fill="white"/>
<path d="M118.254 50.625H101.246V67.6324H118.254V50.625Z" fill="white"/>
<path d="M118.254 33.7422H101.246V50.7496H118.254V33.7422Z" fill="white"/>
<path d="M118.254 16.8828H101.246V33.8902H118.254V16.8828Z" fill="white"/>
<path d="M118.254 0H101.246V17.0074H118.254V0Z" fill="white"/>
<path d="M135.129 236.258H118.121V253H135.129V236.258Z" fill="white"/>
<path d="M135.129 219.375H118.121V236.382H135.129V219.375Z" fill="white"/>
<path d="M135.129 185.625H118.121V202.632H135.129V185.625Z" fill="white"/>
<path d="M135.129 168.758H118.121V185.765H135.129V168.758Z" fill="white"/>
<path d="M135.129 151.875H118.121V168.882H135.129V151.875Z" fill="white"/>
<path d="M152.002 371.242H134.994V388.25H152.002V371.242Z" fill="white"/>
<path d="M152.002 320.617H134.994V337.625H152.002V320.617Z" fill="white"/>
<path d="M152.002 303.742H134.994V320.75H152.002V303.742Z" fill="white"/>
<path d="M152.002 286.867H134.994V303.875H152.002V286.867Z" fill="white"/>
<path d="M152.002 270H134.994V287.007H152.002V270Z" fill="white"/>
<path d="M152.002 236.258H134.994V253H152.002V236.258Z" fill="white"/>
<path d="M152.002 202.5H134.994V219.507H152.002V202.5Z" fill="white"/>
<path d="M152.002 185.625H134.994V202.632H152.002V185.625Z" fill="white"/>
<path d="M152.002 168.758H134.994V185.765H152.002V168.758Z" fill="white"/>
<path d="M152.002 151.875H134.994V168.882H152.002V151.875Z" fill="white"/>
<path d="M152.002 118.133H134.994V135.14H152.002V118.133Z" fill="white"/>
<path d="M152.002 84.3594H134.994V101.367H152.002V84.3594Z" fill="white"/>
<path d="M152.002 67.5078H134.994V84.5152H152.002V67.5078Z" fill="white"/>
<path d="M152.002 50.625H134.994V67.6324H152.002V50.625Z" fill="white"/>
<path d="M152.002 33.7422H134.994V50.7496H152.002V33.7422Z" fill="white"/>
<path d="M152.002 16.8828H134.994V33.8902H152.002V16.8828Z" fill="white"/>
<path d="M168.884 388.125H151.877V405.132H168.884V388.125Z" fill="white"/>
<path d="M168.884 337.5H151.877V354.507H168.884V337.5Z" fill="white"/>
<path d="M168.884 253.117H151.877V270.125H168.884V253.117Z" fill="white"/>
<path d="M168.884 219.375H151.877V236.382H168.884V219.375Z" fill="white"/>
<path d="M168.884 168.758H151.877V185.765H168.884V168.758Z" fill="white"/>
<path d="M168.884 134.992H151.877V152H168.884V134.992Z" fill="white"/>
<path d="M168.884 101.242H151.877V118.25H168.884V101.242Z" fill="white"/>
<path d="M168.884 84.3594H151.877V101.367H168.884V84.3594Z" fill="white"/>
<path d="M168.884 50.625H151.877V67.6324H168.884V50.625Z" fill="white"/>
<path d="M168.884 33.7422H151.877V50.7496H168.884V33.7422Z" fill="white"/>
<path d="M168.884 0H151.877V17.0074H168.884V0Z" fill="white"/>
<path d="M185.757 404.992H168.75V422H185.757V404.992Z" fill="white"/>
<path d="M185.757 354.367H168.75V371.375H185.757V354.367Z" fill="white"/>
<path d="M185.757 337.5H168.75V354.507H185.757V337.5Z" fill="white"/>
<path d="M185.757 320.617H168.75V337.625H185.757V320.617Z" fill="white"/>
<path d="M185.757 303.742H168.75V320.75H185.757V303.742Z" fill="white"/>
<path d="M185.757 219.375H168.75V236.382H185.757V219.375Z" fill="white"/>
<path d="M185.757 168.758H168.75V185.765H185.757V168.758Z" fill="white"/>
<path d="M185.757 151.875H168.75V168.882H185.757V151.875Z" fill="white"/>
<path d="M185.757 50.625H168.75V67.6324H185.757V50.625Z" fill="white"/>
<path d="M185.757 33.7422H168.75V50.7496H185.757V33.7422Z" fill="white"/>
<path d="M185.757 0H168.75V17.0074H185.757V0Z" fill="white"/>
<path d="M202.632 388.125H185.625V405.132H202.632V388.125Z" fill="white"/>
<path d="M202.632 354.367H185.625V371.375H202.632V354.367Z" fill="white"/>
<path d="M202.632 320.617H185.625V337.625H202.632V320.617Z" fill="white"/>
<path d="M202.632 270H185.625V287.007H202.632V270Z" fill="white"/>
<path d="M202.632 253.117H185.625V270.125H202.632V253.117Z" fill="white"/>
<path d="M202.632 219.375H185.625V236.382H202.632V219.375Z" fill="white"/>
<path d="M202.632 185.625H185.625V202.632H202.632V185.625Z" fill="white"/>
<path d="M202.632 134.992H185.625V152H202.632V134.992Z" fill="white"/>
<path d="M202.632 118.133H185.625V135.14H202.632V118.133Z" fill="white"/>
<path d="M202.632 101.242H185.625V118.25H202.632V101.242Z" fill="white"/>
<path d="M202.632 50.625H185.625V67.6324H202.632V50.625Z" fill="white"/>
<path d="M202.632 0H185.625V17.0074H202.632V0Z" fill="white"/>
<path d="M219.509 404.992H202.502V422H219.509V404.992Z" fill="white"/>
<path d="M219.509 371.242H202.502V388.25H219.509V371.242Z" fill="white"/>
<path d="M219.509 354.367H202.502V371.375H219.509V354.367Z" fill="white"/>
<path d="M219.509 320.617H202.502V337.625H219.509V320.617Z" fill="white"/>
<path d="M219.509 303.742H202.502V320.75H219.509V303.742Z" fill="white"/>
<path d="M219.509 270H202.502V287.007H219.509V270Z" fill="white"/>
<path d="M219.509 236.258H202.502V253H219.509V236.258Z" fill="white"/>
<path d="M219.509 185.625H202.502V202.632H219.509V185.625Z" fill="white"/>
<path d="M219.509 168.758H202.502V185.765H219.509V168.758Z" fill="white"/>
<path d="M219.509 134.992H202.502V152H219.509V134.992Z" fill="white"/>
<path d="M219.509 101.242H202.502V118.25H219.509V101.242Z" fill="white"/>
<path d="M219.509 84.3594H202.502V101.367H219.509V84.3594Z" fill="white"/>
<path d="M219.509 50.625H202.502V67.6324H219.509V50.625Z" fill="white"/>
<path d="M236.382 354.367H219.375V371.375H236.382V354.367Z" fill="white"/>
<path d="M236.382 337.5H219.375V354.507H236.382V337.5Z" fill="white"/>
<path d="M236.382 320.617H219.375V337.625H236.382V320.617Z" fill="white"/>
<path d="M236.382 270H219.375V287.007H236.382V270Z" fill="white"/>
<path d="M236.382 185.625H219.375V202.632H236.382V185.625Z" fill="white"/>
<path d="M236.382 168.758H219.375V185.765H236.382V168.758Z" fill="white"/>
<path d="M236.382 134.992H219.375V152H236.382V134.992Z" fill="white"/>
<path d="M236.382 101.242H219.375V118.25H236.382V101.242Z" fill="white"/>
<path d="M236.382 84.3594H219.375V101.367H236.382V84.3594Z" fill="white"/>
<path d="M236.382 50.625H219.375V67.6324H236.382V50.625Z" fill="white"/>
<path d="M236.382 0H219.375V17.0074H236.382V0Z" fill="white"/>
<path d="M253.255 404.992H236.248V422H253.255V404.992Z" fill="white"/>
<path d="M253.255 388.125H236.248V405.132H253.255V388.125Z" fill="white"/>
<path d="M253.255 354.367H236.248V371.375H253.255V354.367Z" fill="white"/>
<path d="M253.255 337.5H236.248V354.507H253.255V337.5Z" fill="white"/>
<path d="M253.255 320.617H236.248V337.625H253.255V320.617Z" fill="white"/>
<path d="M253.255 303.742H236.248V320.75H253.255V303.742Z" fill="white"/>
<path d="M253.255 270H236.248V287.007H253.255V270Z" fill="white"/>
<path d="M253.255 219.375H236.248V236.382H253.255V219.375Z" fill="white"/>
<path d="M253.255 168.758H236.248V185.765H253.255V168.758Z" fill="white"/>
<path d="M253.255 134.992H236.248V152H253.255V134.992Z" fill="white"/>
<path d="M253.255 84.3594H236.248V101.367H253.255V84.3594Z" fill="white"/>
<path d="M253.255 33.7422H236.248V50.7496H253.255V33.7422Z" fill="white"/>
<path d="M253.255 0H236.248V17.0074H253.255V0Z" fill="white"/>
<path d="M270.132 337.5H253.125V354.507H270.132V337.5Z" fill="white"/>
<path d="M270.132 320.617H253.125V337.625H270.132V320.617Z" fill="white"/>
<path d="M270.132 270H253.125V287.007H270.132V270Z" fill="white"/>
<path d="M270.132 253.117H253.125V270.125H270.132V253.117Z" fill="white"/>
<path d="M270.132 185.625H253.125V202.632H270.132V185.625Z" fill="white"/>
<path d="M270.132 168.758H253.125V185.765H270.132V168.758Z" fill="white"/>
<path d="M270.132 151.875H253.125V168.882H270.132V151.875Z" fill="white"/>
<path d="M270.132 134.992H253.125V152H270.132V134.992Z" fill="white"/>
<path d="M270.132 118.133H253.125V135.14H270.132V118.133Z" fill="white"/>
<path d="M270.132 84.3594H253.125V101.367H270.132V84.3594Z" fill="white"/>
<path d="M270.132 67.5078H253.125V84.5152H270.132V67.5078Z" fill="white"/>
<path d="M270.132 50.625H253.125V67.6324H270.132V50.625Z" fill="white"/>
<path d="M270.132 16.8828H253.125V33.8902H270.132V16.8828Z" fill="white"/>
<path d="M287.005 404.992H269.998V422H287.005V404.992Z" fill="white"/>
<path d="M287.005 388.125H269.998V405.132H287.005V388.125Z" fill="white"/>
<path d="M287.005 371.242H269.998V388.25H287.005V371.242Z" fill="white"/>
<path d="M287.005 354.367H269.998V371.375H287.005V354.367Z" fill="white"/>
<path d="M287.005 337.5H269.998V354.507H287.005V337.5Z" fill="white"/>
<path d="M287.005 303.742H269.998V320.75H287.005V303.742Z" fill="white"/>
<path d="M287.005 253.117H269.998V270.125H287.005V253.117Z" fill="white"/>
<path d="M287.005 202.5H269.998V219.507H287.005V202.5Z" fill="white"/>
<path d="M287.005 168.758H269.998V185.765H287.005V168.758Z" fill="white"/>
<path d="M287.005 134.992H269.998V152H287.005V134.992Z" fill="white"/>
<path d="M287.005 118.133H269.998V135.14H287.005V118.133Z" fill="white"/>
<path d="M287.005 101.242H269.998V118.25H287.005V101.242Z" fill="white"/>
<path d="M287.005 84.3594H269.998V101.367H287.005V84.3594Z" fill="white"/>
<path d="M287.005 67.5078H269.998V84.5152H287.005V67.5078Z" fill="white"/>
<path d="M287.005 50.625H269.998V67.6324H287.005V50.625Z" fill="white"/>
<path d="M287.005 16.8828H269.998V33.8902H287.005V16.8828Z" fill="white"/>
<path d="M303.88 270H286.873V287.007H303.88V270Z" fill="white"/>
<path d="M303.88 253.117H286.873V270.125H303.88V253.117Z" fill="white"/>
<path d="M303.88 202.5H286.873V219.507H303.88V202.5Z" fill="white"/>
<path d="M303.88 168.758H286.873V185.765H303.88V168.758Z" fill="white"/>
<path d="M303.88 151.875H286.873V168.882H303.88V151.875Z" fill="white"/>
<path d="M303.88 134.992H286.873V152H303.88V134.992Z" fill="white"/>
<path d="M303.88 67.5078H286.873V84.5152H303.88V67.5078Z" fill="white"/>
<path d="M303.88 50.625H286.873V67.6324H303.88V50.625Z" fill="white"/>
<path d="M303.88 33.7422H286.873V50.7496H303.88V33.7422Z" fill="white"/>
<path d="M303.88 0H286.873V17.0074H303.88V0Z" fill="white"/>
<path d="M320.752 404.992H303.744V422H320.752V404.992Z" fill="white"/>
<path d="M320.752 388.125H303.744V405.132H320.752V388.125Z" fill="white"/>
<path d="M320.752 371.242H303.744V388.25H320.752V371.242Z" fill="white"/>
<path d="M320.752 354.367H303.744V371.375H320.752V354.367Z" fill="white"/>
<path d="M320.752 337.5H303.744V354.507H320.752V337.5Z" fill="white"/>
<path d="M320.752 320.617H303.744V337.625H320.752V320.617Z" fill="white"/>
<path d="M320.752 303.742H303.744V320.75H320.752V303.742Z" fill="white"/>
<path d="M320.752 270H303.744V287.007H320.752V270Z" fill="white"/>
<path d="M320.752 253.117H303.744V270.125H320.752V253.117Z" fill="white"/>
<path d="M320.752 219.375H303.744V236.382H320.752V219.375Z" fill="white"/>
<path d="M320.752 202.5H303.744V219.507H320.752V202.5Z" fill="white"/>
<path d="M320.752 151.875H303.744V168.882H320.752V151.875Z" fill="white"/>
<path d="M320.752 134.992H303.744V152H320.752V134.992Z" fill="white"/>
<path d="M320.752 101.242H303.744V118.25H320.752V101.242Z" fill="white"/>
<path d="M320.752 67.5078H303.744V84.5152H320.752V67.5078Z" fill="white"/>
<path d="M320.752 50.625H303.744V67.6324H320.752V50.625Z" fill="white"/>
<path d="M320.752 0H303.744V17.0074H320.752V0Z" fill="white"/>
<path d="M337.627 404.992H320.619V422H337.627V404.992Z" fill="white"/>
<path d="M337.627 303.742H320.619V320.75H337.627V303.742Z" fill="white"/>
<path d="M337.627 270H320.619V287.007H337.627V270Z" fill="white"/>
<path d="M337.627 253.117H320.619V270.125H337.627V253.117Z" fill="white"/>
<path d="M337.627 236.258H320.619V253.265H337.627V236.258Z" fill="white"/>
<path d="M337.627 219.375H320.619V236.382H337.627V219.375Z" fill="white"/>
<path d="M337.627 202.5H320.619V219.507H337.627V202.5Z" fill="white"/>
<path d="M337.627 185.625H320.619V202.632H337.627V185.625Z" fill="white"/>
<path d="M337.627 134.992H320.619V152H337.627V134.992Z" fill="white"/>
<path d="M337.627 67.5078H320.619V84.5152H337.627V67.5078Z" fill="white"/>
<path d="M337.627 50.625H320.619V67.6324H337.627V50.625Z" fill="white"/>
<path d="M337.627 16.8828H320.619V33.8902H337.627V16.8828Z" fill="white"/>
<path d="M337.627 0H320.619V17.0074H337.627V0Z" fill="white"/>
<path d="M354.504 404.992H337.496V422H354.504V404.992Z" fill="white"/>
<path d="M354.504 371.242H337.496V388.25H354.504V371.242Z" fill="white"/>
<path d="M354.504 354.367H337.496V371.375H354.504V354.367Z" fill="white"/>
<path d="M354.504 337.5H337.496V354.507H354.504V337.5Z" fill="white"/>
<path d="M354.504 303.742H337.496V320.75H354.504V303.742Z" fill="white"/>
<path d="M354.504 202.5H337.496V219.507H354.504V202.5Z" fill="white"/>
<path d="M354.504 185.625H337.496V202.632H354.504V185.625Z" fill="white"/>
<path d="M354.504 151.875H337.496V168.882H354.504V151.875Z" fill="white"/>
<path d="M354.504 134.992H337.496V152H354.504V134.992Z" fill="white"/>
<path d="M354.504 118.133H337.496V135.14H354.504V118.133Z" fill="white"/>
<path d="M354.504 101.242H337.496V118.25H354.504V101.242Z" fill="white"/>
<path d="M354.504 84.3594H337.496V101.367H354.504V84.3594Z" fill="white"/>
<path d="M354.504 67.5078H337.496V84.5152H354.504V67.5078Z" fill="white"/>
<path d="M354.504 50.625H337.496V67.6324H354.504V50.625Z" fill="white"/>
<path d="M354.504 16.8828H337.496V33.8902H354.504V16.8828Z" fill="white"/>
<path d="M371.377 404.992H354.369V422H371.377V404.992Z" fill="white"/>
<path d="M371.377 371.242H354.369V388.25H371.377V371.242Z" fill="white"/>
<path d="M371.377 354.367H354.369V371.375H371.377V354.367Z" fill="white"/>
<path d="M371.377 337.5H354.369V354.507H371.377V337.5Z" fill="white"/>
<path d="M371.377 303.742H354.369V320.75H371.377V303.742Z" fill="white"/>
<path d="M371.377 253.117H354.369V270.125H371.377V253.117Z" fill="white"/>
<path d="M371.377 236.258H354.369V253.265H371.377V236.258Z" fill="white"/>
<path d="M371.377 219.375H354.369V236.382H371.377V219.375Z" fill="white"/>
<path d="M371.377 185.625H354.369V202.632H371.377V185.625Z" fill="white"/>
<path d="M371.377 168.758H354.369V185.765H371.377V168.758Z" fill="white"/>
<path d="M371.377 151.875H354.369V168.882H371.377V151.875Z" fill="white"/>
<path d="M371.377 67.5078H354.369V84.5152H371.377V67.5078Z" fill="white"/>
<path d="M371.377 50.625H354.369V67.6324H371.377V50.625Z" fill="white"/>
<path d="M388.25 404.992H371.242V422H388.25V404.992Z" fill="white"/>
<path d="M388.25 371.242H371.242V388.25H388.25V371.242Z" fill="white"/>
<path d="M388.25 354.367H371.242V371.375H388.25V354.367Z" fill="white"/>
<path d="M388.25 337.5H371.242V354.507H388.25V337.5Z" fill="white"/>
<path d="M388.25 303.742H371.242V320.75H388.25V303.742Z" fill="white"/>
<path d="M388.25 270H371.242V287.007H388.25V270Z" fill="white"/>
<path d="M388.25 202.5H371.242V219.507H388.25V202.5Z" fill="white"/>
<path d="M388.25 168.758H371.242V185.765H388.25V168.758Z" fill="white"/>
<path d="M388.25 151.875H371.242V168.882H388.25V151.875Z" fill="white"/>
<path d="M388.25 134.992H371.242V152H388.25V134.992Z" fill="white"/>
<path d="M388.25 118.133H371.242V135.14H388.25V118.133Z" fill="white"/>
<path d="M388.25 101.242H371.242V118.25H388.25V101.242Z" fill="white"/>
<path d="M388.25 84.3594H371.242V101.367H388.25V84.3594Z" fill="white"/>
<path d="M388.25 67.5078H371.242V84.5152H388.25V67.5078Z" fill="white"/>
<path d="M388.25 50.625H371.242V67.6324H388.25V50.625Z" fill="white"/>
<path d="M388.25 33.7422H371.242V50.7496H388.25V33.7422Z" fill="white"/>
<path d="M388.25 16.8828H371.242V33.8902H388.25V16.8828Z" fill="white"/>
<path d="M388.25 0H371.242V17.0074H388.25V0Z" fill="white"/>
<path d="M405.125 404.992H388.117V422H405.125V404.992Z" fill="white"/>
<path d="M405.125 303.742H388.117V320.75H405.125V303.742Z" fill="white"/>
<path d="M405.125 253.117H388.117V270.125H405.125V253.117Z" fill="white"/>
<path d="M405.125 236.258H388.117V253.265H405.125V236.258Z" fill="white"/>
<path d="M405.125 219.375H388.117V236.382H405.125V219.375Z" fill="white"/>
<path d="M405.125 202.5H388.117V219.507H405.125V202.5Z" fill="white"/>
<path d="M405.125 185.625H388.117V202.632H405.125V185.625Z" fill="white"/>
<path d="M405.125 118.133H388.117V135.14H405.125V118.133Z" fill="white"/>
<path d="M405.125 101.242H388.117V118.25H405.125V101.242Z" fill="white"/>
<path d="M405.125 84.3594H388.117V101.367H405.125V84.3594Z" fill="white"/>
<path d="M405.125 67.5078H388.117V84.5152H405.125V67.5078Z" fill="white"/>
<path d="M405.125 50.625H388.117V67.6324H405.125V50.625Z" fill="white"/>
<path d="M422 404.992H404.992V422H422V404.992Z" fill="white"/>
<path d="M422 388.125H404.992V405.132H422V388.125Z" fill="white"/>
<path d="M422 371.242H404.992V388.25H422V371.242Z" fill="white"/>
<path d="M422 354.367H404.992V371.375H422V354.367Z" fill="white"/>
<path d="M422 337.5H404.992V354.507H422V337.5Z" fill="white"/>
<path d="M422 320.617H404.992V337.625H422V320.617Z" fill="white"/>
<path d="M422 303.742H404.992V320.75H422V303.742Z" fill="white"/>
<path d="M422 253.117H404.992V270.125H422V253.117Z" fill="white"/>
<path d="M422 236.258H404.992V253.265H422V236.258Z" fill="white"/>
<path d="M422 202.5H404.992V219.507H422V202.5Z" fill="white"/>
<path d="M422 168.758H404.992V185.765H422V168.758Z" fill="white"/>
<path d="M422 118.133H404.992V135.14H422V118.133Z" fill="white"/>
<path d="M421.999 50.625H404.992V67.6324H421.999V50.625Z" fill="white"/>
<path d="M421.999 0H404.992V17.0074H421.999V0Z" fill="white"/>
<rect x="127" y="152" width="168" height="101" rx="8" fill="url(#paint0_linear_746_11005)" fill-opacity="0.99"/>
<path d="M210.5 169C203.874 169 197.397 170.965 191.888 174.646C186.379 178.327 182.086 183.559 179.55 189.68C177.015 195.801 176.351 202.537 177.644 209.036C178.936 215.534 182.127 221.503 186.812 226.188C191.497 230.873 197.466 234.064 203.964 235.356C210.463 236.649 217.199 235.985 223.32 233.45C229.441 230.914 234.673 226.621 238.354 221.112C242.035 215.603 244 209.126 244 202.5C244 193.615 240.471 185.094 234.188 178.812C227.906 172.529 219.385 169 210.5 169ZM226.657 178.97C224.196 178.575 221.76 178.321 219.344 178.074L213.202 177.524L210.148 177.261C209.339 177.219 208.539 177.061 207.775 176.79C207.228 176.625 206.737 176.313 206.356 175.888C205.974 175.462 205.718 174.94 205.613 174.378C212.957 173.096 220.511 174.744 226.654 178.969L226.657 178.97ZM192.858 180.066C193.666 181.783 194.781 183.337 196.148 184.651C197.076 185.551 198.085 186.364 199.162 187.079C200.331 187.826 201.6 188.404 202.93 188.797C207.764 190.239 212.211 190.563 216.47 191.449C220.67 192.287 224.751 193.56 227.267 196.001C228.513 197.2 229.395 198.726 229.813 200.403C230.306 202.142 230.408 203.969 230.111 205.752C229.835 207.326 229.032 208.758 227.833 209.814C226.69 210.811 225.222 211.357 223.705 211.35C223.093 211.345 222.492 211.186 221.958 210.888C221.535 210.643 221.205 210.263 221.02 209.81C220.785 209.203 220.696 208.55 220.758 207.902C220.786 207.48 220.843 207.06 220.928 206.646C221.039 206.022 221.142 205.389 221.207 204.728C221.386 203.275 221.33 201.803 221.04 200.369C220.851 199.491 220.521 198.65 220.063 197.878C219.567 197.056 218.913 196.341 218.139 195.772C216.85 194.875 215.382 194.269 213.836 193.995C212.624 193.761 211.4 193.59 210.169 193.484C207.87 193.264 205.743 193.091 203.722 192.7C201.766 192.351 199.868 191.73 198.084 190.855C196.354 189.972 194.784 188.807 193.437 187.408C192.74 186.686 192.081 185.928 191.461 185.139C190.888 184.385 190.369 183.592 189.907 182.766C190.827 181.798 191.814 180.896 192.859 180.066H192.858ZM205.578 225.224C205.052 226.94 204.36 228.6 203.511 230.181C202.559 229.942 201.62 229.654 200.698 229.318C200.844 227.504 200.76 225.679 200.447 223.886C199.997 221.398 199.029 219.032 197.605 216.943C196.19 214.931 194.428 213.187 192.403 211.792C191.385 211.06 190.289 210.444 189.135 209.954C187.963 209.467 186.731 209.135 185.473 208.967C184.541 208.847 183.602 208.8 182.663 208.827C182.191 206.754 181.953 204.634 181.952 202.507C181.952 201.889 181.979 201.279 182.017 200.671C183.025 201.455 184.09 202.164 185.202 202.792C187.287 203.949 189.496 204.867 191.787 205.526C193.968 206.189 196.006 206.685 197.703 207.391C199.335 208.043 200.81 209.033 202.03 210.297C202.662 210.956 203.236 211.668 203.747 212.424C204.026 212.8 204.266 213.217 204.52 213.623C204.752 213.996 204.964 214.379 205.157 214.774C206.619 218.077 206.77 221.813 205.58 225.224H205.578ZM184.056 213.255C184.292 213.287 184.529 213.319 184.762 213.364C185.644 213.535 186.503 213.807 187.322 214.173C188.149 214.562 188.929 215.044 189.648 215.608C191.161 216.726 192.464 218.103 193.497 219.674C194.465 221.213 195.099 222.937 195.358 224.736C195.448 225.413 195.492 226.097 195.489 226.781C190.345 223.593 186.343 218.858 184.057 213.255H184.056ZM209.778 231.027C210.397 229.711 210.927 228.356 211.365 226.97C212.12 224.598 212.495 222.121 212.475 219.631C212.445 217.019 211.853 214.444 210.74 212.081C210.466 211.498 210.154 210.934 209.806 210.392C209.48 209.883 209.171 209.372 208.801 208.873C208.085 207.846 207.283 206.881 206.405 205.988C204.581 204.151 202.394 202.713 199.984 201.769C197.66 200.849 195.465 200.373 193.5 199.786C191.618 199.278 189.801 198.554 188.084 197.631C186.402 196.694 184.844 195.55 183.446 194.226C183.375 194.16 183.306 194.086 183.235 194.019C183.965 191.68 184.994 189.445 186.296 187.369C187.178 188.776 188.186 190.101 189.306 191.328C191.069 193.211 193.134 194.788 195.415 195.993C197.669 197.149 200.074 197.983 202.559 198.47C204.966 198.971 207.343 199.19 209.529 199.436C210.545 199.536 211.555 199.689 212.556 199.894C213.24 200.009 213.894 200.262 214.477 200.638C214.633 200.765 214.763 200.922 214.859 201.1C214.955 201.278 215.015 201.473 215.035 201.674C215.161 202.459 215.165 203.26 215.046 204.047C214.996 204.506 214.907 204.989 214.817 205.475C214.682 206.166 214.595 206.865 214.556 207.568C214.45 209.18 214.723 210.795 215.355 212.282C216.069 213.92 217.286 215.289 218.829 216.19C220.266 217.012 221.889 217.456 223.544 217.479C226.587 217.514 229.535 216.42 231.819 214.408C234.032 212.447 235.517 209.797 236.035 206.886C236.49 204.202 236.335 201.45 235.582 198.835C234.853 196.118 233.384 193.658 231.338 191.727C229.376 189.945 227.081 188.569 224.584 187.679C222.304 186.851 219.956 186.223 217.567 185.802C215.256 185.368 212.98 185.048 210.772 184.731C208.656 184.485 206.558 184.103 204.491 183.589C203.643 183.374 202.828 183.046 202.068 182.612C201.249 182.101 200.479 181.516 199.766 180.866C198.652 179.866 197.775 178.629 197.201 177.247C198.769 176.417 200.412 175.737 202.108 175.216C202.313 176.22 202.742 177.164 203.365 177.978C204.165 178.974 205.217 179.738 206.412 180.192C207.493 180.605 208.629 180.857 209.784 180.94L212.839 181.237L218.928 181.849C222.925 182.193 226.887 182.858 230.777 183.836C231.387 184.007 231.983 184.205 232.571 184.418C236.575 189.304 238.845 195.379 239.024 201.693C239.204 208.007 237.283 214.202 233.563 219.307C231.809 219.771 230.035 220.184 228.259 220.555L225.269 221.141C224.175 221.346 223.102 221.654 222.066 222.063C219.903 222.888 218.01 224.295 216.598 226.13C215.561 227.516 214.816 229.099 214.408 230.781C213.113 230.963 211.808 231.056 210.5 231.06C210.263 231.046 210.02 231.035 209.78 231.028L209.778 231.027ZM228.336 224.779C225.605 226.972 222.492 228.643 219.154 229.706C219.359 229.313 219.598 228.939 219.87 228.59C220.842 227.364 222.137 226.433 223.608 225.903C224.4 225.601 225.219 225.376 226.054 225.228L228.336 224.779Z" fill="white"/>
</g>
<defs>
<linearGradient id="paint0_linear_746_11005" x1="-60" y1="-99" x2="96.0279" y2="593.865" gradientUnits="userSpaceOnUse">
<stop stop-color="#458AFE"/>
<stop offset="1" stop-color="#16CB9C"/>
</linearGradient>
<clipPath id="clip0_746_11005">
<rect width="422" height="422" rx="16" fill="white"/>
</clipPath>
</defs>
</svg>
