<svg width="144" height="168" viewBox="0 0 144 168" fill="none" xmlns="http://www.w3.org/2000/svg">
<path d="M135.508 112.189C130.992 124.427 124.163 135.068 115.208 143.814C105.014 153.768 91.6661 161.677 75.5341 167.319C75.0048 167.504 74.4523 167.655 73.8973 167.767C73.1642 167.912 72.4182 167.99 71.6787 168H71.5338C70.7456 168 69.9534 167.921 69.1677 167.767C68.6127 167.655 68.068 167.504 67.5412 167.323C51.39 161.69 38.0253 153.784 27.8214 143.83C18.862 135.085 12.0342 124.45 7.52504 112.212C-0.674241 89.9613 -0.207688 65.4494 0.167861 45.7516L0.17427 45.4491C0.249893 43.8226 0.298599 42.114 0.325515 40.2273C0.462661 30.9642 7.82754 23.3006 17.0919 22.7841C36.4078 21.7062 51.3503 15.4064 64.1177 2.96201L64.2292 2.85947C66.3492 0.915072 69.0203 -0.038542 71.6787 0.00119205C74.2421 0.0345174 76.7954 0.986849 78.8397 2.85947L78.9487 2.96201C91.7187 15.4064 106.661 21.7062 125.977 22.7841C135.241 23.3006 142.606 30.9642 142.743 40.2273C142.77 42.1268 142.819 43.8328 142.895 45.4491L142.898 45.5773C143.273 65.3122 143.737 89.8729 135.508 112.189Z" fill="url(#paint0_linear_992_14334)"/>
<path d="M135.508 112.188C130.993 124.426 124.164 135.067 115.208 143.812C105.014 153.766 91.6663 161.676 75.5344 167.318C75.005 167.503 74.4526 167.654 73.8976 167.766C73.1644 167.91 72.4185 167.989 71.6789 167.999V0C74.2424 0.0333253 76.7956 0.985657 78.84 2.85828L78.9489 2.96082C91.7189 15.4052 106.661 21.705 125.977 22.7829C135.242 23.2995 142.606 30.963 142.744 40.2261C142.771 42.1256 142.819 43.8316 142.895 45.4479L142.899 45.5761C143.273 65.311 143.737 89.8717 135.508 112.188Z" fill="url(#paint1_linear_992_14334)" fill-opacity="0.99"/>
<path d="M113.401 84.0021C113.401 107.039 94.6961 125.791 71.6786 125.873H71.5312C48.4458 125.873 29.6606 107.089 29.6606 84.0021C29.6606 60.9167 48.4458 42.1328 71.5312 42.1328H71.6786C94.6961 42.2148 113.401 60.9667 113.401 84.0021Z" fill="url(#paint2_linear_992_14334)" fill-opacity="0.99"/>
<path d="M113.401 84.0021C113.401 107.039 94.6962 125.791 71.6787 125.873V42.1328C94.6962 42.2148 113.401 60.9667 113.401 84.0021Z" fill="url(#paint3_linear_992_14334)"/>
<path d="M90.5359 77.9696L71.6789 96.8291L67.6043 100.904C66.6417 101.866 65.3792 102.347 64.118 102.347C62.8554 102.347 61.5942 101.866 60.6303 100.904L51.8697 92.1393C49.9445 90.2141 49.9445 87.0956 51.8697 85.1692C53.7923 83.244 56.9146 83.244 58.8398 85.1692L64.118 90.4474L83.5658 70.9995C85.491 69.0731 88.6133 69.0731 90.5359 70.9995C92.4611 72.9247 92.4611 76.047 90.5359 77.9696Z" fill="#DADADA"/>
<defs>
<linearGradient id="paint0_linear_992_14334" x1="0" y1="0" x2="168.315" y2="157.149" gradientUnits="userSpaceOnUse">
<stop stop-color="#0F9CE2"/>
<stop offset="1" stop-color="#652E92"/>
</linearGradient>
<linearGradient id="paint1_linear_992_14334" x1="71.6789" y1="0" x2="192.616" y2="51.3887" gradientUnits="userSpaceOnUse">
<stop stop-color="#458AFE"/>
<stop offset="1" stop-color="#16CB9C"/>
</linearGradient>
<linearGradient id="paint2_linear_992_14334" x1="29.6606" y1="42.1328" x2="113.401" y2="125.873" gradientUnits="userSpaceOnUse">
<stop stop-color="#458AFE"/>
<stop offset="1" stop-color="#16CB9C"/>
</linearGradient>
<linearGradient id="paint3_linear_992_14334" x1="71.6787" y1="42.1328" x2="142.439" y2="80.7857" gradientUnits="userSpaceOnUse">
<stop stop-color="#0F9CE2"/>
<stop offset="1" stop-color="#652E92"/>
</linearGradient>
</defs>
</svg>
