<svg width="250" height="250" viewBox="0 0 250 250" fill="none" xmlns="http://www.w3.org/2000/svg">
<g clip-path="url(#clip0_987_14416)">
<path d="M250 190.918L235.352 205.566H14.6484L0 190.918L27.6852 107.519C28.5645 104.589 31.4941 102.539 34.5707 102.539H215.429C218.506 102.539 221.436 104.589 222.315 107.519L250 190.918Z" fill="url(#paint0_linear_987_14416)"/>
<path d="M250 190.918L235.352 205.566H125V102.539H215.429C218.506 102.539 221.436 104.589 222.315 107.519L250 190.918Z" fill="url(#paint1_linear_987_14416)" fill-opacity="0.99"/>
<path d="M190.918 154.293C190.918 158.394 187.696 161.617 183.594 161.617H66.4062C62.3035 161.617 59.082 158.394 59.082 154.293C59.082 150.19 62.3035 146.969 66.4062 146.969H183.594C187.696 146.969 190.918 150.19 190.918 154.293Z" fill="#61729B"/>
<path d="M125 0C88.6726 0 59.082 29.5906 59.082 65.918C59.082 102.245 88.6726 131.836 125 131.836C161.327 131.836 190.918 102.245 190.918 65.918C190.918 29.5906 161.327 0 125 0Z" fill="url(#paint2_linear_987_14416)"/>
<path fill-rule="evenodd" clip-rule="evenodd" d="M118.896 18.5797C118.896 15.058 121.751 12.2031 125.273 12.2031C128.795 12.2031 131.65 15.058 131.65 18.5797V31.8766C136.179 32.0863 140.618 33.1027 144.97 34.8003C145.408 34.9697 145.832 35.1675 146.241 35.4076C147.88 36.368 148.303 37.5968 147.583 39.3341C146.82 41.1843 146.057 43.0205 145.224 44.8283C144.504 46.3961 143.529 46.8904 141.849 46.5091C140.843 46.2809 139.846 46.0177 138.85 45.7548L138.85 45.7547L138.85 45.7547C137.564 45.4155 136.281 45.0768 134.984 44.8142C130.126 43.8114 125.309 43.769 120.592 45.6334C116.538 47.2435 114.067 50.3367 112.372 54.1926C112.343 54.2208 112.343 54.2773 112.343 54.3338H126.467C127.626 54.3338 128.558 55.266 128.558 56.4242V61.071C128.558 62.2292 127.626 63.1614 126.467 63.1614H110.31C110.3 63.9859 110.303 64.8104 110.306 65.6514V65.6514C110.308 66.0782 110.31 66.5092 110.31 66.9466H126.467C127.626 66.9466 128.558 67.8788 128.558 69.037V73.6838C128.558 74.842 127.626 75.7741 126.467 75.7741H111.722C113.502 80.8588 116.397 84.7994 121.835 86.5084C126.171 87.8785 130.578 87.7937 134.97 86.8757C136.261 86.6111 137.538 86.2737 138.817 85.9359L138.817 85.9358C139.791 85.6784 140.767 85.4208 141.75 85.1949C143.543 84.7853 144.504 85.2655 145.252 86.9039C146.1 88.74 146.877 90.6044 147.639 92.4688C148.331 94.1495 147.88 95.5055 146.128 96.3105C144.32 97.1438 142.428 97.8218 140.521 98.3444C137.563 99.1595 134.604 99.6571 131.65 99.8058V113.116C131.65 116.637 128.795 119.492 125.273 119.492C121.751 119.492 118.896 116.637 118.896 113.116V98.1752C118.793 98.1426 118.69 98.1096 118.586 98.076C109.787 95.223 103.94 89.2344 100.451 80.8164C99.9645 79.6264 99.5995 78.3832 99.2335 77.1369L99.2334 77.1366C99.0999 76.682 98.9663 76.2271 98.8267 75.7741H91.9341C90.7759 75.7741 89.8438 74.842 89.8438 73.6838V69.037C89.8438 67.8788 90.7759 66.9466 91.9341 66.9466H97.6544V63.1614H91.9341C90.7759 63.1614 89.8438 62.2292 89.8438 61.071V56.4242C89.8438 55.266 90.7759 54.3338 91.9341 54.3338H99.1939L99.434 53.6135C101.383 47.3848 104.745 42.0883 109.928 38.077C112.661 35.9547 115.681 34.4693 118.896 33.4713V18.5797Z" fill="url(#paint3_linear_987_14416)" fill-opacity="0.99"/>
<path d="M183.594 161.617H125V146.969H183.594C187.696 146.969 190.918 150.19 190.918 154.293C190.918 158.394 187.696 161.617 183.594 161.617Z" fill="#47568C"/>
<path d="M250 190.922V242.68C250 246.78 246.778 250.004 242.676 250.004H7.32422C3.22151 250.004 0 246.78 0 242.68V190.922H250Z" fill="url(#paint4_linear_987_14416)"/>
<path d="M250 190.922V242.68C250 246.78 246.778 250.004 242.676 250.004H125V190.922H250Z" fill="url(#paint5_linear_987_14416)" fill-opacity="0.99"/>
</g>
<defs>
<linearGradient id="paint0_linear_987_14416" x1="0" y1="102.539" x2="68.1512" y2="283.85" gradientUnits="userSpaceOnUse">
<stop stop-color="#0F9CE2"/>
<stop offset="1" stop-color="#652E92"/>
</linearGradient>
<linearGradient id="paint1_linear_987_14416" x1="125" y1="102.539" x2="226.132" y2="225.239" gradientUnits="userSpaceOnUse">
<stop stop-color="#458AFE"/>
<stop offset="1" stop-color="#16CB9C"/>
</linearGradient>
<linearGradient id="paint2_linear_987_14416" x1="59.082" y1="0" x2="190.918" y2="144.543" gradientUnits="userSpaceOnUse">
<stop stop-color="#0F9CE2"/>
<stop offset="1" stop-color="#652E92"/>
</linearGradient>
<linearGradient id="paint3_linear_987_14416" x1="89.8437" y1="12.2031" x2="179.699" y2="60.867" gradientUnits="userSpaceOnUse">
<stop stop-color="#458AFE"/>
<stop offset="1" stop-color="#16CB9C"/>
</linearGradient>
<linearGradient id="paint4_linear_987_14416" x1="0" y1="190.922" x2="24.4427" y2="304.318" gradientUnits="userSpaceOnUse">
<stop stop-color="#0F9CE2"/>
<stop offset="1" stop-color="#652E92"/>
</linearGradient>
<linearGradient id="paint5_linear_987_14416" x1="125" y1="190.922" x2="170.652" y2="287.508" gradientUnits="userSpaceOnUse">
<stop stop-color="#458AFE"/>
<stop offset="1" stop-color="#16CB9C"/>
</linearGradient>
<clipPath id="clip0_987_14416">
<rect width="250" height="250" fill="white"/>
</clipPath>
</defs>
</svg>
